<svg id="Layer_5" enable-background="new 0 0 64 64" height="512" viewBox="0 0 64 64" width="512" xmlns="http://www.w3.org/2000/svg"><g><path d="m53 59.858v3.142h2v-3.142c-.322.084-.653.142-1 .142s-.678-.058-1-.142z"/><path d="m61.684 33.051-2.335.778c.29.449.504.954.597 1.512.022.131.016.259.025.389l2.346-.782z"/><path d="m60.999 9.142.001-3.142h-2l-.001 3.135c.322-.083.656-.135.999-.135.342-.001.674.057 1.001.142z"/><path d="m26.981 16.712c1.186-.523 2.019-1.706 2.019-3.084v-.353c-.294-.172-.634-.275-1-.275-1.105 0-2 .895-2 2 0 .731.396 1.363.981 1.712z"/><path d="m5.839 12.212c-.314-.736-1.035-1.213-1.836-1.213-.273 0-.539.055-.791.164-.49.209-.87.599-1.068 1.095s-.192 1.04.019 1.531l2.62 6.112c.483 1.128 1.44 1.961 2.625 2.283l6.64 1.811c-.016-.166-.048-.326-.048-.495 0-1.182.39-2.354 1.099-3.299l.041-.054-6.681-1.822z"/><path d="m15 36c0-.289.028-.572.075-.848l-6.745-1.125c-.113-.018-.222-.027-.33-.027-.981 0-1.811.703-1.972 1.671-.181 1.088.556 2.121 1.644 2.302l7.328 1.221z"/><path d="m15 43.412-4.148 1.244c-1.706.512-2.851 2.052-2.851 3.832v7.512c0 1.103.897 2 2 2s2-.897 2-2v-7.512l3.096-.929c-.061-.588-.097-1.184-.097-1.788z"/><path d="m1.685 34.949 2.346.782c.009-.13.003-.258.025-.388.093-.558.307-1.064.597-1.513l-2.336-.778z"/><path d="m4.002 8.999c.344 0 .677.052.999.135v-3.134h-2l.001 3.142c.326-.085.659-.143 1-.143z"/><path d="m61.857 12.257c-.198-.496-.578-.885-1.068-1.095-.252-.108-.518-.164-.791-.164-.801 0-1.522.477-1.836 1.213l-2.62 6.112-6.682 1.822.04.053c.709.947 1.1 2.119 1.1 3.301 0 .169-.032.33-.047.495l6.641-1.811c1.185-.322 2.142-1.155 2.625-2.283l2.62-6.112c.21-.491.216-1.035.018-1.531z"/><path d="m56 34c-.107 0-.217.009-.33.027l-6.746 1.124c.048.277.076.56.076.849v3.194l7.329-1.221c1.087-.181 1.825-1.214 1.644-2.302-.162-.968-.992-1.671-1.973-1.671z"/><path d="m53.149 44.656-4.149-1.244v2.359c0 .604-.036 1.2-.097 1.789l3.097.928v7.512c0 1.103.897 2 2 2s2-.897 2-2v-7.512c0-1.78-1.146-3.32-2.851-3.832z"/><path d="m21 29h22v2h-22z"/><path d="m38.859 33h-13.718c.65 2.279 3.478 4 6.859 4s6.208-1.721 6.859-4z"/><path d="m23.103 33h-3.103c-1.654 0-3 1.346-3 3v9.771c0 8.03 6.212 14.663 14 15.178v-21.995c-4.068-.352-7.317-2.821-7.897-5.954zm4.322 22.987c.589.277 1.205.501 1.829.665l-.508 1.935c-.742-.195-1.473-.46-2.172-.79zm-3.018.517c-3.386-2.495-5.407-6.508-5.407-10.733v-.771h2v.771c0 3.593 1.717 7.004 4.593 9.124z"/><path d="m45.004 18.338-.019-1.675.213-.275c.822-1.061 1.802-3.031 1.802-6.388 0-3.429-2.716-5.393-4.575-6.335 1.191 1.823 2.575 4.366 2.575 6.335 0 1.47-.596 3.464-1.771 5.926-.892 1.867-2.798 3.074-4.857 3.074-2.962 0-5.372-2.41-5.372-5.372v-5.628c0-.551-.449-1-1-1s-1 .449-1 1v5.628c0 2.962-2.41 5.372-5.372 5.372-2.059 0-3.965-1.207-4.856-3.074-1.176-2.462-1.772-4.456-1.772-5.926 0-1.976 1.394-4.53 2.587-6.354-1.862.929-4.587 2.881-4.587 6.354 0 3.347.975 5.314 1.792 6.375l.208.27v1.689l-2.3 3.066c-.451.602-.7 1.348-.7 2.1 0 1.93 1.57 3.5 3.5 3.5h25c1.93 0 3.5-1.57 3.5-3.5 0-.752-.249-1.498-.7-2.101z"/><path d="m37.019 16.712c.585-.349.981-.981.981-1.712 0-1.105-.895-2-2-2-.366 0-.706.103-1 .275v.353c0 1.378.833 2.561 2.019 3.084z"/><path d="m44 33h-3.103c-.58 3.133-3.829 5.602-7.897 5.954v21.995c7.786-.513 14-7.147 14-15.178v-9.771c0-1.654-1.346-3-3-3zm1 12.771c0 1.973-.421 3.875-1.252 5.653l-1.812-.847c.706-1.512 1.064-3.129 1.064-4.806v-6.771h2zm0-8.771h-2v-2h2z"/><path d="m9.001 59.858v3.142h2v-3.142c-.322.084-.653.142-1 .142s-.678-.058-1-.142z"/></g></svg>