<svg id="Capa_1" enable-background="new 0 0 604.053 604.053" height="512" viewBox="0 0 604.053 604.053" width="512" xmlns="http://www.w3.org/2000/svg"><g><g id="Page-1_72_"><g id="_x30_73---Artillery" clip-rule="evenodd" fill-rule="evenodd"><circle id="Oval_55_" cx="76.202" cy="571.193" r="32.658"/><path id="Path_551_" d="m108.86 429.674v18.691l108.86-22.425v-65.534l-74.025 61.735c-5.876 4.871-13.269 7.536-20.901 7.533z"/><path id="Path_550_" d="m207.053 255.824c-3.454-4.677-8.652-7.759-14.413-8.546-5.807-.806-11.694.764-16.329 4.354l-106.749 82.147c-2.664 2.051-4.231 5.217-4.246 8.578v54.659c0 6.012 4.874 10.886 10.886 10.886h46.592c2.537-.002 4.995-.883 6.956-2.493l116.59-97.212z"/><circle id="Oval_54_" cx="228.607" cy="549.421" r="54.43"/><path id="Path_549_" d="m601.748 18.487-11.006-14.098c-1.968-2.521-4.944-4.049-8.139-4.179-3.195-.13-6.286 1.151-8.451 3.504l-29.207 31.711 14.74 20.324 38.678-20.999c2.812-1.527 4.809-4.215 5.461-7.347s-.107-6.394-2.076-8.916z"/><path id="Path_548_" d="m367.317 173.7 3.778 4.92 9.557 12.247 160.831-123.132-12.835-17.69z"/><path id="Path_547_" d="m369.908 212.781-14.544-18.931-12.007-15.371-.055-.109-106.062 81.406 26.126 34.813z"/><path id="Path_546_" d="m10.886 571.193h10.886c-.077-23.397 14.856-44.207 37.046-51.625s46.636.227 60.645 18.967h33.812c5.381-37.467 37.48-65.286 75.331-65.286s69.951 27.818 75.331 65.286h13.259c5.318-.002 9.856-3.845 10.734-9.09l15.349-91.976c.607-3.547-.578-7.164-3.165-9.665-2.588-2.5-6.243-3.561-9.767-2.833l-312.93 64.456c-10.142 2.071-17.424 10.997-17.417 21.349v49.532c0 6.011 4.874 10.885 10.886 10.885z"/></g></g></g></svg>