<svg id="Layer_1" enable-background="new 0 0 509.546 509.546" height="512" viewBox="0 0 509.546 509.546" width="512" xmlns="http://www.w3.org/2000/svg"><g><path d="m447.784 82.763-30.348 30.349 57.446 6.194 34.453-119.306-119.306 34.453 6.194 57.446 30.349-30.348z"/><path d="m398.287 111.048-2.064-19.148-54.802 54.802c-3.794-3.326-7.704-6.488-11.703-9.511l-43.196 43.196c4.217 2.765 8.309 5.752 12.251 8.963l-94.94 94.94-111.876-111.876 90.859-14.346c25.834-4.079 51.88-1.151 75.643 7.955l45.493-45.493c-38.786-21.199-83.79-29.806-128.591-23.626l-102.31 14.111-27.961-28.608-42.426 42.426 179.956 180.669-70.946 70.946-36.909-10.545-74.554 74.554 49.898 19.191 19.191 49.898 74.555-74.555-10.733-37.566 70.711-70.711 179.863 180.846 42.426-42.426-31.338-32.385 15.245-96.549c7.134-45.182-.855-90.824-21.767-130.274l-44.949 44.949c9.106 23.764 12.034 49.81 7.955 75.643l-14.346 90.858-111.876-111.874 94.94-94.94c3.211 3.942 6.198 8.034 8.963 12.251l42.93-42.93c-2.978-4.041-6.095-7.995-9.378-11.835l54.936-54.936z"/></g></svg>