<svg id="Layer_1" height="512" viewBox="0 0 512 512" width="512" xmlns="http://www.w3.org/2000/svg" data-name="Layer 1"><path d="m143.959 117.879a7.1 7.1 0 0 1 7.668 6.457l.867 10.113-6.373.546a15.987 15.987 0 0 0 -14.65 14.86l-.122 1.712a352.311 352.311 0 0 1 58.9-7.409 16.036 16.036 0 0 0 -16.778-11.507l-11.017.944-.867-10.112a17.112 17.112 0 0 0 -18.485-15.568 7.1 7.1 0 0 1 -7.668-6.457 5 5 0 1 0 -9.964.853 17.113 17.113 0 0 0 18.489 15.568z"/><path d="m178 293.231v-60.854a80.079 80.079 0 0 0 -47.659 19.69l43.2 43.013a13.622 13.622 0 0 1 4.459-1.849z"/><path d="m166.475 302.358-43.2-42.916a77 77 0 0 0 -19.788 47.558h61.148a14.685 14.685 0 0 1 1.84-4.642z"/><path d="m166.475 321.215a38.447 38.447 0 0 1 -1.84-4.215h-61.148a78.881 78.881 0 0 0 19.788 47.344z"/><path d="m235.673 252.067a80.11 80.11 0 0 0 -47.673-19.69v60.854a13.789 13.789 0 0 1 4.489 1.849z"/><path d="m173.944 311.573a9.085 9.085 0 1 0 9.085-9.027 9.066 9.066 0 0 0 -9.085 9.027z"/><path d="m139.414 160.132c3.31 10.813 6.091 26.4 7.783 43.65a113.93 113.93 0 0 1 35.832-5.753c3.454 0 6.871.163 10.248.464-1.794-17.586-4.729-33.412-8.172-44.071a342.367 342.367 0 0 0 -45.691 5.71z"/><path d="m19.186 179.683h33.533v76.313h-33.533z" transform="matrix(.996 -.085 .085 .996 -18.466 3.865)"/><path d="m137.5 207.488c-1.631-18.031-4.558-34.689-7.93-45.3q-13.878 3.117-27.493 7.381l-42.259 13.263 5.608 65.449 21.157 2.835a114.59 114.59 0 0 1 50.917-43.628z"/><path d="m130.341 371.078a80.073 80.073 0 0 0 47.659 19.69v-60.854a13.607 13.607 0 0 1 -4.46-1.849z"/><path d="m188 329.914v60.854a80.11 80.11 0 0 0 47.673-19.69l-43.184-43.013a13.789 13.789 0 0 1 -4.489 1.849z"/><path d="m195.426 153.979c3.456 11.742 6.338 28.1 8.039 45.881a114.209 114.209 0 0 1 70.7 43.59l180.917-26.273-6-69.978zm208.139 22.258-78.165 2.548c-.055 0-.111 0-.166 0a5 5 0 0 1 -.16-10l78.161-2.548a5 5 0 0 1 .326 10zm20.289-.343-2.062.106h-.1a5.065 5.065 0 0 1 -.1-10.127l2.062-.041a5.032 5.032 0 0 1 .2 10.062z"/><path d="m461.996 136.538h29.946v87.037h-29.946z" transform="matrix(.996 -.085 .085 .996 -13.629 41.372)"/><path d="m183.029 415.116c57.341 0 103.992-46.449 103.992-103.543s-46.651-103.544-103.992-103.544-103.992 46.45-103.992 103.544 46.651 103.543 103.992 103.543zm0-192.911c49.469 0 89.716 40.09 89.716 89.368s-40.245 89.367-89.716 89.367-89.717-40.09-89.717-89.367 40.247-89.368 89.717-89.368z"/><path d="m199.582 321.215 43.2 43.129a78.875 78.875 0 0 0 19.788-47.344h-61.148a38.447 38.447 0 0 1 -1.84 4.215z"/><path d="m201.422 307h61.148a77 77 0 0 0 -19.787-47.558l-43.2 42.916a14.685 14.685 0 0 1 1.839 4.642z"/></svg>