<?xml version="1.0" encoding="iso-8859-1"?>
<!-- Generator: Adobe Illustrator 16.0.0, SVG Export Plug-In . SVG Version: 6.00 Build 0)  -->
<!DOCTYPE svg PUBLIC "-//W3C//DTD SVG 1.1//EN" "http://www.w3.org/Graphics/SVG/1.1/DTD/svg11.dtd">
<svg version="1.1" id="Capa_1" xmlns="http://www.w3.org/2000/svg" xmlns:xlink="http://www.w3.org/1999/xlink" x="0px" y="0px"
	 width="91.229px" height="91.229px" viewBox="0 0 91.229 91.229" style="enable-background:new 0 0 91.229 91.229;"
	 xml:space="preserve">
<g>
	<g>
		<path d="M81.205,30.824c0,0,0.502-0.335-1.674-2.843c-2.174-2.509-5.436-4.767-4.6-6.774c0,0,1.172-6.021,2.174-7.777
			c1.004-1.756-2.76,3.429-4.098,4.098c0,0-0.335-2.76,0.585-4.85c0.921-2.09-1.087-0.251-3.512,3.178
			c-2.425,3.429-2.843-4.098-12.544-3.094c0,0,4.349,0.251,5.352,1.589c1.004,1.338,1.172,4.516-12.628-1.923
			c-13.799-6.439-19.82,3.847-19.82,3.847s7.861-6.774,16.14-1.254c8.278,5.52-5.854-0.836-10.37,4.516c0,0,3.512-1.589,3.596,1.087
			c0.084,2.676-9.868,4.265-14.969-0.92c0,0,8.948,10.872,17.98,5.436c0,0-3.596,3.596-11.039,2.927
			c-7.443-0.669-9.617,3.345-9.617,3.345s2.843-2.509,5.603-0.334c2.76,2.174,0.836,6.188-9.45,2.843
			C8.029,30.576,0,34.925,0,34.925s11.792-3.178,13.046,3.345c1.254,6.523-9.032,3.763-9.032,3.763s3.094,2.927,7.443,1.505
			c0,0-4.265,2.007-11.457,1.422c0,0,59.031,16.39,45.614,35.959c0,0,6.068-4.432,4.73-19.402c0,0,5.604-10.453,9.366-16.557
			c3.763-6.105,5.519,1.224,10.203,0.655c4.683-0.571,12.21,6.872,10.454,9.297c0,0,4.683,3.512,5.938,0.585
			c0,0,3.178-0.251,3.262-2.843c0,0,4.601,0-1.504-9.868C81.958,32.914,82.878,30.907,81.205,30.824z M75.659,32.869
			c-0.056-0.299-0.124-0.589-0.246-0.863c1.083,0.741,1.729,1.583,2.106,2.239C75.848,33.891,75.759,33.41,75.659,32.869z"/>
	</g>
</g>
<g>
</g>
<g>
</g>
<g>
</g>
<g>
</g>
<g>
</g>
<g>
</g>
<g>
</g>
<g>
</g>
<g>
</g>
<g>
</g>
<g>
</g>
<g>
</g>
<g>
</g>
<g>
</g>
<g>
</g>
</svg>
