<svg id="Capa_1" enable-background="new 0 0 512 512" height="512" viewBox="0 0 512 512" width="512" xmlns="http://www.w3.org/2000/svg"><g><g><path d="m62.516 391c7.357 50.75 50.729 90 103.484 90h180c52.755 0 96.127-39.25 103.484-90z"/><path d="m61 331h390v30h-390z"/></g><g><path d="m256 31c-143.613 0-256 104.824-256 195 0 30.601 10.384 55.345 29.022 75h453.955c18.639-19.655 29.023-44.399 29.023-75 0-90.176-112.387-195-256-195zm57.935 237.422-57.935-30.454-57.935 30.454 11.074-64.512-46.86-45.674 64.761-9.419 28.96-58.696 28.96 58.696 64.761 9.419-46.86 45.674z"/><path d="m265.038 176.239-9.038-18.325-9.038 18.325-20.23 2.945 14.634 14.267-3.457 20.127 18.091-9.507 18.091 9.507-3.457-20.127 14.634-14.267z"/></g></g></svg>