<svg id="Layer_1" height="512" viewBox="0 0 512 512" width="512" xmlns="http://www.w3.org/2000/svg" data-name="Layer 1"><path d="m377.362 285.311a6 6 0 0 0 -8.482-.2l-17.019 16.245c-5.453-2.854-15.011-7.852-17.082-8.909-4.377-3.654-20.02-31.807-32.136-56.051a6 6 0 0 0 -11.342 2.2q-.414-15.453-1.21-30.806a5.983 5.983 0 0 0 3.4 4.119l46.9 20.8a6.013 6.013 0 0 0 3.887.337c10.8-2.7 23.359-7.82 21.85-16.874-.9-5.383-3-19.279-3.021-19.418a6 6 0 1 0 -11.865 1.795c.079.521 1.781 11.768 2.776 17.919-1.859 1.307-6.269 3.126-10.706 4.41l-44.953-19.938a6 6 0 0 0 -8.4 4.838 130.635 130.635 0 0 1 -30.257 3.416 145.744 145.744 0 0 1 -32.627-3.693c-.049.671-.091 1.339-.139 2.01a5.991 5.991 0 0 0 -8.019-4.626l-48.217 18.049c-4.439-1.27-9-3.145-10.891-4.466.995-6.152 2.7-17.395 2.775-17.916a6 6 0 1 0 -11.865-1.795c-.022.139-2.124 14.035-3.021 19.418-1.509 9.054 11.049 14.173 21.85 16.874a6.011 6.011 0 0 0 3.558-.2l50.018-18.722a5.986 5.986 0 0 0 3.62-3.837c-.683 9.645-1.317 19.266-1.834 28.864 20.655 4.985 47.44 5.049 66.371.19a5.975 5.975 0 0 0 .624 2.421c.07.139 7.021 14.035 14.745 28.179 16.425 30.073 20.233 31.978 22.507 33.114 1.46.731 15.615 8.138 20.946 10.93a6 6 0 0 0 6.927-.975l20.132-19.216a6 6 0 0 0 .2-8.486z"/><path d="m310.873 358.394 13.727 15.557a5.994 5.994 0 0 0 4.311 2.027l29.283.915h.192a6 6 0 0 0 .183-12l-26.688-.834-11.2-12.689-16.8-50.829a6 6 0 0 0 -11.395 3.765l17.182 52a6 6 0 0 0 1.205 2.088z"/><path d="m295.113 155.637a5.911 5.911 0 0 0 1.077.1 6 6 0 0 0 5.9-4.931c.336-1.849 1.356-7.478-17.31-37.472a6 6 0 1 0 -10.187 6.34c7.107 11.422 14.972 25.863 15.611 29.593a6 6 0 0 0 4.909 6.37z"/><path d="m235.486 111.408a6 6 0 0 0 -8.263 1.924c-18.666 29.994-17.646 35.623-17.31 37.472a6 6 0 0 0 5.9 4.931 5.911 5.911 0 0 0 1.077-.1 6 6 0 0 0 4.912-6.372c.639-3.726 8.5-18.169 15.612-29.593a6 6 0 0 0 -1.928-8.262z"/><path d="m156.8 313.01a6 6 0 0 0 6.927.975c5.331-2.792 19.485-10.2 20.947-10.93 2.244-1.122 6-3 23.464-32.969 8.239-14.138 15.711-28.026 15.785-28.164a6 6 0 1 0 -10.57-5.682c-13.107 24.385-29.851 52.648-34.273 56.2-2.018 1.029-11.633 6.056-17.108 8.922l-17.022-16.248a6 6 0 0 0 -8.285 8.68z"/><path d="m155.445 376.9q.1 0 .192 0l29.283-.915a5.994 5.994 0 0 0 4.311-2.027l13.727-15.557a6 6 0 0 0 1.136-1.909l19.006-52.002a6 6 0 0 0 -11.269-4.121l-18.619 50.931-11.261 12.763-26.689.834a6 6 0 0 0 .183 12z"/><path d="m359.912 397.126a6 6 0 0 0 -6.885.56c-.672.56-16.366 13.973-8.295 36.637l11.3-4.025c-3.28-9.211-.714-15.979 1.724-19.8 3.67 3.445 7.941 9.554 4.167 17.376l10.808 5.215c8.449-17.503-4.691-31.178-12.819-35.963z"/><path d="m269.55 163.869a30.522 30.522 0 0 0 -25.314 1.59c-.109.068-.224.123-.337.183a30.626 30.626 0 0 0 -15.867 26.812c0 .152-.006.3-.017.456s-.024.322-.036.483c20 4.938 43.087 5 61.316.18-.015-.246-.028-.492-.044-.738q-.012-.191-.012-.381a30.647 30.647 0 0 0 -19.569-28.537c-.04-.017-.08-.032-.12-.048z"/><path d="m289.26 352.992q.563-9.017.994-18.042a147.316 147.316 0 0 1 -31.611 3.216 162.062 162.062 0 0 1 -33.5-3.4q.762 9.826 1.914 19.677c.164.878.911 4.834 2.159 10.783 19.955 5.172 40.434 5.269 58.5.279.893-6.746 1.448-11.65 1.544-12.513z"/><path d="m291.655 289.1a152.777 152.777 0 0 1 -33 3.356 167.805 167.805 0 0 1 -35.189-3.577c0 11.129.265 22.256.867 33.4 20.619 5.086 47.62 5.156 66.475.193q.64-16.689.847-33.372z"/><path d="m153.69 164.949c7.033 1.171 51.471 7.7 66.186 9.865a42.82 42.82 0 0 1 6.6-10.258l-64.467-8.245a5.99 5.99 0 0 1 -3.482-1.709l-15.556-15.556c-.029-.029-.048-.064-.076-.093a5.945 5.945 0 0 1 -.6-.738c-.039-.056-.083-.109-.12-.166-.014-.023-.032-.042-.047-.066a6 6 0 0 1 -.432-.844c-.019-.045-.039-.088-.057-.133a5.933 5.933 0 0 1 -.294-.993c-.008-.037-.017-.074-.024-.111a5.907 5.907 0 0 1 -.1-1.034c0-.038 0-.076 0-.114a5.968 5.968 0 0 1 .1-1.017c.008-.046.016-.092.025-.138a6.01 6.01 0 0 1 .288-.971c.018-.045.034-.091.053-.137a6.015 6.015 0 0 1 .489-.929l.059-.093a6.016 6.016 0 0 1 .712-.872c.011-.011.018-.024.03-.036s.015-.011.022-.018a5.9 5.9 0 0 1 .851-.695c.039-.027.076-.056.115-.081s.048-.035.074-.051c13.457-8.412 20.37-17.874 20.546-28.127.2-11.767-8.272-23.3-15.417-30.9a113.094 113.094 0 0 0 -11.636-10.684 156.85 156.85 0 0 1 17.179-30.431 6 6 0 0 0 -9.491-7.342 166.07 166.07 0 0 0 -20.152 36.317c-11.518 28.557-12.744 55.7-3.545 78.5a6 6 0 0 0 11.339-3.867c0 .011.008.021.011.033 2.666 9.669 11.268 30.142 20.817 31.734zm-16.19-104.875q-.379.885-.752 1.788.37-.903.752-1.788zm-4.852 72.484c.005.011.007.022.012.032.035.091.065.186.1.28-.041-.104-.072-.209-.114-.312z"/><path d="m291.592 251.6a151.155 151.155 0 0 1 -32.435 3.277 165.639 165.639 0 0 1 -34.84-3.551q-.551 12.646-.764 25.267c20.934 5.089 49.065 5.142 68.2.149q.041-12.593-.161-25.142z"/><path d="m281.5 401.784c1.662-7.082 3.153-15.561 4.375-23.468a119.264 119.264 0 0 1 -26.17 2.857 133.116 133.116 0 0 1 -27.634-2.951c1.61 7.018 3.568 15.065 5.821 23.423 13.483 3.149 31.216 3.197 43.608.139z"/><path d="m336.2 487.793c13.725-5.268 21.656-14.417 23.572-27.193a5.7 5.7 0 0 1 .113-.565 113.616 113.616 0 0 0 2.705-23.1l-7.845.714c.651 15.845-3.442 27.683-12.2 35.242-9.551 8.241-24.343 10.535-40.577 6.3-8.083-2.108-14.822-7.946-19.488-16.882-7.628-14.6-8.348-34.783-4.778-47.558a113 113 0 0 1 -17.276 1.287 120.637 120.637 0 0 1 -18.858-1.453c4.978 16.629 10.98 33.026 17.6 43.751a5.9 5.9 0 0 1 .372.7c.576 1.261 14.76 31.338 55.015 33.053a69.458 69.458 0 0 0 21.645-4.296z"/><path d="m382.673 140.368a6 6 0 0 0 7.809-3.319c9.2-22.8 7.973-49.94-3.545-78.5a166.07 166.07 0 0 0 -20.152-36.317 6 6 0 0 0 -9.491 7.342 156.915 156.915 0 0 1 17.18 30.43 113.115 113.115 0 0 0 -11.637 10.685c-7.145 7.6-15.619 19.13-15.417 30.9.176 10.253 7.089 19.715 20.546 28.127.026.016.048.035.074.051s.076.054.115.081a5.9 5.9 0 0 1 .851.695c.007.007.015.011.022.018s.019.025.03.036a6.016 6.016 0 0 1 .712.872l.059.093a6.015 6.015 0 0 1 .489.929c.019.046.035.092.053.137a6.01 6.01 0 0 1 .288.971c.009.046.017.092.025.138a5.968 5.968 0 0 1 .1 1.017v.114a5.907 5.907 0 0 1 -.1 1.034c-.007.037-.016.074-.024.111a5.933 5.933 0 0 1 -.294.993c-.018.045-.038.088-.057.133a6 6 0 0 1 -.432.844c-.015.024-.033.043-.048.066-.036.057-.079.109-.118.165a6.008 6.008 0 0 1 -.606.742c-.028.028-.046.062-.074.09l-15.559 15.554a6 6 0 0 1 -3.63 1.727l-60.875 6.247a42.876 42.876 0 0 1 7.564 10.457c13.185-1.659 54.739-6.911 61.779-8.084 9.55-1.592 18.153-22.07 20.824-31.738l.007-.022a6 6 0 0 0 3.532 7.181zm-3.412-7.541c.026-.074.049-.15.077-.223.006-.013.009-.027.015-.041-.035.084-.061.174-.092.264z"/></svg>