<svg id="Layer_1" height="512" viewBox="0 0 512 512" width="512" xmlns="http://www.w3.org/2000/svg" data-name="Layer 1"><path d="m376.377 199.8c-32.3-.925-70.521-11.514-107.614-29.817s-68.763-42.196-89.163-67.283c-11.7-14.377-18.971-28.292-21.639-40.995-13.234 30.811-32.579 89.943-28.511 165.717 3.209 59.768.26 98.672-2.778 120.785a35.311 35.311 0 0 0 17.919 35.941l16.073 8.918a35.579 35.579 0 0 0 43.791-7.621c19.835-22.655 58.163-58.728 128.119-101.924 55.751-34.425 81.279-70.882 92.531-93.1-11.088 6.192-26.064 9.446-44.205 9.446-1.492-.002-2.995-.024-4.523-.067zm-216.677 102.636a5 5 0 0 1 -5 4.9h-.1a5 5 0 0 1 -4.9-5.1c.386-19.441-.031-40.731-1.241-63.279a396.779 396.779 0 0 1 .365-48.483 5 5 0 1 1 9.976.69 387.148 387.148 0 0 0 -.356 47.257c1.225 22.793 1.646 44.33 1.256 64.015zm2.455-141.815c-.234 1.554-.466 2.73-.671 3.767-.255 1.292-.476 2.408-.691 4.14a5 5 0 1 1 -9.923-1.23c.258-2.088.535-3.491.8-4.846.2-1.025.393-1.992.595-3.323a5 5 0 1 1 9.887 1.492z"/><path d="m168.246 406.442a44.742 44.742 0 0 1 -12.438-4.631l-16.074-8.918a45.911 45.911 0 0 1 -9.21-6.726l-21.547 39.746a14.654 14.654 0 0 1 -12.85 7.975 21.181 21.181 0 0 0 -10.788 39.2 20.793 20.793 0 0 0 21.123.521 5 5 0 0 1 7.373 3.784 21.013 21.013 0 0 0 39.006 8.232 21.316 21.316 0 0 0 -2.067-24.445 15.039 15.039 0 0 1 -1.952-16.569z"/><path d="m330.361 44.843c-35.83-17.679-72.578-27.9-103.474-28.787-1.391-.04-2.766-.059-4.118-.059-26.946 0-46.151 7.846-53.013 21.785-7.207 14.643-.794 36.005 17.6 58.608 19.521 24 50.005 46.946 85.836 64.626s72.579 27.9 103.475 28.787c29.095.844 49.924-7.085 57.13-21.725s.794-36-17.6-58.609c-19.521-23.994-50.005-46.945-85.836-64.626zm84.971 114.034c-5.168 10.5-18.421 16.029-37.881 16.029a124.142 124.142 0 0 1 -13.432-.776c-25.127-2.744-55.465-12.4-85.425-27.182s-56.087-32.991-73.567-51.27c-18.645-19.5-25.454-37.262-19.172-50.022s24.505-18.181 51.312-15.256c25.127 2.744 55.465 12.4 85.425 27.182s56.087 32.99 73.567 51.269c18.641 19.501 25.454 37.266 19.173 50.026z"/><path d="m307.261 92.183c-10.753-5.305-21.537-8.758-30.365-9.722a40.422 40.422 0 0 0 -4.394-.256c-5.175 0-7.77 1.234-8.28 2.27-1.89 3.841 8.947 17.954 32.328 29.491 10.753 5.306 21.537 8.759 30.366 9.724 8.132.884 12.035-.719 12.673-2.015 1.891-3.84-8.947-17.954-32.328-29.492z"/><path d="m318.167 66.552c-28.938-14.279-58.091-23.586-82.086-26.208a117.029 117.029 0 0 0 -12.625-.735c-15.083 0-25.271 3.64-28.63 10.463-4.227 8.589 2.125 22.692 17.429 38.694 16.693 17.457 41.824 34.935 70.764 49.215s58.091 23.587 82.086 26.208c21.994 2.4 37.029-1.144 41.255-9.728s-2.125-22.692-17.428-38.7c-16.694-17.451-41.826-34.929-70.765-49.209zm30.394 59.54c-1.845 3.748-6.334 7.863-17.139 7.863a51.538 51.538 0 0 1 -5.592-.324c-9.961-1.088-21.93-4.887-33.7-10.7-23.187-11.431-43.297-29.831-36.88-42.872 2.135-4.339 7.807-9.177 22.731-7.539 9.96 1.088 21.931 4.886 33.7 10.7 23.187 11.435 43.298 29.836 36.88 42.872z"/></svg>