<?xml version="1.0" encoding="iso-8859-1"?>
<!-- Generator: Adobe Illustrator 19.0.0, SVG Export Plug-In . SVG Version: 6.00 Build 0)  -->
<svg version="1.1" id="Capa_1" xmlns="http://www.w3.org/2000/svg" xmlns:xlink="http://www.w3.org/1999/xlink" x="0px" y="0px"
	 viewBox="0 0 448 448" style="enable-background:new 0 0 448 448;" xml:space="preserve">
<g>
	<g>
		<path d="M256.272,0h-64.784c-4.48,0-8.752,1.872-11.712,5.216C173.92,11.808,165.472,16,156.032,16s-17.904-4.192-23.744-10.784
			C129.312,1.872,125.04,0,120.56,0H72.272c-4.416,0-8,3.584-8,8v64c0,4.416,3.584,8,8,8h48.288c4.48,0,8.752-1.872,11.712-5.216
			C138.128,68.192,146.576,64,156.032,64c32,0,36.256,37.744,36.256,48l-0.272,64h64v-64c0-28.16,16.56-48,48.256-48
			c32,0,56.976,19.904,70.976,42.72l8.48-4.4c0-0.032,0-0.032,0-0.032C363.936,44.432,297.136,0,256.272,0z M112.272,32h-32V16h32
			V32z"/>
	</g>
</g>
<g>
	<g>
		<path d="M272.288,304c4.48-50.448,0.944-69.968-16.016-112h-64c-16.96,42.032-20.496,61.552-16,112
			c8.08,90.688-0.624,95.104-0.8,112.944c-0.176,17.84,9.984,31.056,22.304,31.056h53.008c12.32,0,22.464-13.216,22.304-31.056
			C272.912,399.104,264.208,394.688,272.288,304z"/>
	</g>
</g>
<g>
</g>
<g>
</g>
<g>
</g>
<g>
</g>
<g>
</g>
<g>
</g>
<g>
</g>
<g>
</g>
<g>
</g>
<g>
</g>
<g>
</g>
<g>
</g>
<g>
</g>
<g>
</g>
<g>
</g>
</svg>
