<svg id="Layer_3" enable-background="new 0 0 64 64" height="512" viewBox="0 0 64 64" width="512" xmlns="http://www.w3.org/2000/svg"><g><path d="m41 46.999c-2.206 0-4 1.794-4 4 0 2.205 1.794 3.999 4 3.999s4-1.794 4-3.999c0-2.206-1.794-4-4-4zm0 5.999c-1.103 0-2-.896-2-1.999 0-1.104.897-2 2-2s2 .896 2 2c0 1.103-.897 1.999-2 1.999z"/><path d="m42.106 21.101c-.067-.358-.106-.725-.106-1.101 0-1.896.887-3.587 2.264-4.687-.71-.94-1.471-1.845-2.314-2.669-.258-.252-.36-.624-.268-.972.093-.348.366-.62.715-.711.441-.115.749-.51.749-.96 0-.552-.448-1-1-1-.509 0-.933.387-.984.9-.036.358-.262.669-.592.814-.329.147-.711.103-1-.113-1.317-.98-2.742-1.824-4.236-2.505-.274-.125-.478-.368-.553-.66s-.015-.603.165-.845c.092-.124.201-.326.201-.59 0-.552-.448-1-1-1-.522 0-.957.413-.989.939-.019.301-.172.578-.417.753-.245.176-.553.232-.848.15-1.944-.537-3.974-.819-6.035-.837-.358-.005-.686-.197-.862-.508-.176-.31-.173-.691.007-.999.095-.163.143-.331.143-.5 0-.552-.448-1-1-1-.551 0-1 .448-1 1 0 .259.102.506.285.695.248.255.342.623.247.965-.095.343-.365.609-.709.699-1.632.43-3.156 1.263-4.407 2.409-.225.207-.531.304-.835.25-.302-.048-.565-.232-.714-.5-.181-.325-.505-.518-.867-.518-.551 0-1 .448-1 1 0 .445.292.828.727.953.293.084.532.297.648.58.117.282.098.602-.051.868-.696 1.25-1.123 2.6-1.268 4.012-.036.344-.246.646-.557.797-.311.153-.679.131-.971-.053-.653-.411-1.528.105-1.528.843 0 .551.449 1 1 1 .291 0 .508-.132.639-.242.26-.219.616-.291.939-.192.325.1.577.359.669.687.37 1.325 1.138 2.479 2.219 3.337.246.195.386.495.378.809s-.164.606-.419.789c-.27.192-.424.488-.424.812 0 .551.449 1 1 1 .552 0 1-.449 1-1l-.012-.069c-.027-.314.096-.623.332-.832.235-.209.559-.292.866-.232 1.471.304 3.021.085 4.357-.625.301-.159.662-.155.958.01.297.166.489.471.51.811.032.524.467.937.988.937.552 0 1-.449 1-1 0-.466-.318-.866-.775-.971-.332-.076-.602-.316-.717-.636s-.06-.677.147-.947c.88-1.147 1.345-2.512 1.345-3.946v-.711c0-.435-.354-.789-.789-.789-.324 0-.611.194-.732.496l-.801 2.001c-.607 1.52-2.058 2.503-3.696 2.503-2.195 0-3.981-1.786-3.981-3.982 0-3.87 3.149-7.018 7.019-7.018 4.105 0 8.04 1.746 10.794 4.79 2.755 3.043 4.1 7.132 3.691 11.217l-.098.981c-.289 2.889-1.419 5.597-3.27 7.832l-20.86 25.204c-.178.216-.277.489-.277.769 0 .665.541 1.206 1.206 1.206h7.066l16.205-28.357c1.993-3.487 2.851-7.549 2.483-11.541z"/><path d="m44.086 20.819c.379 1.813 1.989 3.18 3.914 3.18 2.206 0 4-1.794 4-4s-1.794-4-4-4c-2.199 0-3.987 1.784-3.998 3.981.038.279.057.559.084.839zm3.914-2.819c1.103 0 2 .897 2 2s-.897 2-2 2-2-.897-2-2c0-1.104.896-2 2-2z"/><path d="m42 35.999c0-3.309 2.691-6 6-6 .333 0 .658.034.977.087.046-1.388-.034-2.772-.234-4.138-.244.03-.49.051-.742.051-1.478 0-2.831-.54-3.878-1.43-.247 3.173-1.174 6.286-2.762 9.065l-15.638 27.365h7.127c1.063 0 2.056-.57 2.591-1.488l2.108-3.613c-1.54-1.088-2.549-2.876-2.549-4.899 0-3.309 2.691-6 6-6 .919 0 1.786.214 2.565.584l1.772-3.038c.18-.308.335-.636.504-.955-2.243-.869-3.841-3.045-3.841-5.591z"/><path d="m48 32c-2.206 0-4 1.793-4 4 0 2.205 1.794 3.999 4 3.999s4-1.794 4-3.999c0-2.207-1.794-4-4-4zm0 5.998c-1.103 0-2-.896-2-1.999 0-1.104.897-2 2-2s2 .896 2 2c-.001 1.103-.898 1.999-2 1.999z"/></g></svg>