<?xml version="1.0" encoding="utf-8"?>
<svg viewBox="23.969 29.065 457.163 399.461" xmlns="http://www.w3.org/2000/svg" xmlns:bx="https://boxy-svg.com">
  <path d="M 244.893 321.138 C 242.261 318.789 238.857 317.565 235.382 317.715 C 233.701 317.729 232.027 317.918 230.389 318.286 C 214.833 322.69 203.037 335.809 199.942 352.144 C 198.891 357.398 200.312 362.851 203.774 366.849 C 211.327 374.036 227.041 369.64 238.177 357.259 C 249.312 344.878 252.393 328.329 244.893 321.138 Z M 244.893 321.138" style=""/>
  <path d="M 247.327 173.262 C 248.406 171.703 246.901 166.206 241.174 162.045 C 235.452 157.88 229.956 158.255 228.877 159.84 C 227.798 161.42 229.299 166.895 235.019 171.057 C 237.582 173.027 240.646 174.18 243.834 174.372 C 245.096 174.501 246.352 174.101 247.327 173.262 Z M 247.327 173.262" style=""/>
  <path d="M 405.444 166.599 C 408.677 167.574 415.514 161.656 418.499 150.678 C 419.968 145.721 420.128 140.446 418.959 135.403 C 418.157 132.526 416.784 130.485 415.362 130.079 C 415.131 130.01 414.889 129.975 414.647 129.978 C 411.209 129.978 405.074 135.778 402.3 145.999 C 400.838 150.96 400.678 156.232 401.848 161.274 C 402.67 164.126 404.023 166.185 405.444 166.599 Z M 405.444 166.599" style=""/>
  <path d="M 272.731 271.655 C 277.898 272.793 285.983 263.756 288.598 250.494 C 289.984 244.216 289.725 237.667 287.84 231.526 C 286.457 227.581 284.358 225.055 282.085 224.573 C 278.952 224.488 275.982 225.997 274.139 228.609 C 266.088 238.667 263.394 252.182 266.939 264.702 C 268.394 268.646 270.466 271.172 272.731 271.655 Z M 272.731 271.655" style=""/>
  <path d="M 383.927 201.924 C 385.701 208.887 386.974 215.975 387.745 223.131 C 402.664 229.594 416.341 238.773 428.117 250.23 C 433.812 241.7 438.733 232.646 442.817 223.185 C 459.054 187.791 465.237 148.369 460.645 109.496 C 458.272 92.619 446.977 36.99 401.115 29.784 C 397.058 28.689 392.777 28.846 388.81 30.244 C 390.19 32.107 391.816 33.764 393.634 35.166 C 394.838 36.194 395.986 37.2 396.95 38.175 C 401.453 42.479 405.237 47.514 408.156 53.082 C 413.052 63.9 416.12 75.502 417.223 87.387 C 418.299 96.488 418.475 105.677 417.749 114.813 C 418.319 114.86 418.883 114.939 419.443 115.046 C 426.536 117.477 431.869 123.572 433.487 131.099 C 435.434 138.918 435.285 147.137 433.048 154.871 C 428.607 171.246 417.358 182.271 406.101 182.271 C 403.203 182.331 400.35 181.543 397.874 179.993 C 393.714 187.62 389.055 194.95 383.927 201.924 Z M 383.927 201.924" style=""/>
  <path d="M 370.264 327.736 C 369.6 327.451 368.887 327.319 368.168 327.344 C 366.546 330.681 364.876 333.972 363.102 337.176 C 360.079 342.633 357.434 347.812 354.996 352.769 C 355.504 354.265 356.552 355.499 357.924 356.216 C 361.953 358.04 368.849 354.179 372.453 345.799 C 376.056 337.419 374.188 329.521 370.264 327.736 Z M 370.264 327.736" style=""/>
  <path d="M 197.186 231.715 L 199.451 232.267 C 207.619 234.306 215.625 236.993 223.392 240.305 L 227.698 242.1 C 227.971 238.91 228.144 235.572 228.144 231.964 C 227.967 223.58 225.246 215.465 220.363 208.763 C 203.383 209.037 186.503 211.461 170.094 215.972 C 162.344 218.36 155.746 223.666 151.61 230.84 C 148.885 237.279 148.971 244.613 151.841 250.98 C 153.578 255.783 156.511 260.027 160.348 263.281 C 160.94 263.713 161.601 264.035 162.3 264.234 C 162.469 263.653 162.548 263.053 162.531 262.446 C 162.462 260.772 162.282 259.106 161.995 257.457 C 160.034 250.33 161.193 242.675 165.163 236.5 C 173.722 225.829 188.406 229.515 197.186 231.715 Z M 197.186 231.715" style=""/>
  <path d="M 480.957 415.742 C 483.24 412.149 462.353 334.867 462.353 334.867 C 447.628 291.433 420.629 257.153 388.727 240.705 C 388.551 265.469 383.734 289.967 374.545 312.844 C 375.164 313.015 375.769 313.222 376.367 313.46 C 388.772 319.103 393.115 336.07 386.272 352.116 C 382.118 363.508 371.937 371.377 360.176 372.291 C 357.336 372.298 354.528 371.695 351.928 370.52 C 350.528 369.878 349.21 369.069 347.999 368.105 C 343.11 379.376 339.209 391.075 336.348 403.063 C 331.286 402.342 326.417 400.56 322.042 397.834 C 328.246 373.804 337.653 350.777 349.991 329.417 C 352.077 325.652 354.141 321.544 356.133 317.201 C 368.863 290.127 374.884 260.22 373.653 230.155 C 373.531 229.555 373.48 228.942 373.504 228.331 C 372.892 219.908 371.467 211.575 369.257 203.445 C 368.894 202.71 368.655 201.921 368.548 201.104 C 360.584 174.868 344.154 152.245 321.987 136.995 L 321.067 136.331 C 319.984 135.557 318.895 134.8 317.802 134.054 C 290.776 115.777 259.5 105.313 227.225 103.75 C 194.371 102.851 161.787 110.103 132.216 124.903 C 103.703 138.094 79.765 139.772 59.064 130.032 C 63.944 135.752 69.383 140.935 75.3 145.499 C 97.208 163.433 124.781 171.946 159.813 171.703 L 162.586 171.703 C 180.082 171.524 199.877 171.313 216.442 183.284 C 221.113 186.675 225.357 190.657 229.068 195.14 C 229.233 195.297 229.344 195.5 229.496 195.671 C 238.072 205.719 242.932 218.57 243.222 231.957 C 243.222 274.424 225.779 292.394 186.669 316.602 C 174.925 323.85 164.682 333.415 156.52 344.746 C 146.326 359.304 138.856 375.699 134.489 393.084 C 136.162 394.683 137.974 396.121 139.9 397.381 C 133.402 393.144 99.391 388.744 95.756 392.359 C 87.19 387.145 82.929 376.763 85.267 366.788 C 87.605 356.809 95.984 349.579 105.916 348.978 C 115.845 348.379 124.988 354.546 128.44 364.175 C 131.058 357.937 134.087 351.891 137.504 346.08 C 124.459 344.789 112.079 339.55 101.908 331.024 C 79.997 308.414 89.676 285.805 102.05 266.611 C 108.545 254.412 108.88 239.716 102.949 227.214 C 102.572 231.593 101.462 235.869 99.67 239.852 C 95.659 246.79 89.487 252.115 82.158 254.955 C 80.007 255.99 77.918 257.157 75.902 258.449 C 52.598 274.452 49.333 308.347 49.018 322.144 C 48.654 334.207 50.128 346.252 53.375 357.844 C 55.201 364.25 57.736 370.417 60.932 376.221 C 65.877 385.29 71.282 394.086 77.12 402.574 C 80.63 401.828 84.019 400.568 87.183 398.83 C 70.051 408.377 21.909 414.204 24.037 417.79 C 34.051 433.405 470.938 431.353 480.957 415.742 Z M 91.679 395.921 C 90.251 396.995 88.753 397.963 87.197 398.823 C 88.756 397.966 90.251 396.995 91.679 395.921 Z M 91.724 395.921 C 93.152 394.846 93.152 394.818 91.724 395.885 L 91.724 395.921 Z M 346.177 201.325 C 348.037 200.554 350.119 200.579 351.959 201.396 C 353.802 202.21 355.255 203.744 355.999 205.665 C 372.083 247.175 349.352 302.85 348.376 305.195 C 346.734 309.154 342.293 310.991 338.458 309.296 C 334.619 307.6 332.842 303.018 334.485 299.06 C 334.703 298.546 355.718 246.932 341.968 211.468 C 341.221 209.544 341.246 207.396 342.037 205.493 C 342.826 203.591 344.316 202.092 346.177 201.325 Z M 296.493 151.527 C 297.126 149.565 298.485 147.941 300.279 147.017 C 302.071 146.092 304.145 145.939 306.048 146.592 C 322.277 152.763 335.066 165.964 341.041 182.713 C 342.366 186.802 340.229 191.228 336.266 192.599 C 332.303 193.969 328.014 191.764 326.686 187.67 C 322.184 175.593 312.937 166.046 301.234 161.388 C 297.291 160.014 295.168 155.603 296.493 151.527 Z M 285.205 209.298 C 293.325 211.475 299.74 217.888 302.112 226.193 C 304.972 235.044 305.439 244.534 303.465 253.639 C 299.505 273.449 286.844 287.34 273.647 287.34 C 272.323 287.343 271.006 287.204 269.709 286.929 C 261.592 284.752 255.174 278.339 252.812 270.034 C 247.306 251.975 251.239 232.267 263.203 217.92 C 268.557 211.25 276.912 207.977 285.205 209.298 Z M 226.276 183.805 C 214.19 175.004 209.878 160.525 216.458 150.857 C 223.036 141.189 237.709 140.489 249.817 149.297 C 261.928 158.108 266.213 172.577 259.6 182.253 C 255.914 187.331 250.042 190.215 243.897 189.965 L 243.565 189.965 C 237.35 189.726 231.343 187.581 226.314 183.805 L 226.276 183.805 Z M 153.581 402.831 C 155.739 403.245 157.928 403.458 160.124 403.477 C 157.928 403.458 155.739 403.245 153.581 402.831 Z M 140.457 397.691 C 142.083 398.719 143.784 399.611 145.541 400.367 C 143.784 399.611 142.083 398.719 140.457 397.691 Z M 147.142 401.007 C 148.667 401.582 150.227 402.052 151.814 402.417 C 150.227 402.056 148.667 401.584 147.142 401.007 Z M 218.987 385.453 C 217.828 383.608 204.329 385.406 195.714 381.519 C 195.21 381.106 183.159 360.3 184.999 350.003 C 188.973 327.172 205.472 308.828 227.238 303.043 C 237.049 300.388 247.503 302.879 255.191 309.71 C 269.159 323.097 266.558 348.636 249.267 367.862 C 241.368 377.059 230.706 383.255 218.987 385.453 Z M 218.98 385.46 C 220.543 387.956 222.376 390.261 224.444 392.327 C 222.376 390.261 220.543 387.956 218.98 385.46 Z M 225.077 393.005 C 225.834 393.741 226.664 394.393 227.473 395.057 C 226.65 394.393 225.841 393.741 225.077 393.005 Z M 245.535 403.073 C 244.931 402.988 244.349 402.838 243.751 402.72 C 244.342 402.838 244.924 402.988 245.535 403.073 Z M 240.517 401.964 C 239.764 401.753 239.1 401.496 238.387 401.239 C 239.082 401.496 239.784 401.753 240.51 401.964 L 240.517 401.964 Z M 235.784 400.204 C 235.026 399.861 234.272 399.493 233.515 399.098 C 234.255 399.493 235.012 399.861 235.773 400.204 L 235.784 400.204 Z M 231.409 397.862 C 230.652 397.373 229.835 396.881 229.088 396.306 C 229.828 396.881 230.614 397.373 231.401 397.862 L 231.409 397.862 Z M 306.629 379.651 C 307.407 381.542 308.327 383.369 309.388 385.111 C 308.33 383.365 307.407 381.542 306.622 379.651 L 306.629 379.651 Z M 309.914 385.85 C 310.83 387.312 311.84 388.712 312.937 390.036 C 311.837 388.712 310.827 387.312 309.907 385.85 L 309.914 385.85 Z M 313.268 390.371 C 314.503 391.792 315.834 393.123 317.252 394.347 C 315.831 393.123 314.496 391.796 313.261 390.371 L 313.268 390.371 Z M 322.049 397.849 C 320.362 396.813 318.757 395.643 317.252 394.347 C 318.757 395.639 320.358 396.81 322.042 397.849 L 322.049 397.849 Z M 436.669 403.181 C 437.377 403.095 438.066 402.923 438.768 402.791 C 438.059 402.923 437.371 403.095 436.669 403.181 Z M 441.057 402.348 C 442.008 402.106 442.939 401.785 443.866 401.468 C 442.932 401.785 442.008 402.113 441.05 402.348 L 441.057 402.348 Z M 445.248 401.013 C 446.344 400.586 447.409 400.086 448.461 399.565 C 447.403 400.086 446.338 400.593 445.241 401.013 L 445.248 401.013 Z M 449.201 399.212 C 450.37 398.59 451.508 397.902 452.608 397.156 C 451.504 397.898 450.363 398.587 449.194 399.212 L 449.201 399.212 Z M 452.902 396.967 C 454.081 396.156 455.212 395.275 456.294 394.333 C 455.208 395.275 454.074 396.153 452.895 396.967 L 452.902 396.967 Z" style="filter: none;"/>
  <path d="M 117.043 384.187 C 118.333 382.174 116.533 375.075 109.686 369.702 C 102.845 364.323 96.273 364.808 94.983 366.854 C 93.693 368.895 95.488 375.966 102.327 381.34 C 105.391 383.884 109.055 385.373 112.866 385.621 C 114.375 385.788 115.877 385.27 117.043 384.187 Z M 117.043 384.187" style="" transform="matrix(0.230579, 0.973054, -0.973054, 0.230579, 446.985297, 185.78937)" bx:origin="0.361 0.463"/>
</svg>