<?xml version="1.0" encoding="utf-8"?>
<svg id="Capa_1" enable-background="new 0 0 607.738 607.738" height="512" viewBox="0 0 607.738 607.738" width="512" xmlns="http://www.w3.org/2000/svg" xmlns:bx="https://boxy-svg.com">
  <defs>
    <filter id="inner-shadow-filter-0" x="-500%" y="-500%" width="1000%" height="1000%" bx:preset="inner-shadow 1 0 0 40 1 rgba(0,0,0,0.7)">
      <feOffset dx="0" dy="0"/>
      <feGaussianBlur stdDeviation="40"/>
      <feComposite operator="out" in="SourceGraphic"/>
      <feComponentTransfer result="choke">
        <feFuncA type="linear" slope="2"/>
      </feComponentTransfer>
      <feFlood flood-color="rgba(0,0,0,0.7)" result="color"/>
      <feComposite operator="in" in="color" in2="choke" result="shadow"/>
      <feComposite operator="over" in="shadow" in2="SourceGraphic"/>
    </filter>
  </defs>
  <circle style="fill: rgb(196, 196, 196); filter: url(#inner-shadow-filter-0);" cx="303.661" cy="303.039" r="297.452"/>
  <g style="" transform="matrix(0.718588, 0, 0, 0.718588, 87.901726, 89.876114)">
    <g id="Page-1_28_">
      <g id="_x30_29---Helmet">
        <path id="Shape_328_" d="m180.379 316.197c6.982 2.094 14.534.985 20.62-3.028 15.252-10.056 21.499-29.338 15.041-46.427-2.59-6.835-8.074-12.172-14.976-14.575-2.233-.723-4.566-1.089-6.913-1.085-14.047 1.17-25.83 11.067-29.41 24.7-6.63 15.484.313 33.427 15.638 40.415z"/>
        <circle id="Oval_16_" cx="43.41" cy="141.082" r="10.852"/>
        <circle id="Oval_15_" cx="43.41" cy="65.115" r="10.852"/>
        <path id="Shape_327_" d="m10.853 184.492h65.115c5.994 0 10.852-4.859 10.852-10.852v-141.083c0-5.994-4.859-10.852-10.852-10.852h-65.115c-5.994 0-10.853 4.859-10.853 10.852v141.082c0 5.994 4.859 10.853 10.853 10.853zm32.557-151.935c17.981 0 32.557 14.576 32.557 32.557s-14.576 32.558-32.557 32.558-32.557-14.576-32.557-32.557 14.576-32.558 32.557-32.558zm0 75.968c17.981 0 32.557 14.576 32.557 32.557s-14.576 32.557-32.557 32.557-32.557-14.576-32.557-32.557 14.576-32.557 32.557-32.557z"/>
        <path id="Shape_326_" d="m174.866 92.68c2.042-25.242 6.868-50.18 14.39-74.361-29.461 9.873-56.834 25.126-80.731 44.983v57.963c10.14-8.787 21.953-15.432 34.728-19.534 10.472-3.364 21.032-6.327 31.613-9.051z"/>
        <path id="Rectangle-path_55_" d="m282.164 390.688h43.41c5.994 0 10.852 4.859 10.852 10.852v21.705c0 5.994-4.859 10.852-10.852 10.852h-43.41c-5.994 0-10.852-4.859-10.852-10.852v-21.705c-.001-5.993 4.858-10.852 10.852-10.852z"/>
        <path id="Shape_325_" d="m130.425 426.61c1.748 8.473 7.058 15.783 14.575 20.066 34.75 19.296 94.167 30.832 158.869 30.832s124.119-11.536 158.934-30.875c7.474-4.268 12.754-11.541 14.499-19.969 2.257-10.407 3.972-19.48 5.209-27.804.499-3.158.792-6.327 1.226-9.485-39.824 17.637-82.242 28.709-125.606 32.785v1.085c0 17.981-14.576 32.557-32.557 32.557h-43.41c-17.981 0-32.557-14.576-32.557-32.557v-21.705c0-17.981 14.576-32.557 32.557-32.557h43.41c17.519.055 31.854 13.963 32.438 31.472 44.772-4.065 88.382-16.508 128.558-36.681 4.959-61.226-1.931-122.835-20.294-181.453-3.437-9.78-11.47-17.241-21.477-19.947-91.818-28.426-190.085-28.426-281.903 0-9.991 2.718-18.005 10.177-21.434 19.947-22.062 69.916-27.634 143.99-16.279 216.42 1.281 8.443 2.995 17.516 5.242 27.869zm119.182-263.823c17.981 0 32.557 14.576 32.557 32.557s-14.576 32.557-32.557 32.557-32.557-14.576-32.557-32.557 14.576-32.557 32.557-32.557zm-105.486 106.354c9.409-29.019 37.984-45.873 63.66-37.56 12.956 4.307 23.332 14.142 28.325 26.849 10.568 26.972.63 57.655-23.745 73.308-7.506 4.715-16.174 7.251-25.037 7.325-4.633-.006-9.236-.738-13.642-2.171-25.687-8.367-38.959-38.764-29.561-67.751z"/>
        <path id="Shape_324_" d="m69.076 206.197h-34.728c-.781 7.069-1.281 14.304-1.498 21.705h10.56c7.119.025 14.03 2.406 19.654 6.772 1.725-9.529 3.766-19.003 6.012-28.477z"/>
        <circle id="Oval_14_" cx="249.607" cy="195.344" r="10.852"/>
        <path id="Shape_323_" d="m108.525 173.639c-.032 11.504-6.156 22.129-16.094 27.923-17.7 67.253-21.174 137.459-10.201 206.131 1.595 9.767 3.484 19.86 5.654 29.92 4.366 19.939 17.139 37.017 35.032 46.839 41.695 23.17 107.656 36.464 180.954 36.464s139.259-13.294 180.965-36.464c17.876-9.829 30.635-26.901 34.999-46.828 2.17-10.071 4.059-20.142 5.654-29.953 4.195-26.407 6.296-53.104 6.284-79.841-.218-42.61-5.748-85.027-16.463-126.268-9.938-5.794-16.062-16.42-16.094-27.923v-19.372c-9.587-15.117-24.185-26.38-41.239-31.819-100.057-32.883-208.011-32.883-308.069 0-17.105 5.412-31.757 16.678-41.38 31.819v19.372zm12.209 2.29c5.535-16.646 18.941-29.48 35.813-34.283 95.966-29.551 198.602-29.551 294.568 0 16.893 4.793 30.322 17.632 35.867 34.294 23.051 73.091 28.857 150.529 16.962 226.241-1.313 8.682-3.093 18.221-5.426 29.041-3.062 14.522-12.212 27.03-25.123 34.348-37.951 21.086-101.308 33.643-169.526 33.643s-131.575-12.556-169.461-33.643c-12.97-7.323-22.156-19.879-25.21-34.457-2.333-10.766-4.113-20.294-5.426-29.085-11.881-75.664-6.075-153.053 16.962-226.099z"/>
        <path id="Shape_322_" d="m393 10.744c-58.557-14.325-119.705-14.325-178.262 0-9.058 24.738-14.996 50.509-17.679 76.716 70.412-15.041 143.207-15.041 213.62 0-2.684-26.207-8.623-51.978-17.679-76.716z"/>
        <path id="Rectangle-path_54_" d="m10.853 249.606h32.557c5.994 0 10.852 4.859 10.852 10.852v97.672c0 5.994-4.859 10.852-10.852 10.852h-32.557c-5.994.001-10.853-4.857-10.853-10.851v-97.672c0-5.994 4.859-10.853 10.853-10.853z"/>
        <path id="Shape_321_" d="m596.885 21.705h-65.115c-5.994 0-10.852 4.859-10.852 10.852v141.082c0 5.994 4.859 10.852 10.852 10.852h65.115c5.994 0 10.852-4.859 10.852-10.852v-141.082c0-5.993-4.858-10.852-10.852-10.852zm-32.557 151.934c-17.981 0-32.557-14.576-32.557-32.557s14.576-32.557 32.557-32.557 32.557 14.576 32.557 32.557-14.576 32.557-32.557 32.557zm0-75.967c-17.981 0-32.557-14.576-32.557-32.557s14.576-32.557 32.557-32.557 32.557 14.576 32.557 32.557-14.576 32.557-32.557 32.557z"/>
        <circle id="Oval_13_" cx="564.328" cy="141.082" r="10.852"/>
        <path id="Shape_320_" d="m499.213 121.265v-57.963c-23.897-19.851-51.266-35.103-80.721-44.983 7.517 24.186 12.343 49.127 14.39 74.372 10.581 2.724 21.151 5.687 31.689 9.083 12.744 4.096 24.527 10.726 34.642 19.491z"/>
        <circle id="Oval_12_" cx="564.328" cy="65.115" r="10.852"/>
        <path id="Shape_319_" d="m73.091 529.784 10.983 43.931c.771 3.076 2.848 5.661 5.687 7.076l51.593 25.861c1.513.726 3.173 1.097 4.851 1.085h315.329c1.679.012 3.338-.359 4.851-1.085l51.593-25.807c2.838-1.414 4.916-4 5.687-7.076l10.983-43.931c-43.735 33.198-115.579 56.194-230.777 56.194s-187.044-22.996-230.78-56.248z"/>
        <path id="Shape_318_" d="m495.371 503.424c-44.821 24.917-114.624 39.199-191.502 39.199s-146.682-14.282-191.502-39.199c-23.366-12.863-40.029-35.2-45.7-61.262-2.246-10.397-4.222-20.848-5.86-31.016-1.259-7.89-2.29-15.855-3.18-23.875-4.413 2.216-9.278 3.386-14.217 3.419h-10.852v8.682c0 109.458 91.28 164.957 271.311 164.957s271.311-55.501 271.311-164.959v-8.682h-10.852c-4.938-.029-9.802-1.195-14.217-3.408-.89 8.009-1.921 15.964-3.18 23.875-1.639 10.19-3.614 20.62-5.86 31.06-5.687 26.042-22.348 48.357-45.7 61.209z"/>
        <path id="Rectangle-path_53_" d="m564.328 249.606h32.557c5.994 0 10.852 4.859 10.852 10.852v97.672c0 5.994-4.859 10.852-10.852 10.852h-32.557c-5.994 0-10.852-4.859-10.852-10.852v-97.672c-.001-5.993 4.858-10.852 10.852-10.852z"/>
        <path id="Shape_317_" d="m564.328 227.902h10.549c-.217-7.409-.716-14.644-1.498-21.705h-34.728c2.246 9.474 4.341 18.959 6.012 28.477 5.626-4.369 12.542-6.75 19.665-6.772z"/>
      </g>
    </g>
  </g>
</svg>