<?xml version="1.0" encoding="iso-8859-1"?>
<!-- Generator: Adobe Illustrator 16.0.0, SVG Export Plug-In . SVG Version: 6.00 Build 0)  -->
<!DOCTYPE svg PUBLIC "-//W3C//DTD SVG 1.1//EN" "http://www.w3.org/Graphics/SVG/1.1/DTD/svg11.dtd">
<svg version="1.1" id="Capa_1" xmlns="http://www.w3.org/2000/svg" xmlns:xlink="http://www.w3.org/1999/xlink" x="0px" y="0px"
	 width="586.329px" height="586.329px" viewBox="0 0 586.329 586.329" style="enable-background:new 0 0 586.329 586.329;"
	 xml:space="preserve">
<g>
	<g>
		<path d="M586.119,278.631c-0.649-1.934-2.619-3.092-4.623-2.713c-12.216,2.293-23.056,8.519-33.203,19.111
			c-2.566,2.673-2.974,2.783-4.814,2.302c-3.496-0.935-7.707,0.718-11.068,2.219l-0.972,0.429
			c-14.851,6.483-29.657,13.056-43.513,19.209l-11.938,5.3c-1.232-0.514-2.37-1.028-3.451-1.518
			c-3.248-1.469-6.312-2.856-9.682-3.179c-19.939-1.938-41.221-3.827-62.861-3.827c-12.791,0-24.517,0.657-35.594,1.979
			c-13.104,0.742-26.287,2.374-39.249,4.858c-0.764-3.708-1.502-7.331-2.208-10.914c20.661-11.692,36.884-29.307,47.047-51.114
			l0.114-0.143c3.268-3.603,6.609-7.164,9.959-10.73c7.038-7.503,14.316-15.259,20.882-23.399c0.534-0.661,1.098-1.314,1.656-1.962
			c3.023-3.5,6.785-7.862,6.242-14.207c-0.416-4.835-1.648-7.36-2.464-9.029c-0.172-0.343-0.408-0.587-0.396-0.587
			c0.062-0.306,0.511-1.42,3.321-5.116c1.894-2.489,3.889-4.859,5.875-7.226c3.313-3.941,6.732-8.018,9.694-12.62
			c7.716-11.995,13.848-25.834,19.299-43.554c0.95-3.105,0.062-6.202-0.73-8.932c-0.27-0.934-0.547-1.873-0.71-2.778
			c-0.281-1.595-1.485-2.872-3.064-3.252l-2.199-0.526c-1.554-0.375-3.17,0.196-4.157,1.444c-0.358,0.453-0.775,0.893-1.191,1.33
			c-1.257,1.326-2.815,2.978-3.492,5.251c-7.776,26.001-19.009,48.086-34.346,67.52c-1.102,1.392-2.158,1.787-4.26,2.469
			c-1.856,0.604-4.165,1.363-6.561,3.235c-4.345,3.395-7.001,8.564-9.339,13.121l-0.8,1.55c-2.488,4.774-4.447,9.805-6.336,14.672
			c-2.424,6.226-4.704,12.113-8.005,17.446c-3.599,5.818-7.699,12.048-12.897,19.592c-4.463,4.855-9.127,9.588-13.945,14.149
			c2.085-14.239-0.04-30.371-8.314-39.551c-2.146-2.387-4.762-4.545-7.544-6.299c3.423-1.412,6.887-2.995,10.367-4.741
			c7.642-3.827,11.53-14.908,12.538-18.217c3.027-9.91,4.345-19.221,3.925-27.674c-0.58-11.489-3.19-23.003-5.929-33.733
			c-0.935-3.648-3.406-6.422-6.026-9.368c-0.098-0.106-0.199-0.22-0.293-0.33c5.385-2.913,10.795-5.847,16.214-8.784
			c18.438-9.996,37.499-20.335,56.491-30.205c8.396-4.357,11.204-9.874,9.694-19.029c-2.562-15.602,1.938-31.09,6.283-46.063
			c0.701-2.403,1.444-4.79,2.195-7.177c1.48-4.732,3.015-9.625,4.157-14.627c0.469-2.077-0.734-4.166-2.767-4.802
			c-2.056-0.62-4.215,0.408-5.006,2.383l-1.098,2.737c-8.919,22.249-18.127,45.231-16.062,69.544l-81.943,43.501
			c-0.167-0.979-0.261-1.938-0.204-2.812c0.608-8.462-0.208-19.335-12.007-28.332c-1.437-1.097-3.415-1.118-4.876-0.057
			c-1.456,1.061-2.044,2.954-1.444,4.655l0.616,1.742c2.844,7.985,4.5,13.219,2.484,18.262c-1.272-0.388-2.541-0.783-3.807-1.183
			c-1.831-0.58-3.655-1.15-5.479-1.677c-0.742-0.216-1.529-0.216-2.272,0c-1.824,0.526-3.647,1.102-5.479,1.677
			c-1.265,0.4-2.53,0.795-3.807,1.183c-2.012-5.039-0.359-10.277,2.485-18.262l0.616-1.742c0.596-1.701,0.012-3.594-1.444-4.655
			c-1.46-1.064-3.447-1.04-4.875,0.057c-11.803,8.997-12.619,19.87-12.007,28.332c0.061,0.877-0.037,1.832-0.204,2.812
			l-81.959-43.505c2.068-24.312-7.144-47.295-16.063-69.543l-1.093-2.738c-0.788-1.975-2.946-3.003-5.006-2.383
			c-2.032,0.632-3.235,2.726-2.766,4.802c1.138,5.002,2.672,9.894,4.157,14.627c0.751,2.387,1.494,4.773,2.195,7.177
			c4.345,14.974,8.845,30.461,6.283,46.063c-1.51,9.156,1.297,14.672,9.694,19.029c18.988,9.87,38.054,20.208,56.492,30.204
			c5.418,2.942,10.824,5.871,16.214,8.784c-0.094,0.11-0.196,0.225-0.293,0.331c-2.62,2.946-5.092,5.72-6.026,9.372
			c-2.738,10.726-5.353,22.236-5.928,33.729c-0.424,8.454,0.897,17.764,3.925,27.675c1.008,3.309,4.896,14.39,12.534,18.213
			c3.484,1.75,6.948,3.333,10.371,4.745c-2.783,1.754-5.39,3.913-7.544,6.295c-8.274,9.184-10.4,25.316-8.315,39.556
			c-4.818-4.562-9.482-9.29-13.945-14.149c-5.198-7.544-9.298-13.774-12.897-19.588c-3.301-5.341-5.582-11.224-8.005-17.45
			c-1.889-4.863-3.843-9.898-6.336-14.672l-0.8-1.55c-2.338-4.558-4.994-9.727-9.339-13.122c-2.395-1.873-4.704-2.631-6.561-3.235
			c-2.102-0.686-3.158-1.081-4.26-2.468c-15.336-19.433-26.569-41.518-34.345-67.52c-0.677-2.272-2.24-3.925-3.493-5.251
			c-0.416-0.437-0.832-0.877-1.191-1.33c-0.983-1.252-2.611-1.815-4.157-1.444l-2.199,0.526c-1.579,0.379-2.783,1.657-3.064,3.252
			c-0.164,0.906-0.437,1.84-0.71,2.778c-0.788,2.733-1.681,5.831-0.73,8.931c5.455,17.719,11.587,31.555,19.298,43.554
			c2.962,4.602,6.381,8.678,9.694,12.619c1.987,2.367,3.986,4.737,5.875,7.226c2.807,3.688,3.26,4.802,3.337,4.802
			c-0.085,0.29-0.249,0.563-0.412,0.902c-0.816,1.668-2.052,4.194-2.464,9.033c-0.542,6.344,3.219,10.702,6.243,14.202
			c0.563,0.649,1.122,1.302,1.66,1.967c6.561,8.135,13.844,15.896,20.877,23.395c3.35,3.566,6.695,7.128,9.809,10.559l0.269,0.318
			c10.159,21.812,26.381,39.417,47.042,51.11c-0.706,3.582-1.444,7.205-2.208,10.914c-12.962-2.48-26.124-4.116-39-4.843
			c-11.326-1.343-23.052-1.999-35.843-1.999c-21.645,0-42.926,1.893-62.856,3.827c-3.374,0.322-6.438,1.709-9.686,3.178
			c-1.081,0.49-2.219,1.004-3.452,1.519L98.4,319.179c-13.856-6.152-28.662-12.726-43.513-19.212l-0.971-0.425
			c-3.362-1.506-7.581-3.153-11.069-2.22c-1.836,0.474-2.228,0.396-4.88-2.37c-10.078-10.523-20.918-16.749-33.134-19.042
			c-2.007-0.383-3.974,0.779-4.623,2.713c-0.645,1.934,0.233,4.047,2.057,4.953l2.084,1.036c1.453,0.73,2.913,1.457,4.378,2.158
			c12.199,5.859,20.306,13.13,24.778,22.237c3.484,7.074,7.772,9.429,14.015,11.094c20.09,5.349,38.307,10.469,55.684,15.658
			c4.933,1.474,7.466,3.317,8.201,4.55c2.521,4.268,5.847,6.34,10.151,6.34c1.505,0,2.974-0.24,4.202-0.473
			c6.997-1.334,14.007-2.62,21.012-3.9c6.226-1.139,12.46-2.285,18.678-3.46c26.487-5.002,52.559-5.998,77.593-3.012
			c4.463,0.604,8.972,1.335,13.46,2.171c-0.232,1.396-0.404,2.771-0.518,4.133c-9.878,5.859-17.703,14.472-22.767,25.072
			c-28.829,19.009-58.589,40.901-90.947,66.903l-6.128,4.896c-14.876,11.856-30.261,24.116-42.685,39.058l-0.788,0.938
			c-5.63,6.716-15.051,17.96-10.286,28.119c4.843,10.306,19.298,11.697,32.803,11.697c1.926,0,3.803-0.024,5.565-0.053
			c3.215-0.041,6.075-0.09,8.208,0.062c7.528,0.546,15.153,0.733,22.526,0.918c3.941,0.094,7.883,0.195,11.816,0.342
			c2.489,0.095,4.981,0.311,7.47,0.522l3.55,0.286c1.122,0.094,2.158-0.27,2.974-0.983c0.824-0.714,1.326-1.722,1.404-2.808
			l0.146-2.293c0.069-1.093-0.302-2.162-1.028-2.974c-0.73-0.812-1.75-1.302-2.84-1.358c-4.61-0.233-9.225-0.429-13.839-0.629
			c-10.689-0.461-21.747-0.938-32.554-1.823l-3.146-0.253c-9.392-0.743-18.352-1.449-27.083-4.219
			c5.353-6.264,10.682-12.546,16.01-18.834l5.402-6.368c0.216-0.258,0.42-0.53,0.608-0.824l30.628-27.002
			c0.849-0.755,1.505-1.628,1.955-2.599c1.305-2.84,9.257-7.671,14.006-10.551c2.709-1.645,5.047-3.064,6.716-4.312l23.978-17.92
			c6.418-4.794,12.86-9.502,19.294-14.198c14.843-10.841,30.147-22.02,44.753-34.06c2.24,3.619,5.125,7.038,8.629,10.229
			c-39.535,3.852-75.802,42.53-77.847,84.778c-1.081,22.362,3.195,44.966,12.713,67.189c13.484,31.502,39.25,49.563,70.682,49.563
			c5.74,0,11.542-0.632,17.267-1.877c5.724,1.245,11.526,1.877,17.266,1.877c31.433,0,57.202-18.066,70.683-49.563
			c9.519-22.22,13.794-44.823,12.713-67.189c-2.04-42.175-38.164-80.788-77.879-84.754c3.521-3.199,6.413-6.622,8.662-10.253
			c14.606,12.036,29.91,23.215,44.753,34.06c6.431,4.696,12.872,9.408,19.295,14.198l23.978,17.92
			c1.665,1.248,4.003,2.664,6.716,4.312c4.749,2.88,12.697,7.711,14.003,10.542c0.448,0.976,1.105,1.853,1.958,2.607l30.625,27.002
			c0.191,0.293,0.396,0.566,0.607,0.824l5.402,6.368c5.328,6.287,10.652,12.57,16.01,18.834c-8.731,2.77-17.691,3.479-27.083,4.219
			l-3.146,0.253c-10.805,0.885-21.861,1.362-32.555,1.823c-4.614,0.2-9.229,0.4-13.84,0.629c-1.093,0.057-2.109,0.624-2.835,1.439
			c-0.727,0.812-1.094,1.963-1.021,3.057l0.135,2.134c0.077,1.085,0.579,2.093,1.403,2.807c0.816,0.714,1.86,1.077,2.975,0.983
			l3.55-0.286c2.488-0.212,4.981-0.424,7.471-0.521c3.937-0.147,7.878-0.249,11.815-0.343c7.376-0.184,15.002-0.371,22.525-0.918
			c2.13-0.151,4.994-0.099,8.209-0.062c1.767,0.028,3.644,0.053,5.565,0.053c13.505,0,27.964-1.391,32.803-11.697
			c4.766-10.155-4.659-21.399-10.285-28.119l-0.788-0.938c-12.423-14.941-27.805-27.201-42.685-39.058l-6.128-4.896
			c-32.358-26.002-62.118-47.895-90.947-66.903c-5.063-10.6-12.889-19.213-22.767-25.072c-0.114-1.362-0.286-2.741-0.519-4.133
			c4.484-0.836,8.98-1.562,13.391-2.162c25.215-2.999,51.168-1.995,77.659,3.003c6.218,1.175,12.452,2.317,18.678,3.46
			c7.01,1.281,14.02,2.566,21.013,3.9c1.231,0.236,2.696,0.473,4.202,0.473c4.309,0,7.63-2.072,10.151-6.336
			c0.734-1.236,3.268-3.08,8.2-4.553c17.381-5.187,35.598-10.311,55.688-15.663c6.233-1.661,10.526-4.011,14.011-11.09
			c4.476-9.106,12.578-16.382,24.777-22.236c1.465-0.702,2.926-1.432,4.378-2.159l2.085-1.036
			C585.887,282.679,586.764,280.562,586.119,278.631z"/>
	</g>
</g>
<g>
</g>
<g>
</g>
<g>
</g>
<g>
</g>
<g>
</g>
<g>
</g>
<g>
</g>
<g>
</g>
<g>
</g>
<g>
</g>
<g>
</g>
<g>
</g>
<g>
</g>
<g>
</g>
<g>
</g>
</svg>
