<?xml version="1.0" encoding="utf-8"?>
<svg viewBox="0 0 500 500" xmlns="http://www.w3.org/2000/svg" xmlns:bx="https://boxy-svg.com">
  <defs>
    <filter id="inner-shadow-filter-0" x="-500%" y="-500%" width="1000%" height="1000%" bx:preset="inner-shadow 1 0 0 40 1 rgba(0,0,0,0.7)">
      <feOffset dx="0" dy="0"/>
      <feGaussianBlur stdDeviation="40"/>
      <feComposite operator="out" in="SourceGraphic"/>
      <feComponentTransfer result="choke">
        <feFuncA type="linear" slope="2"/>
      </feComponentTransfer>
      <feFlood flood-color="rgba(0,0,0,0.7)" result="color"/>
      <feComposite operator="in" in="color" in2="choke" result="shadow"/>
      <feComposite operator="over" in="shadow" in2="SourceGraphic"/>
    </filter>
  </defs>
  <circle style="fill: rgb(196, 196, 196); filter: url(#inner-shadow-filter-0);" cx="251.536" cy="247.27" r="241.178"/>
  <g id="Page-1" fill="none" fill-rule="evenodd" transform="matrix(7.236485, 0, 0, 7.236485, 48.911289, 80.071053)" style="">
    <g id="012---Ophidiophobia" fill="rgb(0,0,0)" fill-rule="nonzero" transform="translate(0 -1)">
      <path id="Shape" d="m4.549 21.442c1.44991228.3950523 2.94843847.5829151 4.451.558 1.8520065.0087504 3.6963751-.2379057 5.481-.733 1.6679891-.5075825 3.2933594-1.145894 4.861-1.909 1.2301418-.589776 2.4924667-1.10993 3.781-1.558-.7748676-.7179877-1.1870001-1.7455664-1.123-2.8-.1213426-1.4940053.3374117-2.9773468 1.281-4.142.3128947-.4078865.5886612-.8429549.824-1.3.1596977-.3197527.4778505-.53001867.8346134-.55159274.3567628-.02157407.6979349.14882137.895.447.1970651.29817864.2200843.67884004.0603866.99859274-.2858189.5581217-.6204568 1.0898615-1 1.589-.6875254.8240066-1.0105824 1.8920798-.895 2.959 0 1.7 1.29 2 4 2s4-.3 4-2c.1155995-1.0692844-.2093713-2.1395217-.9-2.964-.3795432-.4991385-.7141811-1.0308783-1-1.589-.1596977-.3197527-.1366785-.7004141.0603866-.99859274.1970651-.29817863.5382372-.46857407.895-.447.3567629.02157407.6749157.23184004.8346134.55159274.2353388.4570451.5111053.8921135.824 1.3.9466148 1.1651982 1.407259 2.6506502 1.286 4.147.0640001 1.0544336-.3481324 2.0820123-1.123 2.8 1.2884482.4467644 2.5507716.9655824 3.781 1.554 1.5686127.7635179 3.1949861 1.4021637 4.864 1.91 1.7835184.4958219 3.6268595.7434851 5.478.736 1.5049904.024818 3.0059064-.1637224 4.458-.56 2.992-.9 4.036-2.717 4.38-4.131-.857-7.059-5.108-9.324-5.29-9.417-.2862007-.14481676-.4855643-.41813207-.5360473-.73488778-.0504829-.31675571.0540426-.63850336.2810473-.86511222.9616877-1.0549896 1.5498823-2.39687447 1.674-3.819-.739-.467-2.814-1.473-6.967-1.473-1.2920029-.01457216-2.5750348.21617676-3.781.68-2.4702008 1.03267506-4.3828281 3.06970672-5.258 5.6-.1521545.53102176-.7059782.8381544-1.237.68599995-.5310218-.15215444-.8381544-.70597817-.686-1.23699995.73069-2.20286125 2.1121242-4.13240618 3.962-5.534-1.661169-.16635139-3.3309209-.23147171-5-.195-2.66 0-3.693.942-4 1.315v2.685c0 .55228475-.4477153 1-1 1s-1-.44771525-1-1v-2.69c-.292-.354-1.32-1.31-4-1.31-1.6690794-.03651375-3.3388339.02860668-5 .195 1.850217 1.40042117 3.2323469 3.32891779 3.964 5.531.1518783.53102178-.1554782 1.08462167-.6865 1.23649997s-1.0846217-.1554782-1.2365-.68649997c-.8745889-2.52781209-2.7852986-4.56291983-5.253-5.595-1.2082549-.46445079-2.4936341-.695534-3.788-.681-4.15 0-6.225 1-6.972 1.479.14417957 1.43243524.4532249 2.84344026.921 4.205.14821696.44492148-.03265804.93307608-.435 1.174-.141.088-3.6 2.322-4.368 9.362.325 1.448 1.354 3.303 4.403 4.222zm32.619-11c2.142-3.213 8.805-5.192 9.557-5.406.3491711-.09994322.7250799-.00271221.982.254 1.051 1.051 1.084 4.77.063 7.233-.6782091 2.0631815-2.5982536 3.462761-4.77 3.477-4.746 0-6-3.271-6-5 .0003124-.1974794.0587401-.3904993.168-.555zm-29.875-5.149c.25692007-.25671221.63282893-.35394322.982-.254.752.214 7.415 2.193 9.557 5.406.1092599.1645007.1676876.3575206.168.555 0 1.729-1.254 5-6 5-2.17094874-.0138089-4.09074993-1.4120038-4.77-3.474-1.021-2.463-.988-6.182.063-7.233z"/>
      <path id="Shape" d="m38.875 24.012c.1168589-.0147956.2354295-.0083589.35.019.018 0 .034.01.051.015.1073151.0295317.2087812.0772208.3.141l.018.01c2.7827051 1.6359185 6.0520592 2.2412233 9.236 1.71.5280694-.6615958.9755478-1.3836708 1.333-2.151-1.0463461.1637875-2.1039133.2453703-3.163.244-2.0339097.0092551-4.059361-.2623081-6.019-.807-1.7693947-.5333114-3.4932383-1.2074663-5.155-2.016-2.555-1.168-4.761-2.177-7.826-2.177s-5.271 1.009-7.826 2.177c-1.6607879.8081257-3.3836286 1.4819464-5.152 2.015-1.9605591.5453034-3.9870398.8172059-6.022.808-1.06070463.0023302-2.11995647-.0785849-3.168-.242.35767767.7669884.80478084 1.4889996 1.332 2.151 3.1871272.5322676 6.4599-.074916 9.244-1.715l.009-.006.021-.012c.0823592-.0529653.1719561-.0937218.266-.121.0343008-.0117818.0693872-.0211382.105-.028.1008213-.0216365.2044062-.0273725.307-.017.022 0 .043.01.065.014.0449842.0054281.0894602.0144571.133.027.73.241 2.911.719 4.239.054l.058-.023.029-.012c1.9763997-.7251082 3.871136-1.6558852 5.653-2.777.3904999-.3903819 1.0235001-.3903819 1.414 0 1.7856402 1.1224559 3.6844262 2.0539169 5.665 2.779h.005c1.3983788.4708772 2.9137299.462785 4.307-.023.0548768-.0163096.1110999-.0276881.168-.034z"/>
      <path id="Shape" d="m43 14c1.1475688.0136021 2.1942206-.6538053 2.666-1.7.7616617-1.5752366 1.0277023-3.34442444.763-5.074-.82.271-1.884.667-2.967 1.152.3665748.82489368.5501165 1.7194038.538 2.622 0 .5522847-.4477153 1-1 1s-1-.4477153-1-1c.0097477-.5915127-.104718-1.17849016-.336-1.723-.9935648.50679936-1.8872811 1.1891135-2.638 2.014.116.776.73 2.709 3.974 2.709z"/>
      <path id="Shape" d="m35.862 26.43c.6351045 2.2653695.9930524 4.5994185 1.066 6.951 2.359-3.307 1.911-6 1.5-7.2-.8416412.1894426-1.703638.2730892-2.566.249z"/>
      <path id="Shape" d="m12 14c3.256 0 3.862-1.951 3.975-2.708-.7505563-.8257492-1.6447032-1.50847219-2.639-2.015-.231282.54450984-.3457477 1.1314873-.336 1.723 0 .5522847-.4477153 1-1 1s-1-.4477153-1-1c-.0122613-.9029324.1712836-1.79779914.538-2.623-1.083-.485-2.147-.881-2.967-1.152-.26470233 1.72957556.00133833 3.4987634.763 5.074.47147979 1.0465856 1.5181959 1.7144266 2.666 1.701z"/>
      <path id="Shape" d="m30.739 49.876c-.0020678-.0062487-.0047475-.0122779-.008-.018 0-.011 0-.022 0-.032-.5387917-3.5826607-.7832755-7.2034288-.731-10.826 0-1.1045695-.8954305-2-2-2s-2 .8954305-2 2c.0526064 3.6225438-.1915429 7.2433118-.73 10.826v.032c-.0032525.0057221-.0059322.0117513-.008.018-.087.472-.182.932-.291 1.367-.2871603 1.1487611-.5144664 2.3116606-.681 3.484.953-1.179 2.075-2.5 3-3.434.3904999-.3903819 1.0235001-.3903819 1.414 0 .929.929 2.051 2.255 3 3.434-.1665336-1.1723394-.3938397-2.3352389-.681-3.484-.102-.435-.197-.895-.284-1.367z"/>
      <path id="Shape" d="m52.543 23.183c-.5005612 1.5259236-1.2872527 2.9425113-2.318 4.174-.0281623.0377458-.0589023.0734978-.092.107-.7495108.8865265-1.6068127 1.6759698-2.552 2.35-2.4367624 1.6649039-4.3616806 3.9755675-5.559 6.673 1.8937244-1.8893695 3.977055-3.5786198 6.217-5.041 4.069-2.846 7.334-5.131 7.722-10.373-.959401.9600011-2.1298493 1.6825423-3.418 2.11z"/>
      <path id="Shape" d="m19.072 33.381c.0724527-2.3470033.42871-4.6766103 1.061-6.938-.8617207.0204623-1.7226462-.0662013-2.563-.258-.409 1.203-.856 3.89 1.502 7.196z"/>
      <path id="Shape" d="m46.419 28.186c.034-.024.061-.05.094-.074-2.0085376-.0219414-3.9951691-.4201495-5.857-1.174.35 2.255-.009 5.829-3.949 9.769-.2859943.2859079-.7160366.3714219-1.0896546.216678-.3736179-.1547439-.6172591-.5192821-.6173454-.923678 0-3.465-.5-8.792-1.611-10.171-1.8584386-.7237625-3.6598465-1.5861919-5.389-2.58-1.7308117.9944281-3.5334947 1.858165-5.393 2.584-1.107 1.385-1.607 6.705-1.607 10.167-.0000863.4043959-.2437275.7689341-.6173454.923678-.373618.1547439-.8036603.0692299-1.0896546-.216678-3.939-3.939-4.3-7.513-3.949-9.768-1.8627696.7526819-3.8500217 1.1498609-5.859 1.171.034.025.061.051.1.076 4.618 3.3 5.963 6.659 7.52 10.551.8346118 2.2156368 1.8299258 4.3673602 2.978 6.438l.007.013.024.035c.7821381 1.3475054 1.9660428 2.4167259 3.386 3.058.3686282-3.0794748.5356506-6.1797453.5-9.281 0-2.209139 1.790861-4 4-4s4 1.790861 4 4c-.0339916 3.1013637.1347011 6.2016346.505 9.281 1.4190718-.6413572 2.6022225-1.7101786 3.384-3.057l.024-.035.007-.013c1.1488023-2.0709047 2.1447862-4.2229651 2.98-6.439 1.556-3.892 2.9-7.253 7.519-10.551z"/>
      <path id="Shape" d="m8.419 29.814c-.94518733-.6740302-1.80248919-1.4634735-2.552-2.35-.03309768-.0335022-.06383775-.0692542-.092-.107-1.03099936-1.2316895-1.81771189-2.6486545-2.318-4.175-1.28832386-.4270867-2.45885307-1.1496779-3.418-2.11.387 5.242 3.653 7.528 7.722 10.374 2.239945 1.4623802 4.3232756 3.1516305 6.217 5.041-1.1973194-2.6974325-3.1222376-5.0080961-5.559-6.673z"/>
    </g>
  </g>
</svg>