<?xml version="1.0" encoding="iso-8859-1"?>
<!-- Generator: Adobe Illustrator 19.0.0, SVG Export Plug-In . SVG Version: 6.00 Build 0)  -->
<svg version="1.1" id="Capa_1" xmlns="http://www.w3.org/2000/svg" xmlns:xlink="http://www.w3.org/1999/xlink" x="0px" y="0px"
	 viewBox="0 0 512 512" style="enable-background:new 0 0 512 512;" xml:space="preserve">
<g>
	<g>
		<g>
			<path d="M17.067,311.296h9.387c8.725,0.059,16.071-6.512,16.981-15.189l6.827-61.611H76.8v-51.2H25.6
				c-14.121,0.041-25.559,11.479-25.6,25.6v85.333C0.028,303.643,7.653,311.268,17.067,311.296z M17.067,234.496h16.043
				l-6.656,59.733h-9.387V234.496z"/>
			<circle cx="200.533" cy="204.629" r="12.8"/>
			<path d="M503.467,430.763H435.2c-4.713,0-8.533,3.82-8.533,8.533s3.82,8.533,8.533,8.533h68.267c4.713,0,8.533-3.82,8.533-8.533
				S508.18,430.763,503.467,430.763z"/>
			<path d="M401.067,430.763h-45.092c3.2-8.903,1.532-18.829-4.402-26.197l-106.667-129.28l-0.018-0.022
				c0.523-2.168,0.91-4.389,1.223-6.634h9.9L256,157.696V97.963c0-4.713-3.82-8.533-8.533-8.533s-8.533,3.82-8.533,8.533v59.733
				h-68.267v-8.533c-0.02-18.843-15.29-34.113-34.133-34.133h-25.6V72.363c0-4.713-3.82-8.533-8.533-8.533s-8.533,3.82-8.533,8.533
				v196.267h34.047c0.331,2.433,0.794,4.846,1.386,7.229l-0.02,0.024L23.211,404.565c-5.934,7.368-7.596,17.298-4.384,26.197H8.533
				c-4.713,0-8.533,3.82-8.533,8.533s3.82,8.533,8.533,8.533h31.416c0.957,0.138,1.922,0.224,2.889,0.256
				c1.197,0.028,2.395-0.029,3.584-0.171c0.111-0.019,0.215-0.065,0.327-0.085h281.531c0.117,0.02,0.222,0.067,0.34,0.085
				c1.101,0.17,2.214,0.255,3.328,0.256c1.235-0.023,2.466-0.137,3.684-0.341h65.435c4.713,0,8.533-3.82,8.533-8.533
				S405.78,430.763,401.067,430.763z M237.516,293.226l0.052,0.064l-0.306,0.37C237.35,293.518,237.429,293.369,237.516,293.226z
				 M200.533,174.763c16.495,0,29.867,13.372,29.867,29.867c0,16.495-13.372,29.867-29.867,29.867
				c-16.495,0-29.867-13.372-29.867-29.867C170.687,188.143,184.047,174.783,200.533,174.763z M110.933,157.696v-25.6h25.6
				c9.421,0.011,17.056,7.645,17.067,17.067v8.533H110.933z M136.865,293.807l-0.075-0.09l0.014-0.016L136.865,293.807z
				 M68.74,430.763l92.711-112.384v102.997c0.018,3.207,0.606,6.385,1.737,9.387H68.74z M148.275,307.414l0.039,0.037l-0.004,0.005
				L148.275,307.414z M201.813,302.507c-0.258,0.058-0.511,0.136-0.757,0.233c-9.261,3.504-19.494,3.439-28.709-0.185l-0.136-0.045
				c-14.268-5.868-24.508-18.671-27.095-33.88h83.808c-2.587,15.203-12.819,28.002-27.079,33.872L201.813,302.507z M226.316,306.894
				l-0.182,0.22l-0.022-0.026L226.316,306.894z M210.903,430.763c1.137-3,1.729-6.179,1.748-9.387V317.611l93.376,113.152H210.903z"
				/>
			<path d="M494.933,174.763h-17.067v17.067c0,4.713-3.82,8.533-8.533,8.533s-8.533-3.82-8.533-8.533v-17.067h-17.067v17.067
				c0,4.713-3.82,8.533-8.533,8.533s-8.533-3.82-8.533-8.533v-17.067H409.6v17.067c0,4.713-3.82,8.533-8.533,8.533
				s-8.533-3.82-8.533-8.533v-17.067h-17.067v17.067c0,4.713-3.82,8.533-8.533,8.533s-8.533-3.82-8.533-8.533v-17.067h-17.067
				v17.067c0,4.713-3.821,8.533-8.533,8.533c-4.713,0-8.533-3.82-8.533-8.533v-17.067H307.2v17.067c0,4.713-3.82,8.533-8.533,8.533
				s-8.533-3.82-8.533-8.533v-17.067h-17.067v68.267h17.067v-17.067c0-4.713,3.82-8.533,8.533-8.533s8.533,3.82,8.533,8.533v17.067
				h17.067v-17.067c0-4.713,3.821-8.533,8.533-8.533c4.713,0,8.533,3.82,8.533,8.533v17.067H358.4v-17.067
				c0-4.713,3.82-8.533,8.533-8.533s8.533,3.82,8.533,8.533v17.067h17.067v-17.067c0-4.713,3.821-8.533,8.533-8.533
				s8.533,3.82,8.533,8.533v17.067h17.067v-17.067c0-4.713,3.82-8.533,8.533-8.533s8.533,3.82,8.533,8.533v17.067H460.8v-17.067
				c0-4.713,3.82-8.533,8.533-8.533s8.533,3.82,8.533,8.533v17.067h17.067c9.421-0.011,17.056-7.646,17.067-17.067v-34.133
				C511.989,182.408,504.355,174.773,494.933,174.763z"/>
		</g>
	</g>
</g>
<g>
</g>
<g>
</g>
<g>
</g>
<g>
</g>
<g>
</g>
<g>
</g>
<g>
</g>
<g>
</g>
<g>
</g>
<g>
</g>
<g>
</g>
<g>
</g>
<g>
</g>
<g>
</g>
<g>
</g>
</svg>
