<svg id="Capa_1" enable-background="new 0 0 512 512" height="512" viewBox="0 0 512 512" width="512" xmlns="http://www.w3.org/2000/svg"><g><path d="m466.724 278.781c-11.018-11.018-28.881-11.018-39.899 0l-76.368 76.368c-10.994 10.994-25.61 17.048-41.157 17.048h-75.724v-30h75.724c15.552 0 28.205-12.653 28.205-28.205-.001-15.554-12.654-28.205-28.206-28.205h-150.505l-121.781 121.782 104.431 104.431 51.443-51.443 158.59-26.629 115.247-115.247c11.018-11.018 11.018-28.882 0-39.9z"/><path d="m59.412 113.5s19.408 68.016 73.694 99.358c19.617 11.326 41.108 16.311 60.554 18.061-27.432-17.057-49.095-38.53-63-62.613-10.002-17.323-16.817-37.455-20.26-59.401-2.21-.07-4.394-.115-6.516-.115-25.688.001-44.472 4.71-44.472 4.71z"/><path d="m452.588 113.5s-18.788-4.709-44.473-4.709c-2.123 0-4.306.045-6.516.115-3.443 21.946-10.258 42.078-20.26 59.401-13.904 24.083-35.568 45.557-63 62.613 19.446-1.75 40.935-6.733 60.555-18.061 54.286-31.343 73.694-99.359 73.694-99.359z"/><path d="m335.199 113.5c0 27.802-8.004 57.225-23.225 85.706 15.957-11.236 32.063-26.292 43.383-45.901 31.343-54.285 14.143-122.893 14.143-122.893s-21.825 6.229-46.446 21.496c7.996 20.734 12.145 41.583 12.145 61.592z"/><path d="m156.642 153.306c11.321 19.608 27.427 34.664 43.383 45.901-15.221-28.481-23.225-57.905-23.225-85.706 0-20.009 4.149-40.858 12.146-61.592-24.621-15.268-46.446-21.497-46.446-21.497s-17.2 68.608 14.142 122.894z"/><path d="m206.801 113.5c0 62.684 49.199 113.5 49.199 113.5s49.2-50.816 49.2-113.5-49.2-113.5-49.2-113.5-49.199 50.816-49.199 113.5z"/></g></svg>