<?xml version="1.0" encoding="utf-8"?>
<svg viewBox="109.77 45.461 309.686 362.315" xmlns="http://www.w3.org/2000/svg">
  <path d="M 898.03 434.456 C 908.317 429.588 917.661 423.84 925.783 417.308 C 950.078 397.763 960.702 373.49 955.733 348.953 C 947.209 306.974 894.13 274.394 828.545 268.838 C 799.581 250.752 761.839 237.276 715.155 228.267 C 721.56 208.619 730.317 192.805 737.651 181.714 C 762.018 193.774 801.745 208.722 854.743 216.632 C 865.85 218.289 876.322 218.37 885.878 218.37 L 885.892 218.37 C 915.346 218.37 932.531 211.236 941.767 204.617 C 964.782 188.121 960.304 165.087 959.714 162.47 L 957.072 150.469 L 937.514 148.878 C 936.82 148.812 867.742 142.236 824.725 108.271 C 796.067 85.647 752.038 58.712 704.952 58.712 C 692.423 58.712 684.383 60.736 681.505 61.6 L 672.371 64.357 L 575.942 214.588 C 560.286 214.119 543.832 213.877 526.789 213.877 C 509.747 213.877 493.291 214.119 477.635 214.588 L 381.194 64.385 L 372.109 61.635 C 369.181 60.741 361 58.681 348.249 58.681 C 300.904 58.681 257.122 85.711 228.736 108.394 C 184.825 143.474 119.261 148.73 117.028 148.899 L 96.694 150.057 L 93.837 162.857 C 93.249 165.475 88.784 188.89 111.798 205.378 C 121.036 211.998 138.231 219.893 167.688 219.893 C 177.243 219.893 187.715 219.05 198.823 217.394 C 251.82 209.49 291.536 193.78 315.913 181.72 C 323.248 192.812 331.992 208.633 338.41 228.273 C 291.735 237.276 254.007 250.743 225.044 268.822 C 159.376 274.328 106.19 306.937 97.656 348.952 C 92.673 373.482 103.311 397.763 127.605 417.307 C 135.786 423.883 145.176 429.661 155.554 434.551 C 159.445 457.944 167.074 481.617 178.216 504.432 C 187.02 522.445 198.056 539.995 210.927 556.608 C 193.542 569.262 176.618 584.401 160.208 602.024 C 127.921 636.701 109.669 668.233 108.904 669.56 L 104.343 677.5 L 112.112 684.405 C 166.849 733.098 229.039 760.275 296.929 765.18 C 304.405 765.722 311.705 765.965 318.802 765.965 C 396.364 765.965 450.421 736.412 452.878 735.041 L 498.881 709.426 L 437.376 706.633 C 388.561 704.412 358.837 686.904 344.392 675.409 L 358.696 667.308 C 409.872 688.481 466.973 699.638 526.776 699.638 C 586.592 699.638 643.679 688.473 694.853 667.308 L 709.159 675.409 C 694.736 686.868 664.977 704.412 616.175 706.633 L 554.666 709.426 L 600.672 735.041 C 603.128 736.412 657.183 765.965 734.747 765.965 C 741.846 765.965 749.157 765.716 756.62 765.18 C 824.523 760.275 886.702 733.098 941.439 684.405 L 949.208 677.5 L 944.647 669.56 C 943.884 668.233 925.627 636.701 893.339 602.024 C 876.933 584.401 860.006 569.261 842.624 556.608 C 855.493 540.003 866.541 522.452 875.333 504.432 C 886.5 481.589 894.141 457.879 898.03 434.456 Z M 205.499 417.11 C 191.252 413.137 178.712 406.128 168.885 398.218 C 162.103 392.764 156.979 386.297 153.582 379.933 C 149.093 371.524 147.636 362.309 149.481 353.255 C 151.937 341.159 160.106 330.162 172.143 321.475 C 189.88 308.682 216.019 300.625 244.746 300.625 C 246.31 300.625 247.895 300.625 249.471 300.676 C 251.975 300.75 254.489 300.867 256.981 301.065 C 258.076 301.153 262.446 303.85 266.091 311.372 C 270.851 321.218 272.603 335.192 271.038 350.719 C 269.111 369.846 262.458 390.616 252.796 404.625 C 242.97 418.87 234.272 423.627 232.967 423.627 C 232.945 423.627 232.898 423.627 232.828 423.627 C 223.247 416.312 214.067 419.501 205.499 417.11 Z M 847.76 617.956 C 868.6 640.258 883.399 661.598 890.566 672.676 C 847.194 708.87 800.367 729.074 751.237 732.762 C 726.8 734.595 704.572 732.037 686.26 728.099 C 741.175 711.274 765.292 681.546 766.609 679.882 L 775.306 668.87 L 736.708 647.016 L 697.826 625 L 692.618 622.046 C 708.805 595.609 702.915 572.985 694.263 557.927 C 688.799 548.412 681.7 540.86 675.868 535.632 C 670.498 530.809 666.219 527.965 665.337 527.392 L 646.531 538.704 L 627.725 550.017 C 628.16 550.301 671.143 578.799 637.858 618.629 L 628.535 629.779 L 654.746 644.618 C 614.865 659.508 571.825 667.065 526.762 667.065 C 481.686 667.065 438.644 659.515 398.763 644.618 L 424.975 629.779 L 415.666 618.629 C 382.884 579.4 424.165 551.109 425.938 549.92 L 425.799 550.016 L 406.992 538.703 L 388.186 527.391 C 387.292 527.964 383.014 530.815 377.654 535.631 C 371.838 540.859 364.737 548.411 359.259 557.926 C 350.609 572.984 344.719 595.608 360.904 622.045 L 355.696 624.999 L 316.816 647.015 L 278.216 668.869 L 286.914 679.882 C 288.23 681.545 312.349 711.273 367.262 728.098 C 348.95 732.043 326.713 734.593 302.289 732.761 C 253.159 729.073 206.331 708.869 162.96 672.675 C 170.129 661.597 184.94 640.256 205.766 617.955 C 216.38 606.591 227.183 596.417 238.078 587.487 C 250.244 577.516 262.525 569.1 274.785 562.318 C 290.606 553.58 306.379 547.562 321.834 544.46 L 313.831 528.947 L 305.85 513.435 C 287.067 517.203 268.614 523.574 250.571 532.474 C 241.99 520.369 234.457 507.789 228.182 494.93 C 221.118 480.48 215.617 465.664 211.715 450.833 C 216.486 451.507 221.329 452.042 226.254 452.431 C 228.477 452.607 230.732 452.695 232.953 452.695 C 267.957 452.695 289.161 432.6 300.783 415.746 C 312.726 398.437 320.883 375.483 323.176 352.779 C 326.878 316.225 315.559 289.503 292.204 276.776 C 314.89 267.663 342.194 260.764 374.422 255.867 L 397.612 252.34 L 394.075 237.619 C 380.662 181.785 347.847 147.85 346.458 146.427 L 327.841 127.447 L 304.453 144.243 C 304.03 144.544 261.611 174.507 186.657 185.694 C 179.523 186.757 173.14 187.3 167.675 187.3 C 155.91 187.3 152.431 184.844 151.278 184.038 C 149.186 182.564 147.775 180.512 146.858 178.297 C 177.277 173.297 229.875 160.438 269.921 128.445 C 305.476 100.036 330.535 93.204 342.429 91.679 L 443.183 248.647 L 462.213 247.804 C 482.147 246.917 503.856 246.469 526.765 246.469 C 549.672 246.469 571.382 246.917 591.315 247.804 L 610.343 248.647 L 711.038 91.767 C 723.039 93.372 748.003 100.33 783.699 128.512 C 822.793 159.376 876.415 172.638 906.808 177.975 C 905.917 180.255 904.493 182.425 902.332 183.971 C 901.19 184.792 897.711 187.285 885.863 187.285 L 885.852 187.285 C 880.388 187.285 873.993 186.743 866.858 185.679 C 792.702 174.616 749.425 144.493 749.061 144.228 L 725.669 127.432 L 707.056 146.414 C 705.667 147.828 672.852 181.764 659.441 237.606 L 655.902 252.327 L 679.093 255.854 C 711.275 260.744 738.555 267.635 761.215 276.726 C 737.813 289.438 726.471 316.168 730.163 352.744 C 732.454 375.456 740.612 398.41 752.554 415.726 C 773.618 446.275 801.062 452.69 820.385 452.69 L 820.396 452.69 C 822.618 452.69 824.876 452.602 827.099 452.426 C 832.081 452.031 836.995 451.488 841.825 450.799 C 837.923 465.637 832.424 480.469 825.345 494.925 C 819.056 507.792 811.533 520.372 802.954 532.468 C 784.911 523.568 766.458 517.197 747.676 513.429 L 739.671 528.942 L 731.667 544.455 C 747.124 547.556 762.908 553.575 778.729 562.314 C 790.988 569.096 803.27 577.512 815.437 587.482 C 826.346 596.417 837.145 606.592 847.76 617.956 Z M 820.55 423.643 C 820.467 423.643 820.433 423.643 820.419 423.643 C 819.115 423.643 810.406 418.877 800.58 404.625 C 790.917 390.608 784.264 370.719 782.338 351.592 C 780.775 336.071 782.526 321.659 787.287 311.82 C 790.917 304.305 795.292 301.38 796.384 301.292 C 798.933 301.094 801.497 300.851 804.072 300.771 C 805.6 300.727 807.115 300.639 808.633 300.639 C 837.537 300.639 863.817 308.711 881.555 321.635 C 893.426 330.286 901.465 341.071 903.898 353.057 C 905.718 362.008 904.32 370.908 899.95 379.237 C 896.551 385.695 891.367 391.81 884.489 397.338 C 874.7 405.211 862.23 413.085 848.055 417.059 C 839.428 419.478 830.189 416.312 820.55 423.643 Z" style="" transform="matrix(0.357052, 0, 0, 0.357052, 76.526002, 24.508623)"/>
  <path d="M 594.852 468.495 L 556.759 492.255 C 546.334 498.758 546.334 509.308 556.759 515.81 C 561.979 519.066 568.807 520.685 575.647 520.685 C 582.488 520.685 589.318 519.058 594.535 515.81 L 632.641 492.043 C 643.065 485.54 643.065 474.99 632.641 468.488 C 622.192 461.992 605.292 461.992 594.852 468.495 Z" style="" transform="matrix(0.357052, 0, 0, 0.357052, 76.526002, 24.508623)"/>
  <path d="M 457.535 468.495 C 447.111 461.993 430.195 461.993 419.77 468.495 C 409.344 474.998 409.344 485.548 419.77 492.051 L 457.864 515.818 C 463.084 519.073 469.912 520.693 476.753 520.693 C 483.594 520.693 490.421 519.066 495.641 515.818 C 506.067 509.315 506.067 498.766 495.641 492.262 L 457.535 468.495 Z" style="" transform="matrix(0.357052, 0, 0, 0.357052, 76.526002, 24.508623)"/>
  <path d="M 844.546 332.722 L 806.453 356.482 C 796.028 362.984 796.028 373.535 806.453 380.037 C 811.673 383.293 818.501 384.912 825.341 384.912 C 832.182 384.912 839.011 383.285 844.228 380.037 L 882.333 356.269 C 892.759 349.767 892.759 339.217 882.333 332.714 C 871.886 326.218 854.985 326.218 844.546 332.722 Z" style="" transform="matrix(0.357052, 0, 0, 0.357052, 76.526002, 24.508623)"/>
  <path d="M 646.307 864.493 C 634.624 853.908 628.663 845.965 627.073 832.749 C 625.883 822.871 632.539 811.467 632.539 811.467 C 624.289 814.894 624.198 814.527 618.751 817.334 C 590.405 831.948 582.999 846.573 582.132 848.464 C 582.072 848.598 582.037 848.675 582.037 848.675 L 582.132 848.464 C 582.132 848.464 604.288 794.4 542.611 769.224 C 537.492 767.136 525.687 762.988 525.687 762.988 C 525.687 762.988 556.308 809.813 501.482 837.592 C 490.69 810.121 433.718 809.782 433.718 809.782 C 433.718 809.782 438.097 819.354 438.801 821.619 C 448.034 851.474 419.735 860.921 413.987 889.144 C 414.641 885.905 414.382 887.195 413.983 889.162 C 413.981 889.169 413.978 889.176 413.978 889.183 C 413.979 889.18 413.979 889.177 413.981 889.174 C 413.978 889.182 413.977 889.19 413.976 889.197 C 409.491 911.354 426.417 928.513 452.428 940.092 C 453.643 932.272 458.782 924.514 465.926 918.04 C 474.009 910.718 478.135 905.223 479.229 896.081 C 480.046 889.248 475.447 881.357 475.447 881.357 C 481.147 883.731 481.22 883.477 484.985 885.419 C 500.916 893.632 507.285 901.85 509.437 905.345 C 509.509 905.318 509.582 905.291 509.66 905.264 C 506.943 897.613 499.283 867.801 537.658 852.138 C 541.196 850.695 549.365 847.826 549.365 847.826 C 549.365 847.826 527.634 877.463 575.477 901.537 C 574.407 891.684 580.434 882.587 591.71 875.578 C 597.836 871.773 608.877 869.944 608.877 869.944 C 608.877 869.944 605.844 876.57 605.361 878.134 C 598.972 898.793 626.778 914.856 620.838 934.424 C 619.723 938.092 618.128 941.652 615.903 945.036 L 618.559 945.036 C 632.662 940.339 645.75 934.231 654.714 925.849 C 675.109 906.777 665.944 882.281 646.307 864.493 Z" style="" transform="matrix(-0.357052, 0, 0, -0.357052, 461.956088, 634.362083)"/>
  <path d="M 459.67 936.793 C 447.987 926.208 442.026 918.265 440.436 905.049 C 439.246 895.171 445.902 883.767 445.902 883.767 C 437.652 887.194 437.561 886.827 432.114 889.634 C 403.768 904.248 396.362 918.873 395.495 920.764 C 395.435 920.898 395.4 920.975 395.4 920.975 L 395.495 920.764 C 395.495 920.764 417.651 866.7 355.974 841.524 C 350.855 839.436 339.05 835.288 339.05 835.288 C 339.05 835.288 369.671 882.113 314.845 909.892 C 304.053 882.421 247.081 882.082 247.081 882.082 C 247.081 882.082 251.46 891.654 252.164 893.919 C 261.397 923.774 233.098 933.221 227.35 961.444 C 228.004 958.205 227.745 959.495 227.346 961.462 C 227.344 961.469 227.341 961.476 227.341 961.483 C 227.342 961.48 227.342 961.477 227.344 961.474 C 227.341 961.482 227.34 961.49 227.339 961.497 C 222.854 983.654 239.78 1000.813 265.791 1012.392 C 267.006 1004.572 272.145 996.814 279.289 990.34 C 287.372 983.018 291.498 977.523 292.592 968.381 C 293.409 961.548 288.81 953.657 288.81 953.657 C 294.51 956.031 294.583 955.777 298.348 957.719 C 314.279 965.932 320.648 974.15 322.8 977.645 C 322.872 977.618 322.945 977.591 323.023 977.564 C 320.306 969.913 312.646 940.101 351.021 924.438 C 354.559 922.995 362.728 920.126 362.728 920.126 C 362.728 920.126 340.997 949.763 388.84 973.837 C 387.77 963.984 393.797 954.887 405.073 947.878 C 411.199 944.073 422.24 942.244 422.24 942.244 C 422.24 942.244 419.207 948.87 418.724 950.434 C 412.335 971.093 440.141 987.156 434.201 1006.724 C 433.086 1010.392 431.491 1013.952 429.266 1017.336 L 431.922 1017.336 C 446.025 1012.639 459.113 1006.531 468.077 998.149 C 488.472 979.077 479.307 954.581 459.67 936.793 Z" style="" transform="matrix(-0.29248, -0.204796, 0.204796, -0.29248, 116.171794, 698.492063)"/>
  <path d="M 843.616 927.193 C 831.933 916.608 825.972 908.665 824.382 895.449 C 823.192 885.571 829.848 874.167 829.848 874.167 C 821.598 877.594 821.507 877.227 816.06 880.034 C 787.714 894.648 780.308 909.273 779.441 911.164 C 779.381 911.298 779.346 911.375 779.346 911.375 L 779.441 911.164 C 779.441 911.164 801.597 857.1 739.92 831.924 C 734.801 829.836 722.996 825.688 722.996 825.688 C 722.996 825.688 753.617 872.513 698.791 900.292 C 687.999 872.821 631.027 872.482 631.027 872.482 C 631.027 872.482 635.406 882.054 636.11 884.319 C 645.343 914.174 617.044 923.621 611.296 951.844 C 611.95 948.605 611.691 949.895 611.292 951.862 C 611.29 951.869 611.287 951.876 611.287 951.883 C 611.288 951.88 611.288 951.877 611.29 951.874 C 611.287 951.882 611.286 951.89 611.285 951.897 C 606.8 974.054 623.726 991.213 649.737 1002.792 C 650.952 994.972 656.091 987.214 663.235 980.74 C 671.318 973.418 675.444 967.923 676.538 958.781 C 677.355 951.948 672.756 944.057 672.756 944.057 C 678.456 946.431 678.529 946.177 682.294 948.119 C 698.225 956.332 704.594 964.55 706.746 968.045 C 706.818 968.018 706.891 967.991 706.969 967.964 C 704.252 960.313 696.592 930.501 734.967 914.838 C 738.505 913.395 746.674 910.526 746.674 910.526 C 746.674 910.526 724.943 940.163 772.786 964.237 C 771.716 954.384 777.743 945.287 789.019 938.278 C 795.145 934.473 806.186 932.644 806.186 932.644 C 806.186 932.644 803.153 939.27 802.67 940.834 C 796.281 961.493 824.087 977.556 818.147 997.124 C 817.032 1000.792 815.437 1004.352 813.212 1007.736 L 815.868 1007.736 C 829.971 1003.039 843.059 996.931 852.023 988.549 C 872.418 969.477 863.253 944.981 843.616 927.193 Z" style="" transform="matrix(-0.252474, 0.252474, -0.252474, -0.252474, 757.221993, 397.182904)"/>
  <path d="M 149.643 144.919 C 145.92 142.597 139.879 142.597 136.158 144.919 C 132.435 147.241 132.435 151.007 136.158 153.329 L 149.76 161.815 C 151.623 162.977 154.06 163.556 156.503 163.556 C 158.947 163.556 161.384 162.975 163.247 161.815 C 166.969 159.493 166.969 155.726 163.247 153.404 L 149.643 144.919 Z" style=""/>
</svg>