<svg height="512" viewBox="0 0 56 56" width="512" xmlns="http://www.w3.org/2000/svg"><g id="024---Alien-Rifle" transform="translate(-1 -1)"><path id="Shape" d="m49 11.36-2.11-.66-1.91 1.79 2.11.66z"/><path id="Shape" d="m52.58 7.99-2.1-.66-1.92 1.8 2.11.66z"/><path id="Shape" d="m41.84 18.09-2.11-.66-3.88 3.65c.4197213.5222174.7569662 1.1056511 1 1.73z"/><path id="Shape" d="m51.65 1.25-1.19-.16c-2.6716205-.38450721-5.3812887.37826802-7.46 2.1l-21.69 18.28c-.3071259.2582513-.430136.6750787-.3124336 1.0587012.1177023.3836225.453319.6597349.8524336.7012988l1.45.14c1.25-4.59 7-6.49 11-3.73.14.09-1.3 1.36 17.9-16.64.3008873-.26088994.4182933-.67544495.2988898-1.05536536-.1194036-.3799204-.4528535-.65277783-.8488898-.69463464z"/><path id="Shape" d="m27.17 21.27c-4.08 2.73-1.78 8.73 3.3 8.48 2.6032225-.0479733 4.7020267-2.1467775 4.75-4.75-.06-3.87-4.78-6-8.05-3.73zm2.23 4.41c.2991826.2800985.3971709.7143962.2472453 1.0958247-.1499257.3814286-.5174119.6327651-.9272453.6341753-.2560877.0016723-.5030575-.094968-.69-.27-2.18-2.06.09-5.53 1.42-4.11.3742413.4036568.3518935 1.0338657-.05 1.41-.1769584.1574973-.2781848.3831041-.2781848.62s.1012264.4625027.2781848.62z"/><path id="Shape" d="m45.42 14.73-2.11-.66-1.91 1.79 2.11.66z"/><path id="Shape" d="m28.82 38.41c-1.3289391-.5643999-2.6955803-1.0355402-4.09-1.41-.6696704.7213763-1.2504781 1.5204066-1.73 2.38 1.1548462.3771889 2.2867602.8212731 3.39 1.33z"/><path id="Shape" d="m22.15 41.23c-.3639318 1.1880934-.4461031 2.4446291-.24 3.67l2.88-2.71c-.87-.37-1.75-.69-2.64-1z"/><path id="Shape" d="m56.69 6.92c-20.91 19.6-19.46 18.21-19.47 18.33-.0456638 1.4375207-.5660864 2.8194537-1.48 3.93l21-19.66c.3978308-.8252861.3792667-1.79061962-.05-2.6z"/><path id="Shape" d="m31 37.21c1.6715493.8180927 3.2735347 1.7712573 4.79 2.85.3888522.3032721.9407358.2778006 1.3-.06l1.21-1.1c.231801-.2116587.3507673-.5198764.3212853-.8323854s-.2039907-.5930404-.4712853-.7576146l-3.85-2.41c-1.1351629-.8807941-1.5440966-2.410206-1-3.74-4.48 2.06-9.92-.89-10.14-5.75h-.35l-2.05 1.93c-.2804102.231299-.3408376.6370258-.14.94.8 1.1 1.63 3.22-.38 6 3.7362946.3068675 7.3839614 1.3001448 10.76 2.93z"/><path id="Shape" d="m3.64 50.06c2.28-.31 5.45-.37 7.13 1.21 1.3125606 1.2130255 1.8274041 3.063365 1.33 4.78-.2.8.9 1.27 1.5.7l7.27-6.83c.51-.48-.92-3-1.06-5.89-.0844931-2.7533058.8765976-5.4364997 2.69-7.51-1.4510099-.2662917-2.9250024-.3868911-4.4-.36-.1 0-.19 0-3.5.65-2.1383952.3916279-4.1198709 1.387571-5.71 2.87l-7.23 6.8c-1.57 1.52-.15 3.86 1.98 3.58zm8.36-9.06c.5522847 0 1 .4477153 1 1s-.4477153 1-1 1-1-.4477153-1-1 .4477153-1 1-1zm-3 3c.55228475 0 1 .4477153 1 1s-.44771525 1-1 1-1-.4477153-1-1 .44771525-1 1-1z"/></g></svg>