<svg id="Capa_1" enable-background="new 0 0 508.287 508.287" height="512" viewBox="0 0 508.287 508.287" width="512" xmlns="http://www.w3.org/2000/svg"><g id="XMLID_1043_"><path id="XMLID_1087_" d="m374.333 120.394c0 24.093 19.602 43.694 43.694 43.694 16.049 0 30.096-8.704 37.693-21.633h.001c3.808-6.48 6.002-14.018 6.002-22.062 0-2.909-.292-5.751-.837-8.502h-.001c-3.969-20.037-21.674-35.192-42.858-35.192-24.092 0-43.694 19.601-43.694 43.695z"/><path id="XMLID_1090_" d="m266.681 208.644c-25.089 0-45.5 20.411-45.5 45.5s20.412 45.5 45.5 45.5 45.5-20.411 45.5-45.5-20.411-45.5-45.5-45.5z"/><path id="XMLID_1102_" d="m491.476 320.353c-6.689-16.251-18.757-33.822-35.864-52.226-4.333-4.661-8.948-9.327-13.815-13.984 4.868-4.657 9.482-9.323 13.815-13.984 17.107-18.403 29.175-35.975 35.864-52.226 9.934-24.127 5.92-40.95.803-50.814-.55-1.061-1.176-2.097-1.836-3.121-3.424 18.26-13.592 34.164-27.825 45.016-7.046 15.443-21.529 34.551-43.319 55.17-16.414-13.564-34.823-26.867-54.719-39.547-.815-9.153-1.823-18.145-3.01-26.948-3.317-24.608-8.06-47.706-14.114-68.5-1.934-6.64-3.997-13.052-6.194-19.197-8.459-23.66-18.501-42.462-29.846-55.884-16.843-19.925-33.624-24.108-44.735-24.108s-27.892 4.183-44.736 24.11c-11.345 13.421-21.387 32.224-29.846 55.884-3.84 10.742-7.279 22.289-10.306 34.487-12.222-2.93-24.056-5.194-35.359-6.732-24.897-3.385-46.212-3.13-63.35.762-25.445 5.776-36.885 18.747-42.001 28.61s-9.13 26.685.803 50.813c6.69 16.251 18.756 33.822 35.864 52.226 4.12 4.432 8.495 8.869 13.1 13.298-13.428 12.676-24.502 25.151-33.077 37.193 11.221.509 21.792 3.54 31.167 8.536 6.755-8.269 14.934-16.893 24.403-25.688 16.597 13.772 35.249 27.282 55.439 40.148 1.576 17.683 3.852 34.781 6.793 51.031-17.887 4.325-33.982 6.861-47.957 7.843-1.244 11.097-4.96 21.454-10.587 30.51 19.194-.204 41.098-3.259 64.823-8.983 3.012 12.108 6.431 23.573 10.246 34.243 8.459 23.66 18.501 42.462 29.846 55.884 16.844 19.927 33.625 24.11 44.736 24.11 1.596 0 3.156-.088 4.7-.218-14.567-10.895-24.965-27.052-28.399-45.622-11.898-15.299-23.561-41.306-32.268-76.401 18.038-5.619 36.83-12.584 56.037-20.815 10.427 4.442 20.789 8.532 31.026 12.248 24.39 8.852 48.063 15.586 70.156 19.897 6.474 1.263 12.812 2.32 18.993 3.16 11.58 1.574 22.381 2.361 32.351 2.361 11.467 0 21.832-1.041 31-3.123 25.444-5.776 36.885-18.747 42.001-28.61s9.131-26.682-.803-50.809zm-95.058-66.21c-9.013 7.293-18.868 14.681-29.568 22.081.216-7.265.33-14.624.33-22.081 0-7.421-.124-14.791-.358-22.1 10.712 7.407 20.576 14.802 29.596 22.1zm-129.712 78.352c-10.574-4.781-21.413-10.025-32.488-15.769-12.985-6.736-25.222-13.602-36.727-20.527-.85-13.401-1.31-27.427-1.31-42.055 0-14.665.463-28.725 1.316-42.157 11.745-7.004 24.013-13.833 36.721-20.425 10.725-5.563 21.577-10.834 32.418-15.772 10.582 4.784 21.424 10.023 32.507 15.772 12.985 6.736 25.223 13.603 36.728 20.528.85 13.401 1.31 27.427 1.31 42.054 0 14.415-.422 28.441-1.249 42.017-11.523 6.938-23.781 13.817-36.789 20.564-11.072 5.744-21.895 10.99-32.437 15.77zm-65.749-157.112c1.037-8.151 2.226-15.999 3.546-23.539 8.023 2.528 16.307 5.372 24.826 8.544-2.983 1.495-5.959 3.006-8.923 4.544-6.597 3.421-13.081 6.909-19.449 10.451zm112.001-10.452c-3.091-1.604-6.185-3.173-9.281-4.72 8.488-3.272 16.866-6.292 25.067-9.036 1.369 7.756 2.598 15.844 3.667 24.25-6.381-3.573-12.866-7.077-19.453-10.494zm-46.277-134.931c18.345 0 41.201 33.117 55.824 91.678-18.082 5.929-36.96 13.125-55.963 21.347-18.959-8.074-37.711-14.99-55.871-20.603 14.614-59.026 37.588-92.422 56.01-92.422zm-198.968 120.935c5.066-9.768 21.447-15.489 46.425-15.489 16.841 0 37.593 2.609 61.406 8.33-2.912 16.121-5.171 33.074-6.74 50.605-20.217 12.699-38.797 25.899-55.282 39.289-38.094-36.208-53.613-67.69-45.809-82.735zm68.729 102.802c9.37-7.434 19.433-14.809 30.107-22.065-.241 7.431-.369 14.925-.369 22.471 0 7.421.124 14.791.358 22.1-10.909-7.543-20.94-15.075-30.096-22.506zm68.081 102.824c-1.33-7.589-2.528-15.491-3.572-23.699 6.381 3.573 12.866 7.077 19.453 10.494 3.004 1.558 6.01 3.083 9.017 4.588-8.554 3.202-16.861 6.07-24.898 8.617zm108.435-13.205c6.646-3.447 13.187-6.983 19.623-10.588-1.012 8.133-2.191 16.048-3.529 23.736-8.085-2.543-16.433-5.407-25.021-8.604 2.971-1.491 5.946-2.998 8.927-4.544zm152.691 13.997c-8.47 16.33-48.589 21.355-107.576 7.225 2.908-16.131 5.133-33.19 6.657-51.023 19.839-12.651 38.197-25.922 54.57-39.453 38.491 36.424 54.19 68.134 46.349 83.251z"/><path id="XMLID_1117_" d="m98.092 364.259c0-24.093-19.602-43.694-43.695-43.694s-43.694 19.601-43.694 43.694 19.601 43.694 43.694 43.694 43.695-19.6 43.695-43.694z"/><path id="XMLID_1121_" d="m359.124 449.023c0-12.627-5.39-24.014-13.983-31.999v-.001c-7.358-6.836-17.063-11.173-27.76-11.646-.648-.029-1.297-.049-1.951-.049-24.093 0-43.694 19.601-43.694 43.694s19.602 43.694 43.694 43.694 43.694-19.6 43.694-43.693z"/></g></svg>