<svg id="Layer_1" enable-background="new 0 0 510 510" height="512" viewBox="0 0 510 510" width="512" xmlns="http://www.w3.org/2000/svg"><g><path d="m480 162.108v126.092c18.092-12.358 30-33.126 30-56.643v-12.807c0-23.516-11.908-44.284-30-56.642z"/><path d="m0 218.751v12.807c0 23.517 11.908 44.285 30 56.643v-126.093c-18.092 12.358-30 33.126-30 56.643z"/><path d="m255 195.154c8.272 0 15-6.729 15-15-.824-19.9-29.179-19.894-30 0 0 8.271 6.729 15 15 15z"/><path d="m330 106.751v-106.584c-2.567-.022-148.009-.017-150 0v106.583c41.279-42.168 108.796-42.091 150 .001z"/><path d="m255 255.154c41.355 0 75-33.645 75-75-4.12-99.498-145.896-99.469-150 .001 0 41.354 33.645 74.999 75 74.999zm0-120c24.814 0 45 20.187 45 45-2.472 59.699-87.537 59.681-90 0 0-24.813 20.188-45 45-45z"/><path d="m265.279 509.845c48.19-2.752 93.436-24.73 125.397-61.256l59.324-67.799v-86.365l-123.191 61.596z"/><path d="m360 4.186v175.968c-5.784 139.331-204.267 139.223-210 0v-175.968c-51.748 13.727-90 60.962-90 116.968v139.73l146.809 73.404 48.191 120.478 48.191-120.478 146.809-73.404v-139.73c0-56.006-38.252-103.241-90-116.968z"/><path d="m60 294.425v86.365l59.324 67.799c31.969 36.537 77.213 58.514 125.397 61.258l-61.53-153.827z"/></g></svg>