<svg id="Layer_5" enable-background="new 0 0 64 64" height="512" viewBox="0 0 64 64" width="512" xmlns="http://www.w3.org/2000/svg"><g><path d="m29.263 7.707c.302-.154.62-.275.945-.38l-2.279-5.699-1.857.742 1.905 4.762c.464.119.901.31 1.286.575z"/><path d="m36.024 7.133 1.905-4.762-1.857-.742-2.28 5.698c.325.104.643.226.945.38.385-.265.822-.456 1.287-.574z"/><path d="m56.094 2.492-6.245 6.245 1.206.454c.273.103.524.247.75.418l4.102-4.102 6.305 8.106 1.578-1.229z"/><path d="m49.2 27.602c-.75-1.003-1.946-1.602-3.2-1.602h-7.341c-.487 1.528-1.411 2.892-2.178 3.832.046.047.11.115.161.168l9.358-.001 8.399 11.199c.375.502.974.802 1.602.802.436 0 .85-.139 1.198-.399.428-.32.705-.789.781-1.318.075-.529-.061-1.056-.381-1.481z"/><path d="m53.199 58.4-3.04-2.28 1.613-10.489c.247-1.613-.497-3.198-1.896-4.037l-8.486-5.092c1.084 2.013 1.835 4.022 2.24 6.009l4.188 2.512-1.613 10.487c-.226 1.462.37 2.921 1.554 3.809l3.041 2.28c.349.262.764.4 1.198.4.628 0 1.227-.3 1.6-.799.321-.428.457-.954.382-1.483-.076-.529-.353-.997-.781-1.317z"/><path d="m27 13c.482 0 .918-.177 1.263-.461l-.186.462 1.6 3.999h4.646l1.6-3.999-.186-.462c.345.284.781.461 1.263.461 1.105 0 2-.895 2-2s-.895-2-2-2c-1.025 0-1.861.775-1.977 1.769l-.261-.647c-1.5-1.451-4.025-1.451-5.525 0l-.261.647c-.115-.994-.951-1.769-1.976-1.769-1.105 0-2 .895-2 2s.895 2 2 2z"/><path d="m22.616 36.498-8.493 5.096c-1.398.839-2.143 2.424-1.896 4.037l1.613 10.489-3.04 2.28c-.428.319-.705.788-.781 1.317-.075.529.061 1.056.382 1.483.373.5.972.8 1.6.8.435 0 .85-.139 1.198-.4l3.041-2.28c1.184-.888 1.779-2.347 1.554-3.809l-1.613-10.487 4.189-2.513c.406-1.988 1.159-3.998 2.246-6.013z"/><path d="m27.36 30c.051-.053.114-.121.16-.167-.767-.939-1.692-2.304-2.179-3.832h-7.341c-1.254 0-2.45.599-3.2 1.602l-8.4 11.198c-.32.426-.456.952-.381 1.481.076.529.354.998.781 1.318.349.261.763.4 1.199.4.628 0 1.227-.3 1.602-.802l8.399-11.199z"/><path d="m12.196 9.61c.226-.172.476-.315.75-.418l1.206-.454-6.246-6.246-7.695 9.894 1.578 1.229 6.305-8.106z"/><path d="m24.756 36.748c-1.487 2.562-2.756 5.758-2.756 9.252 0 7.029 6.723 12.936 8.783 14.578.053.043.12.06.178.096-.197-7.906-2.132-15.782-5.669-22.855z"/><path d="m13 12v1.396c0 4.193 3.411 7.604 7.604 7.604.818 0 1.627-.131 2.405-.391l3.602-1.201c.452-.692.904-1.249 1.227-1.62l-.316-.791-2.759 1.034c-1.83.685-3.908.237-5.292-1.146l-5.822-5.822c-.378.143-.649.509-.649.937z"/><path d="m29.437 19c-.687.773-2.437 2.945-2.437 5s1.75 4.227 2.437 5h5.127c.686-.773 2.436-2.945 2.436-5s-1.75-4.227-2.437-5z"/><path d="m37.991 34.781c-1.35-1.92-2.636-3.259-3.17-3.781h-1.821v16.272c.97-3.567 2.268-7.044 3.919-10.347z"/><path d="m36.161 17.788c.324.372.775.929 1.227 1.621l3.603 1.201c.779.259 1.587.39 2.405.39 4.193 0 7.604-3.411 7.604-7.604v-1.396c0-.428-.271-.794-.649-.937l-5.822 5.822c-1.383 1.384-3.461 1.831-5.292 1.146l-2.759-1.034z"/><path d="m38.708 37.819c-3.537 7.073-5.472 14.949-5.669 22.855.057-.036.124-.053.177-.096 2.061-1.642 8.784-7.549 8.784-14.578 0-3.501-1.267-6.697-2.754-9.256z"/><path d="m26.011 34.785 1.07 2.14c1.651 3.303 2.949 6.781 3.919 10.347v-16.272h-1.821c-.533.523-1.818 1.864-3.168 3.785z"/></g></svg>