<svg height="511pt" viewBox="0 1 511 511.999" width="511pt" xmlns="http://www.w3.org/2000/svg"><path d="m144.53125 300.953125h-31.855469c14.609375 46.070313 51.046875 82.503906 97.113281 97.113281v-31.851562c-29.535156-12.09375-53.167968-35.722656-65.257812-65.261719zm0 0"/><path d="m269.730469 459.757812v-55.5c.089843-.007812.175781-.019531.265625-.03125v-30.164062c-4.992188.644531-10.085938.976562-15.25.976562-5.074219 0-10.078125-.320312-14.984375-.941406v122.917969c0 8.273437 6.707031 14.984375 14.984375 14.984375 8.273437 0 14.984375-6.710938 14.984375-14.984375v-7.222656c.089843-.007813.175781-.015625.265625-.019531v-30.039063c-.089844.007813-.175782.015625-.265625.023437zm0 0"/><path d="m299.96875 366.105469v31.878906c45.9375-14.667969 82.261719-51.050781 96.84375-97.03125h-31.851562c-12.054688 29.449219-35.582032 53.027344-64.992188 65.152344zm0 0"/><path d="m50.988281 270.984375h71.671875c-.621094-4.910156-.941406-9.910156-.941406-14.984375 0-4.960938.308594-9.847656.902344-14.652344h-107.636719c-.632813 0-1.253906-.050781-1.867187-.128906-7.148438 1.140625-12.617188 7.3125-12.617188 14.78125 0 8.277344 6.707031 14.984375 14.984375 14.984375zm0 0"/><path d="m209.789062 145.785156v-31.851562c-46.175781 14.644531-82.679687 51.21875-97.21875 97.445312h31.824219c12.050781-29.695312 35.746094-53.457031 65.394531-65.59375zm0 0"/><path d="m209.789062 56.695312v-30.664062c-45.445312 8.785156-87.246093 30.851562-120.703124 64.308594-33.539063 33.539062-55.632813 75.460937-64.371094 121.039062h30.652344c17.171874-76.785156 77.683593-137.382812 154.421874-154.683594zm0 0"/><path d="m239.761719 52.242188v85.660156c4.90625-.621094 9.910156-.941406 14.984375-.941406 5.164062 0 10.257812.332031 15.25.972656v-30.160156c-.085938-.011719-.175782-.023438-.265625-.03125v-55.5c.089843.007812.175781.015624.265625.023437v-30.039063c-.085938-.003906-.175782-.015624-.265625-.019531v-7.222656c0-8.273437-6.710938-14.984375-14.984375-14.984375-8.277344 0-14.984375 6.710938-14.984375 14.984375zm0 0"/><path d="m454.125 211.378906h30.648438c-8.738282-45.578125-30.832032-87.5-64.371094-121.039062-33.390625-33.390625-75.089844-55.441406-120.4375-64.257813v30.675781c76.613281 17.378907 137.007812 77.925782 154.160156 154.621094zm0 0"/><path d="m299.96875 455.242188v30.675781c45.34375-8.816407 87.042969-30.867188 120.4375-64.257813 33.457031-33.457031 55.523438-75.257812 64.304688-120.707031h-30.660157c-17.253906 76.539063-77.582031 136.9375-154.082031 154.289063zm0 0"/><path d="m387.769531 256c0 5.074219-.320312 10.074219-.9375 14.984375h109.171875c8.277344 0 14.984375-6.707031 14.984375-14.984375 0-7.199219-5.082031-13.210938-11.851562-14.652344h-112.269531c.59375 4.804688.902343 9.691406.902343 14.652344zm0 0"/><path d="m55.441406 300.953125h-30.664062c8.78125 45.449219 30.851562 87.25 64.308594 120.707031 33.457031 33.457032 75.257812 55.523438 120.703124 64.308594v-30.664062c-76.625-17.273438-137.074218-77.722657-154.347656-154.351563zm0 0"/><path d="m365.097656 211.378906h31.820313c-14.507813-46.136718-50.898438-82.660156-96.949219-97.363281v31.878906c29.523438 12.171875 53.113281 35.878907 65.128906 65.484375zm0 0"/><path d="m345.1875 241.015625h-10.167969c-6.152343-33.039063-32.25-59.136719-65.289062-65.292969v-7.15625c0-8.273437-6.710938-14.984375-14.984375-14.984375-8.277344 0-14.984375 6.710938-14.984375 14.984375v7.15625c-33.042969 6.15625-59.136719 32.25-65.292969 65.292969h-10.800781c-8.277344 0-14.984375 6.707031-14.984375 14.984375s6.707031 14.984375 14.984375 14.984375h10.800781c6.15625 33.039063 32.25 59.136719 65.292969 65.292969v7.15625c0 8.273437 6.707031 14.984375 14.984375 14.984375 8.273437 0 14.984375-6.710938 14.984375-14.984375v-7.15625c33.039062-6.15625 59.136719-32.25 65.289062-65.292969h10.167969c8.277344 0 14.984375-6.707031 14.984375-14.984375s-6.707031-14.984375-14.984375-14.984375zm-105.425781 64.46875c-16.480469-5-29.503907-18.019531-34.503907-34.5h34.503907zm0-64.46875h-34.503907c5-16.480469 18.023438-29.5 34.5-34.5v34.5zm29.96875 64.46875v-34.5h34.5c-5 16.480469-18.019531 29.5-34.5 34.5zm0-64.46875v-34.503906c16.480469 5 29.5 18.023437 34.5 34.503906zm0 0"/></svg>