<svg id="Capa_1" data-name="Capa 1" xmlns="http://www.w3.org/2000/svg" viewBox="0 0 149.68 362.96"><defs><style>.cls-1{fill:#fff;}.cls-2{fill:#9cf;}.cls-3{fill:#3a3a5b;}.cls-4{fill:#252543;}.cls-5{fill:#d47830;}.cls-6{fill:#4c4c80;}.cls-7{fill:#79431a;}.cls-8{fill:#a15b24;}.cls-9{fill:#333;}.cls-10{fill:#f7cdb3;}.cls-11{fill:#525280;}.cls-12,.cls-13,.cls-14,.cls-15,.cls-16{fill:red;}.cls-12{fill-opacity:0.2;}.cls-13{fill-opacity:0.4;}.cls-14{fill-opacity:0.6;}.cls-15{fill-opacity:0.7;}.cls-16{fill-opacity:0.8;}.cls-17{fill:#c9cae0;}.cls-18{fill:#cd9f82;}</style></defs><title>Spearman_01</title><g id="Layer0_0_MEMBER_0_FILL" data-name="Layer0 0 MEMBER 0 FILL"><path class="cls-1" d="M289.73,290.77Q287.11,278,282,272.42q-6.49,3.4-11.3,12.4a23.63,23.63,0,0,0-1.3,2.6q0.35,5.6.75,10.75,0.6,8.2,1.45,15.05v0.35q0.9,8.2,1.95,14.25,0.25,1.25.5,2.45a77.55,77.55,0,0,0,3.1,11.55q2.74,7.4,6.35,9.55,5.53-6.94,7.5-21.15a99.08,99.08,0,0,0,.95-13.3q-0.1-5.75-.1-5.8A99.88,99.88,0,0,0,289.73,290.77Z" transform="translate(-175.16 -68.52)"/><path class="cls-2" d="M288.18,270.52a18.25,18.25,0,0,0-6.15,1.9q5.07,5.57,7.7,18.35a99.88,99.88,0,0,1,2.15,20.35s0,2,.1,5.8a99.08,99.08,0,0,1-.95,13.3q-2,14.21-7.5,21.15a5.87,5.87,0,0,0,3.05.9l0.85-.1q5-.65,7.7-7.75a64.58,64.58,0,0,0,2.45-9.3q0.8-4.6,1.25-9.85,0.2-3,.35-6.45,0.25-7.45-.1-16.65-0.1-2.45-.25-4.9-0.35-4.9-.9-9.3a68,68,0,0,0-5.15-17.5A16.26,16.26,0,0,0,288.18,270.52Z" transform="translate(-175.16 -68.52)"/></g><path d="M286.66,352.76a6.41,6.41,0,0,1-3.38-1c-2.5-1.49-4.7-4.78-6.56-9.8a78.37,78.37,0,0,1-3.12-11.63q-0.25-1.2-.5-2.45c-0.7-4-1.36-8.84-2-14.29v-0.41c-0.56-4.5-1-9.57-1.45-15-0.27-3.42-.52-7-0.75-10.75a0.5,0.5,0,0,1,0-.23,24.1,24.1,0,0,1,1.33-2.65c3.23-6,7.11-10.28,11.53-12.59h0a18.58,18.58,0,0,1,6.29-2,16.78,16.78,0,0,1,4.72-.05,0.5,0.5,0,0,1,.39.29,68.81,68.81,0,0,1,5.19,17.63c0.37,2.95.67,6.08,0.91,9.35q0.15,2.46.25,4.91c0.23,6.12.27,11.73,0.1,16.69-0.1,2.3-.22,4.47-0.35,6.47-0.3,3.51-.72,6.84-1.26,9.9a65.42,65.42,0,0,1-2.47,9.38c-1.9,4.91-4.63,7.62-8.11,8.08Zm-2.86-1.82a5.4,5.4,0,0,0,2.79.83c0.16,0,.45-0.06.8-0.1,3.07-.4,5.53-2.91,7.28-7.43a64.38,64.38,0,0,0,2.43-9.21c0.53-3,.95-6.33,1.24-9.8,0.13-2,.25-4.14.35-6.43,0.17-4.93.13-10.52-.1-16.61q-0.1-2.44-.25-4.89c-0.23-3.24-.53-6.36-0.9-9.27a68.15,68.15,0,0,0-5-17.1,15.72,15.72,0,0,0-4.18.08,17.63,17.63,0,0,0-6,1.85c-4.23,2.21-8,6.31-11.11,12.19a23.26,23.26,0,0,0-1.23,2.45c0.23,3.67.48,7.24,0.74,10.62,0.4,5.43.88,10.49,1.45,15v0.41c0.59,5.38,1.25,10.16,1.94,14.16,0.16,0.82.33,1.63,0.5,2.43a77.38,77.38,0,0,0,3.08,11.48c1.78,4.8,3.84,7.93,6.14,9.29h0Z" transform="translate(-175.16 -68.52)"/><g id="Layer0_0_MEMBER_1_FILL" data-name="Layer0 0 MEMBER 1 FILL"><path class="cls-1" d="M257.38,268.72l-0.5-1a16.09,16.09,0,0,0-8.45-2.05,77.65,77.65,0,0,0-6.65,9.8q-2.2,3.7-4.1,7.75a0.58,0.58,0,0,0-.1.15q-1.9,4.3-3.7,8.95-0.85,2.35-1.7,4.55,0,0.15-.1.35-3,8.35-4.8,14.8-0.85,3.05-1.45,5.7-1.1,4.6-1.65,8.55a58.66,58.66,0,0,0-.4,8.1,10.44,10.44,0,0,0,1.6,5.75,5.54,5.54,0,0,0,2.7,2q8.9-5.59,17.8-25a141.08,141.08,0,0,0,8.4-23.45q3.2-12.25,3.2-20.75A40.84,40.84,0,0,0,257.38,268.72Z" transform="translate(-175.16 -68.52)"/><path class="cls-2" d="M256.88,267.72l0.5,1a40.84,40.84,0,0,1,.1,4.2q0,8.5-3.2,20.75a141.08,141.08,0,0,1-8.4,23.45q-8.9,19.36-17.8,25l0.55,0.15q4.6,1.15,10.85-6.5a84.8,84.8,0,0,0,6.4-9.3q0.6-.95,1.2-2.1,2.9-5.1,6.6-12.5,3.25-6.5,7.05-14.7,2.35-5.1,4.9-10.85Q264.41,272.2,256.88,267.72Z" transform="translate(-175.16 -68.52)"/></g><path d="M229.89,342.87a5.7,5.7,0,0,1-1.38-.17l-0.57-.16h0a6,6,0,0,1-2.94-2.12,11,11,0,0,1-1.7-6,59.51,59.51,0,0,1,.4-8.17c0.37-2.65.93-5.54,1.66-8.61,0.4-1.76.89-3.68,1.45-5.72,1.23-4.29,2.85-9.28,4.81-14.83,0-.1.06-0.23,0.1-0.34,0.57-1.48,1.14-3,1.7-4.56,1.2-3.1,2.45-6.12,3.71-9a1.35,1.35,0,0,1,.13-0.22c1.26-2.68,2.64-5.28,4.09-7.73a78.61,78.61,0,0,1,6.69-9.86,0.66,0.66,0,0,1,.54-0.19,16.57,16.57,0,0,1,8.58,2.15c5.12,3,8.14,9.41,9,18.91a0.5,0.5,0,0,1,0,.25c-1.69,3.81-3.34,7.46-4.9,10.86-2.52,5.43-4.89,10.38-7.06,14.71-2.46,4.91-4.68,9.12-6.61,12.52-0.4.76-.81,1.48-1.21,2.12a85.67,85.67,0,0,1-6.43,9.35C236.13,340.62,232.85,342.87,229.89,342.87Zm-1.66-1.28,0.51,0.14c2.85,0.72,6.33-1.42,10.35-6.33a84.67,84.67,0,0,0,6.36-9.24c0.4-.63.79-1.32,1.18-2.07,1.93-3.4,4.15-7.6,6.6-12.49,2.16-4.32,4.53-9.26,7-14.69,1.55-3.35,3.18-7,4.84-10.72-0.81-9.1-3.66-15.16-8.47-18a15.54,15.54,0,0,0-8-2,77.67,77.67,0,0,0-6.46,9.55c-1.45,2.45-2.83,5-4.08,7.71a0.49,0.49,0,0,1-.1.14c-1.26,2.85-2.5,5.85-3.69,8.93q-0.85,2.34-1.7,4.55c0,0.07-.05.17-0.08,0.29-2,5.58-3.58,10.55-4.8,14.82-0.56,2-1,3.93-1.44,5.67-0.73,3-1.28,5.9-1.64,8.51a58.32,58.32,0,0,0-.4,8,10,10,0,0,0,1.5,5.47A5.06,5.06,0,0,0,228.24,341.59Z" transform="translate(-175.16 -68.52)"/><g id="Layer0_0_MEMBER_2_FILL" data-name="Layer0 0 MEMBER 2 FILL"><path class="cls-3" d="M275.73,250.52a50.53,50.53,0,0,0-12.95.15,23.51,23.51,0,0,0-8.8,2.8,20.22,20.22,0,0,0-5.85,5.85,11.93,11.93,0,0,0-2.6,7.9q0.1,3.65,4.85,6.3a33.71,33.71,0,0,1,7.4,5.35,38.17,38.17,0,0,0,5.95,4.85,9.91,9.91,0,0,0,6.7,1.75q3.5-.5,8.25-4.85a22.29,22.29,0,0,1,8.65-5.4q3.95-1.15,5.5-3.5a9.57,9.57,0,0,0,1.5-5.35,16.49,16.49,0,0,0-2.1-7.05,13.91,13.91,0,0,0-5.8-6.1q-3.75-2-10.7-2.7m16.6,14.6a6.45,6.45,0,0,1-1.05,5q-1.6,2.2-5.8,3.7a21.67,21.67,0,0,0-8.15,5.3q-3.9,3.8-6.7,4.35a6.86,6.86,0,0,1-5.25-1.05,46.12,46.12,0,0,1-5.9-4.95,30.89,30.89,0,0,0-7.6-5.45q-4.15-2.1-3.9-5.95a9,9,0,0,1,2.4-6.05,7.19,7.19,0,0,1,4.8-2.35q2.75-.25,4.2,3.1a28.62,28.62,0,0,1,1.55,7.25q0.65,5.4,2.6,8.05t4.1,2.6a8.59,8.59,0,0,0,3.65-1.2,19.51,19.51,0,0,0,5.4-5.3,21,21,0,0,0,2.75-7.35q0.85-4.5,4.1-5.55a5.64,5.64,0,0,1,5.7,1.05A8.17,8.17,0,0,1,292.33,265.12Z" transform="translate(-175.16 -68.52)"/><path class="cls-4" d="M291.28,270.12a6.45,6.45,0,0,0,1.05-5,8.17,8.17,0,0,0-3.1-4.8,5.64,5.64,0,0,0-5.7-1.05q-3.25,1-4.1,5.55a21,21,0,0,1-2.75,7.35,19.51,19.51,0,0,1-5.4,5.3,8.59,8.59,0,0,1-3.65,1.2q-2.2,0-4.1-2.6t-2.6-8.05a28.62,28.62,0,0,0-1.55-7.25q-1.45-3.35-4.2-3.1a7.19,7.19,0,0,0-4.8,2.35,9,9,0,0,0-2.4,6.05q-0.25,3.85,3.9,5.95a30.89,30.89,0,0,1,7.6,5.45,46.12,46.12,0,0,0,5.9,4.95,6.86,6.86,0,0,0,5.25,1.05q2.8-.55,6.7-4.35a21.67,21.67,0,0,1,8.15-5.3Q289.68,272.32,291.28,270.12Z" transform="translate(-175.16 -68.52)"/></g><path d="M269.43,286a10.48,10.48,0,0,1-6-1.88,38.82,38.82,0,0,1-6-4.91,33.37,33.37,0,0,0-7.29-5.27c-3.32-1.85-5-4.11-5.11-6.72a12.46,12.46,0,0,1,2.69-8.2,20.79,20.79,0,0,1,6-6,24.09,24.09,0,0,1,9-2.87,51.28,51.28,0,0,1,13.08-.15c4.67,0.47,8.34,1.4,10.88,2.76a14.46,14.46,0,0,1,6,6.31,17,17,0,0,1,2.16,7.27,10.12,10.12,0,0,1-1.58,5.63c-1.1,1.66-3,2.91-5.78,3.71A21.91,21.91,0,0,0,279,281c-3.23,3-6.09,4.63-8.52,5Q270,286,269.43,286Zm0.14-35.34a44.63,44.63,0,0,0-6.71.48,23.15,23.15,0,0,0-8.61,2.73,19.82,19.82,0,0,0-5.71,5.72h0a11.51,11.51,0,0,0-2.51,7.57c0.06,2.26,1.61,4.24,4.6,5.9a34.37,34.37,0,0,1,7.51,5.43A37.84,37.84,0,0,0,264,283.3a9.46,9.46,0,0,0,6.38,1.67c2.2-.31,4.88-1.9,8-4.72a22.89,22.89,0,0,1,8.85-5.51c2.5-.73,4.26-1.84,5.22-3.29a9.12,9.12,0,0,0,1.42-5.07,16.08,16.08,0,0,0-2-6.82,13.48,13.48,0,0,0-5.59-5.89c-2.43-1.29-6-2.18-10.51-2.64A57.8,57.8,0,0,0,269.57,250.68Zm-21.44,8.64h0Z" transform="translate(-175.16 -68.52)"/><g id="Layer0_0_MEMBER_3_FILL" data-name="Layer0 0 MEMBER 3 FILL"><path class="cls-5" d="M242.23,286.47a49,49,0,0,1-8.7,7.8q-4.8,2.95-5.5,1.8-0.25,3.65.95,3.85a4.43,4.43,0,0,0,2.35-.3A62.4,62.4,0,0,0,242.23,286.47Z" transform="translate(-175.16 -68.52)"/><path class="cls-6" d="M240.08,270.67a2.14,2.14,0,0,0-1.3-2.25,110,110,0,0,0-7.2,14.3q-1.55,3.95-2.35,6.7a1.47,1.47,0,0,0,.35.05q4,0,7.5-8.05Q240.08,274.62,240.08,270.67Z" transform="translate(-175.16 -68.52)"/><path class="cls-3" d="M240.43,265.57q-0.85,1.45-1.65,2.85a2.14,2.14,0,0,1,1.3,2.25q0,3.95-3,10.75-3.55,8.05-7.5,8.05a1.47,1.47,0,0,1-.35-0.05,22.22,22.22,0,0,0-.8,3.2,25.55,25.55,0,0,0-.4,3.45q0.7,1.15,5.5-1.8a49,49,0,0,0,8.7-7.8,33.79,33.79,0,0,0,5.1-17.4,14.3,14.3,0,0,0-1.25-6.4,4.1,4.1,0,0,0-2.25-2.3Q242.23,262.57,240.43,265.57Z" transform="translate(-175.16 -68.52)"/><path class="cls-4" d="M253.93,269.67a23.31,23.31,0,0,0,1.25-9.25q-0.4-4.05-.65-5.3a11.16,11.16,0,0,1-.25-1.6,5.22,5.22,0,0,0-3.6.2q-2.85,1-6.85,6.65a4.1,4.1,0,0,1,2.25,2.3,14.3,14.3,0,0,1,1.25,6.4,33.79,33.79,0,0,1-5.1,17.4q1.45-1.6,3-3.4Q252.23,274.82,253.93,269.67Z" transform="translate(-175.16 -68.52)"/><path class="cls-7" d="M258.88,265.57q0.85-5.85-1.65-9.6a5.62,5.62,0,0,0-2.95-2.45,11.16,11.16,0,0,0,.25,1.6q0.25,1.25.65,5.3a23.31,23.31,0,0,1-1.25,9.25q-1.7,5.15-8.7,13.4-1.55,1.8-3,3.4a62.4,62.4,0,0,1-10.9,13.15q4.6-1.7,13.65-11Q257.38,276,258.88,265.57Z" transform="translate(-175.16 -68.52)"/></g><path d="M229.57,300.48a3.32,3.32,0,0,1-.69-0.07c-1.46-.24-1.47-2.61-1.35-4.37a26.2,26.2,0,0,1,.41-3.5,22.78,22.78,0,0,1,.82-3.26c0.53-1.83,1.33-4.09,2.36-6.73a111,111,0,0,1,7.23-14.37q0.8-1.4,1.65-2.85c1.2-2,2.36-3.77,3.43-5.24,2.75-3.85,5.07-6.08,7.08-6.83a5.72,5.72,0,0,1,3.92-.21,6.13,6.13,0,0,1,3.21,2.65c1.73,2.59,2.31,5.94,1.73,10-1,7-5.73,14.89-14,23.33-6.14,6.31-10.67,9.95-13.83,11.12A5.82,5.82,0,0,1,229.57,300.48Zm23.27-46.69a5.51,5.51,0,0,0-2,.4c-1.8.66-4,2.84-6.62,6.47-1.06,1.45-2.19,3.19-3.38,5.17q-0.85,1.44-1.65,2.84a110.19,110.19,0,0,0-7.17,14.23c-1,2.61-1.81,4.85-2.34,6.66a21.9,21.9,0,0,0-.79,3.14,25.32,25.32,0,0,0-.4,3.39c-0.16,2.38.19,3.28,0.53,3.34a4,4,0,0,0,2.1-.28c3-1.1,7.51-4.76,13.46-10.88,8.15-8.29,12.78-15.95,13.76-22.77,0.55-3.76,0-6.87-1.57-9.25a5.17,5.17,0,0,0-2.68-2.25h0A4.05,4.05,0,0,0,252.84,253.79Z" transform="translate(-175.16 -68.52)"/><g id="Layer0_0_MEMBER_4_FILL" data-name="Layer0 0 MEMBER 4 FILL"><path class="cls-1" d="M266.48,235.52a29.71,29.71,0,0,0-9.25,1.85,17.48,17.48,0,0,0-8.15,5.3q1.3,8.9,3.9,13.35a14.36,14.36,0,0,0,6,6q3.35,1.55,10,1.2,5.48-3.89,6.8-6.45a26.69,26.69,0,0,0,2.2-7.7l-0.15,1.1a99.06,99.06,0,0,0,1.1-11.05,22.42,22.42,0,0,0-3.1-1.75A22.73,22.73,0,0,0,266.48,235.52Z" transform="translate(-175.16 -68.52)"/><path class="cls-2" d="M262.28,220.32A21.43,21.43,0,0,0,254,223a12.12,12.12,0,0,0-1.45.95q-4.8,3.7-4.3,11.35,0.17,3.1.8,7.4a17.48,17.48,0,0,1,8.15-5.3,29.71,29.71,0,0,1,9.25-1.85,22.73,22.73,0,0,1,9.35,1.85,22.42,22.42,0,0,1,3.1,1.75,99.06,99.06,0,0,1-1.1,11.05l0.15-1.1a26.69,26.69,0,0,1-2.2,7.7q-1.32,2.56-6.8,6.45,0.73,0,1.4-.05a16.43,16.43,0,0,0,4.65-1.1,12.77,12.77,0,0,0,3.25-1.8q3.4-2.65,4.85-8.6a7.45,7.45,0,0,1,.15-0.75,28.65,28.65,0,0,0,.55-3.25,26.24,26.24,0,0,1,.8-4l0.05-.2a41.45,41.45,0,0,1,2.55-7q2.65-5.8-4-10.55a30.53,30.53,0,0,0-4.9-2.9l-0.45-.2a30.21,30.21,0,0,0-9.4-2.55A25.63,25.63,0,0,0,262.28,220.32Z" transform="translate(-175.16 -68.52)"/></g><path d="M266.82,263.8a19.69,19.69,0,0,1-8-1.33,14.77,14.77,0,0,1-6.2-6.2c-1.77-3-3.12-7.56-4-13.53-0.42-2.86-.69-5.37-0.8-7.44-0.34-5.25,1.17-9.21,4.49-11.77a12.71,12.71,0,0,1,1.51-1,22,22,0,0,1,8.44-2.71,26.23,26.23,0,0,1,6.31-.05,30.85,30.85,0,0,1,9.55,2.59l0.46,0.2a31.21,31.21,0,0,1,5,2.95c4.63,3.31,6,7.07,4.16,11.16a41.13,41.13,0,0,0-2.52,6.92l0,0.18a26.09,26.09,0,0,0-.79,4,29.16,29.16,0,0,1-.56,3.3,7.06,7.06,0,0,0-.14.71c-1,4.11-2.69,7.1-5,8.92a13.92,13.92,0,0,1-3.37,1.9,17.58,17.58,0,0,1-4.79,1.11c-0.46,0-.92.06-1.4,0.08Q267.88,263.8,266.82,263.8Zm-17.24-21.2c0.85,5.84,2.15,10.27,3.86,13.17a13.81,13.81,0,0,0,5.75,5.8c2.15,1,5.44,1.39,9.79,1.18h0q0.69,0,1.35-.07a16.52,16.52,0,0,0,4.51-1,12.88,12.88,0,0,0,3.13-1.76c2.16-1.68,3.73-4.48,4.67-8.32a7.19,7.19,0,0,1,.15-0.75,28.28,28.28,0,0,0,.54-3.19,26.84,26.84,0,0,1,.81-4.08s0-.13.05-0.2a42.08,42.08,0,0,1,2.58-7.07c1.67-3.65.41-6.9-3.84-9.93a30.26,30.26,0,0,0-4.82-2.85l-0.43-.19a29.9,29.9,0,0,0-9.26-2.52,25.11,25.11,0,0,0-6.08,0,21,21,0,0,0-8.07,2.59,11.72,11.72,0,0,0-1.39.91c-3,2.35-4.43,6-4.11,10.92,0.11,2.05.38,4.53,0.8,7.36h0Z" transform="translate(-175.16 -68.52)"/><g id="Layer0_0_MEMBER_5_FILL" data-name="Layer0 0 MEMBER 5 FILL"><path class="cls-2" d="M228.53,244.67q0.93-.05,1.95-0.2a10,10,0,0,0,1.05-.15l1.55-.4a50.4,50.4,0,0,0,2.65-4.6,66.28,66.28,0,0,0,3.45-7.9q0.45-1.2.85-2.4,2.95-8.65,7-25.35h-9.35q0.17,0.46.35,1a14.37,14.37,0,0,1,.8,4.25q0,6.3-3.65,19.35Q232.27,238.85,228.53,244.67Z" transform="translate(-175.16 -68.52)"/><path class="cls-1" d="M228.58,203.67a17.68,17.68,0,0,0-2.35,14.55q0,0.2.1,0.45a52.05,52.05,0,0,0-3.6,10.6q-0.7,2.95-1.2,6.25-0.3,2-.5,4.2a6.53,6.53,0,0,0,5.3,4.8,13.52,13.52,0,0,0,2.1.15h0.1q3.73-5.81,6.7-16.4,3.65-13,3.65-19.35a14.37,14.37,0,0,0-.8-4.25q-0.18-.54-0.35-1h-9.15Z" transform="translate(-175.16 -68.52)"/></g><path d="M228.53,245.17h0a14.45,14.45,0,0,1-2.27-.16,7,7,0,0,1-5.7-5.14,0.5,0.5,0,0,1,0-.2c0.13-1.46.3-2.89,0.5-4.23,0.33-2.21.74-4.32,1.21-6.29a52.93,52.93,0,0,1,3.56-10.55l-0.06-.27a18.24,18.24,0,0,1,2.42-14.94,0.5,0.5,0,0,1,.42-0.23h18.5a0.5,0.5,0,0,1,.49.62c-2.72,11.1-5.1,19.64-7.06,25.39q-0.4,1.2-.85,2.41a67.18,67.18,0,0,1-3.48,8,51.1,51.1,0,0,1-2.67,4.64,0.5,0.5,0,0,1-.3.21l-1.54.4a10.38,10.38,0,0,1-1.13.17c-0.66.1-1.33,0.16-2,.2h0Zm-7-5.51a6,6,0,0,0,4.89,4.37,13.1,13.1,0,0,0,2,.14h0.07c0.6,0,1.24-.1,1.91-0.2a9.71,9.71,0,0,0,1-.15l1.34-.35a50.48,50.48,0,0,0,2.52-4.39,66.24,66.24,0,0,0,3.43-7.84q0.45-1.2.84-2.39c1.92-5.62,4.23-13.93,6.89-24.69H228.86a17.25,17.25,0,0,0-2.14,13.93c0,0.14.07,0.3,0.11,0.48a0.5,0.5,0,0,1,0,.31,51.79,51.79,0,0,0-3.56,10.5c-0.46,1.95-.86,4-1.19,6.21C221.84,236.88,221.67,238.25,221.54,239.66Z" transform="translate(-175.16 -68.52)"/><g id="Layer0_0_MEMBER_6_FILL" data-name="Layer0 0 MEMBER 6 FILL"><path class="cls-7" d="M238.58,220q-0.7.7-1.4,1.3a11.08,11.08,0,0,1,2.55.45,3.7,3.7,0,0,1,2,2.5,81,81,0,0,0,5.35-9q-1.9-.95-4-1.75A21.07,21.07,0,0,1,238.58,220Z" transform="translate(-175.16 -68.52)"/><path class="cls-4" d="M225.83,209.52q-1.5,1.3-3.45,5.7l-0.6,1.4a19.64,19.64,0,0,0,11.95,4.45q2.1,0.1,3.45.2,0.7-.6,1.4-1.3a21.07,21.07,0,0,0,4.5-6.45A65.82,65.82,0,0,0,225.83,209.52Z" transform="translate(-175.16 -68.52)"/><path class="cls-3" d="M219.93,222.32a13.14,13.14,0,0,0,1.25,1.35,8.13,8.13,0,0,0,5.65,1.85,15.35,15.35,0,0,0,10.35-4.25q-1.35-.1-3.45-0.2a19.64,19.64,0,0,1-11.95-4.45A32.3,32.3,0,0,0,219.93,222.32Z" transform="translate(-175.16 -68.52)"/><path class="cls-5" d="M221.18,223.67a13.14,13.14,0,0,1-1.25-1.35l-0.2,1q-0.65,3.75,1.35,5.95a7.68,7.68,0,0,0,6,2.5q7,0,11.15-3.55a24.83,24.83,0,0,0,3.5-4,3.7,3.7,0,0,0-2-2.5,11.08,11.08,0,0,0-2.55-.45,15.35,15.35,0,0,1-10.35,4.25A8.13,8.13,0,0,1,221.18,223.67Z" transform="translate(-175.16 -68.52)"/></g><path d="M227.08,232.27a8.19,8.19,0,0,1-6.37-2.67c-1.43-1.58-1.93-3.72-1.47-6.37l0.2-1h0a33,33,0,0,1,1.88-5.79l0.6-1.4c1.35-3,2.52-5,3.58-5.88a0.49,0.49,0,0,1,.38-0.12,66.63,66.63,0,0,1,17.38,4c1.4,0.53,2.76,1.13,4,1.77a0.5,0.5,0,0,1,.22.68,82,82,0,0,1-5.38,9h0a25.4,25.4,0,0,1-3.57,4.08C235.75,231,231.89,232.27,227.08,232.27Zm-6.66-9.85-0.2,1c-0.41,2.35,0,4.16,1.23,5.52a7.14,7.14,0,0,0,5.63,2.34c4.55,0,8.2-1.15,10.82-3.43a24.45,24.45,0,0,0,3.42-3.91,79.13,79.13,0,0,0,5.07-8.44c-1.11-.54-2.29-1-3.49-1.5A65.46,65.46,0,0,0,226,210a18.63,18.63,0,0,0-3.17,5.38l-0.6,1.39A31.94,31.94,0,0,0,220.42,222.42Z" transform="translate(-175.16 -68.52)"/><g id="Layer0_0_MEMBER_7_FILL" data-name="Layer0 0 MEMBER 7 FILL"><path class="cls-8" d="M222.88,212.12a15.75,15.75,0,0,0,1.9,1.5,28,28,0,0,0,17.4,4.45q15.45-1,11.45-19.25a28.61,28.61,0,0,0-.7-2.8q1,12.7-6,10.2-0.1,9.2-14.2,5.75-6.75-1.65-8.9-3.85A10.09,10.09,0,0,0,222.88,212.12Z" transform="translate(-175.16 -68.52)"/><path class="cls-5" d="M224.53,202.62q-6.3,5.1-1.65,9.5a10.09,10.09,0,0,1,.95-4Q221.43,205.67,224.53,202.62Z" transform="translate(-175.16 -68.52)"/><path class="cls-3" d="M228.48,199.32a21.43,21.43,0,0,1,2.45-6.7q5.2-9.8,13.6-9.8A9.66,9.66,0,0,0,239,182q-10.65,1.35-14.45,20.6-3.1,3.05-.7,5.5a5.8,5.8,0,0,1,.6-1.1,8.15,8.15,0,0,1,3.5-3A29.27,29.27,0,0,1,228.48,199.32Z" transform="translate(-175.16 -68.52)"/><path class="cls-4" d="M230.93,192.62a21.43,21.43,0,0,0-2.45,6.7,29.27,29.27,0,0,0-.55,4.65,8.15,8.15,0,0,0-3.5,3,5.8,5.8,0,0,0-.6,1.1q2.15,2.2,8.9,3.85,14.1,3.45,14.2-5.75,7,2.5,6-10.2-2.85-10.55-8.4-13.2Q236.13,182.82,230.93,192.62Z" transform="translate(-175.16 -68.52)"/></g><path d="M240.29,218.62A28.17,28.17,0,0,1,224.51,214a16.29,16.29,0,0,1-2-1.55h0a5.78,5.78,0,0,1-2.13-4.4c0.07-1.86,1.3-3.79,3.67-5.73,2.58-12.9,7.57-19.9,14.84-20.82a10.2,10.2,0,0,1,5.83.85c3.82,1.82,6.73,6.37,8.66,13.51a29.22,29.22,0,0,1,.71,2.84c1.48,6.73,1,11.84-1.52,15.16-2.09,2.78-5.58,4.36-10.38,4.69Q241.25,218.62,240.29,218.62Zm-17.06-6.87a15.36,15.36,0,0,0,1.84,1.45,27.61,27.61,0,0,0,17.09,4.36c4.5-.31,7.74-1.75,9.65-4.29,2.31-3.08,2.76-7.91,1.34-14.36a28.36,28.36,0,0,0-.69-2.76h0c-1.85-6.85-4.59-11.18-8.13-12.88a9.22,9.22,0,0,0-5.27-.76c-6.83.87-11.55,7.66-14,20.2a0.49,0.49,0,0,1,0,.09l0,0.06h0l-0.07.09h0l-0.06.05c-2.22,1.8-3.37,3.52-3.44,5.11A4.84,4.84,0,0,0,223.23,211.76Z" transform="translate(-175.16 -68.52)"/><g id="Layer0_0_MEMBER_8_FILL" data-name="Layer0 0 MEMBER 8 FILL"><path class="cls-5" d="M243,229.12a19.26,19.26,0,0,1,1.95-1.7q6.9-5.65,19.45-10.25a98,98,0,0,1,22.15,11.15q1,0.7,2.05,1.4h0q2.75,1.6,4.2-.6l0-.05q0.65-1.1,1.35-2.35a4.6,4.6,0,0,1-1.75.7,4.77,4.77,0,0,1-2.9-.45l-0.55-.25a102.9,102.9,0,0,0-24.7-13.15q-14.6,5.45-21.65,12.25-0.8.75-1.5,1.55a7,7,0,0,0-.65.75,12.78,12.78,0,0,0,1.4,2.1A6.53,6.53,0,0,1,243,229.12Z" transform="translate(-175.16 -68.52)"/><path class="cls-3" d="M248.28,235.47a13.16,13.16,0,0,0,3.5-2.4,16.36,16.36,0,0,1,4.2-2.85q2.45-1.15,9.35-1.2t10.35,2q3.35,2.05,5.5,3.45a6.4,6.4,0,0,0,3.55,1.15,6.75,6.75,0,0,0,2.85-.7q2.6-1.4,5.25-5.8-1.45,2.2-4.2.6h0q-1-.7-2.05-1.4a98,98,0,0,0-22.15-11.15q-12.55,4.6-19.45,10.25a19.26,19.26,0,0,0-1.95,1.7,6.53,6.53,0,0,0-1.05,1.1,22.17,22.17,0,0,0,6.35,5.25m7.5-10.9q7.45-3.6,8.25-3.65t6.7,2.7l9.75,4.75a3.07,3.07,0,0,1,.55.3,31.69,31.69,0,0,0,4.9,2,12.3,12.3,0,0,0,2.2.45q2.45,0.2.5,1.9a5.08,5.08,0,0,1-3.45,1.5,9.23,9.23,0,0,1-3.8-1.65,54.63,54.63,0,0,0-6-3.4q-3.8-1.85-11-1.9t-11.65,3q-4.2,2.85-4.95,2.45t-1.4-.8a4,4,0,0,1-1.45-1.8,0.14,0.14,0,0,1,0-.1q1.6-1,3.9-2.25,2.9-1.6,7-3.5m15.9-38.3a25.67,25.67,0,0,0-3.2.1q-23.1,1.15-30.85,16.3a20.06,20.06,0,0,0-2.2,13.8,25.52,25.52,0,0,0,5.75,10.9q0.7-.8,1.5-1.55-0.45-.45-0.85-0.9a12.31,12.31,0,0,1-3.45-7.85,12.33,12.33,0,0,0,6,4.4,62.51,62.51,0,0,1,8.75-5.7q7.75-4.55,10.95-4.55,3.6,0,14.45,6.35,4.3,2.4,9.2,5.3a21.35,21.35,0,0,0,4.65-2.4q4.65-3.25,4.9-6.35a9.55,9.55,0,0,1-.05,3.5,13.58,13.58,0,0,1-2,4.4,17.25,17.25,0,0,1-5.2,4.7l-0.45.25a4.77,4.77,0,0,0,2.9.45q0.45-.35.95-0.7a22.46,22.46,0,0,0,6.45-9.15,28.79,28.79,0,0,0,1.15-3.95,21.48,21.48,0,0,0,.4-6.8,20.47,20.47,0,0,0-8.95-14.7q-8.25-5.85-20.8-5.85m-17.15,23.2a4,4,0,0,1-.7,2.7,9.89,9.89,0,0,1-3.35,2.6,17.56,17.56,0,0,1-4.9,1.45,4,4,0,0,1-4-1.5,13.21,13.21,0,0,1-2-3.6,8.2,8.2,0,0,1-.25-3.75,3.22,3.22,0,0,1,1.7-2.9,2.9,2.9,0,0,1,3.2.4q1.6,1.15,3.3,2.3a7.66,7.66,0,0,0,4.2,1.1q2.5,0,2.8,1.2m35.75-3.5a13.85,13.85,0,0,1-2.8,6.35,7.37,7.37,0,0,1-5.9,3.15,12.78,12.78,0,0,1-5.35-1.45q-3.4-1.75-3.25-3.9,0.1-1.8,4.05-3.1a24.62,24.62,0,0,0,5.95-2.75,24.06,24.06,0,0,1,4.35-2.55,2.57,2.57,0,0,1,2.5,1.4A4.24,4.24,0,0,1,290.28,206Z" transform="translate(-175.16 -68.52)"/><path class="cls-4" d="M264,220.92q-0.8,0-8.25,3.65-4.05,1.9-7,3.5-2.3,1.2-3.9,2.25a0.14,0.14,0,0,0,0,.1,4,4,0,0,0,1.45,1.8q0.65,0.35,1.4.8t4.95-2.45q4.4-3,11.65-3t11,1.9a54.63,54.63,0,0,1,6,3.4,9.23,9.23,0,0,0,3.8,1.65,5.08,5.08,0,0,0,3.45-1.5q2-1.7-.5-1.9a12.3,12.3,0,0,1-2.2-.45,31.69,31.69,0,0,1-4.9-2,3.07,3.07,0,0,0-.55-0.3l-9.75-4.75q-5.9-2.8-6.7-2.7m0-9.7q-3.2,0-10.95,4.55a62.51,62.51,0,0,0-8.75,5.7,12.33,12.33,0,0,1-6-4.4,12.31,12.31,0,0,0,3.45,7.85q0.4,0.45.85,0.9,7.05-6.8,21.65-12.25A102.9,102.9,0,0,1,289,226.72l0.55,0.25,0.45-.25a17.25,17.25,0,0,0,5.2-4.7,13.58,13.58,0,0,0,2-4.4,9.55,9.55,0,0,0,.05-3.5q-0.25,3.1-4.9,6.35a21.35,21.35,0,0,1-4.65,2.4q-4.9-2.9-9.2-5.3Q267.68,211.22,264.08,211.22Z" transform="translate(-175.16 -68.52)"/><path class="cls-6" d="M287.48,212.32a13.85,13.85,0,0,0,2.8-6.35,4.24,4.24,0,0,0-.45-2.85,2.57,2.57,0,0,0-2.5-1.4,24.06,24.06,0,0,0-4.35,2.55A24.62,24.62,0,0,1,277,207q-4,1.3-4.05,3.1-0.15,2.15,3.25,3.9a12.78,12.78,0,0,0,5.35,1.45,7.37,7.37,0,0,0,5.9-3.15m-33.65-.15a4,4,0,0,0,.7-2.7q-0.3-1.2-2.8-1.2a7.66,7.66,0,0,1-4.2-1.1q-1.7-1.15-3.3-2.3a2.9,2.9,0,0,0-3.2-.4,3.22,3.22,0,0,0-1.7,2.9,8.2,8.2,0,0,0,.25,3.75,13.21,13.21,0,0,0,2,3.6,4,4,0,0,0,4,1.5,17.56,17.56,0,0,0,4.9-1.45A9.89,9.89,0,0,0,253.83,212.17Z" transform="translate(-175.16 -68.52)"/></g><path d="M284.73,236.12a6.92,6.92,0,0,1-3.82-1.23c-1.41-.92-3.26-2.08-5.49-3.44s-5.67-2-10.08-1.93-7.58.42-9.15,1.15a15.92,15.92,0,0,0-4.07,2.76,13.72,13.72,0,0,1-3.64,2.49,0.5,0.5,0,0,1-.45,0,22.77,22.77,0,0,1-6.49-5.37,13.31,13.31,0,0,1-1.45-2.18,0.5,0.5,0,0,1,0-.53q0.18-.24.38-0.47a25.83,25.83,0,0,1-5.57-10.77,20.63,20.63,0,0,1,2.25-14.14c5.23-10.22,15.75-15.79,31.27-16.57a26.35,26.35,0,0,1,3.24-.1c8.42,0,15.51,2,21.07,5.94a21,21,0,0,1,9.16,15,22.1,22.1,0,0,1-.41,7,29.48,29.48,0,0,1-1.17,4,23.43,23.43,0,0,1-5.76,8.63,0.5,0.5,0,0,1,.08.6q-0.7,1.26-1.36,2.36l-0.08.1c-1.78,3-3.61,5-5.42,5.94A7.3,7.3,0,0,1,284.73,236.12Zm-18.8-7.6c4.31,0,7.68.7,10,2.07s4.09,2.53,5.52,3.46a5.59,5.59,0,0,0,5.92.42c1.62-.87,3.32-2.76,5-5.6l0.07-.1,0.56-1-0.47.1a5.28,5.28,0,0,1-3.2-.49l-0.52-.24-0.11-.06a102.92,102.92,0,0,0-24.41-13c-9.54,3.58-16.7,7.64-21.3,12.08h0c-0.52.48-1,1-1.46,1.51l0,0c-0.14.14-.27,0.29-0.39,0.43a12.75,12.75,0,0,0,1.19,1.73,21.57,21.57,0,0,0,6,5,13.12,13.12,0,0,0,3.13-2.21,16.91,16.91,0,0,1,4.32-2.93c1.72-.81,4.85-1.22,9.56-1.25h0.6Zm23.34-2.24,0.53,0.24a4.35,4.35,0,0,0,2.47.42l0.87-.64a22.07,22.07,0,0,0,6.27-8.93,28.42,28.42,0,0,0,1.13-3.87,21.11,21.11,0,0,0,.39-6.64,20.07,20.07,0,0,0-8.74-14.35c-5.39-3.82-12.29-5.76-20.51-5.76a24.91,24.91,0,0,0-3.15.1c-15.16.75-25.4,6.15-30.45,16a19.66,19.66,0,0,0-2.16,13.47,24.75,24.75,0,0,0,5.28,10.24c0.36-.39.74-0.77,1.14-1.15,4.73-4.56,12.07-8.72,21.82-12.36a0.5,0.5,0,0,1,.35,0A103.81,103.81,0,0,1,289.28,226.28Z" transform="translate(-175.16 -68.52)"/><g id="Layer0_0_MEMBER_9_FILL" data-name="Layer0 0 MEMBER 9 FILL"><path class="cls-7" d="M251.58,192.27a9,9,0,0,0,.75,3.45,9.33,9.33,0,0,1,4.25-2.75,21.57,21.57,0,0,1,3.35-1,1.89,1.89,0,0,1-.1-0.6,9.13,9.13,0,0,1,1-5.95q-0.85.2-1.7,0.45-7.5,2.3-7.5,6.35m23.15,0.7a7.16,7.16,0,0,1,4.4,4.45q5.5-5.2,5.4-7.8-0.2-2.9-6.15-4.45-0.8-.2-1.6-0.35a12.06,12.06,0,0,1-1.8,5.35,14.66,14.66,0,0,1-1.7,2.3A10.63,10.63,0,0,1,274.73,193Z" transform="translate(-175.16 -68.52)"/><path class="cls-9" d="M275,190.17a12.06,12.06,0,0,0,1.8-5.35,31.83,31.83,0,0,0-6.45-.65,36.4,36.4,0,0,0-9.55,1.3,9.13,9.13,0,0,0-1,5.95,1.89,1.89,0,0,0,.1.6,5.18,5.18,0,0,0,3.15,3.9q2.75,1.2,6.4-.65a13.71,13.71,0,0,0,3.8-2.8A14.66,14.66,0,0,0,275,190.17Z" transform="translate(-175.16 -68.52)"/><path class="cls-5" d="M279.13,197.42a7.16,7.16,0,0,0-4.4-4.45,10.63,10.63,0,0,0-1.45-.5,13.71,13.71,0,0,1-3.8,2.8q-3.65,1.85-6.4.65a5.18,5.18,0,0,1-3.15-3.9,21.57,21.57,0,0,0-3.35,1,9.33,9.33,0,0,0-4.25,2.75,17,17,0,0,0,3.35,4.85,12.86,12.86,0,0,0,9.6,4.3q5.45-.05,12.45-6.2Q278.43,198,279.13,197.42Z" transform="translate(-175.16 -68.52)"/></g><path d="M265.29,205.37a13.4,13.4,0,0,1-10-4.45,17.55,17.55,0,0,1-3.45-5h0a9.5,9.5,0,0,1-.79-3.64c0-2.93,2.64-5.23,7.85-6.83,0.58-.17,1.15-0.32,1.72-0.46a35.13,35.13,0,0,1,16.22-.66q0.81,0.15,1.63.36c4.24,1.11,6.38,2.71,6.53,4.9,0.07,1.92-1.74,4.59-5.55,8.19h0q-0.69.59-1.38,1.24C273.33,203.21,269,205.33,265.29,205.37Zm-12.49-9.84a16.58,16.58,0,0,0,3.25,4.7,12.43,12.43,0,0,0,9.24,4.14c3.49,0,7.57-2.08,12.12-6.08,0.46-.43.93-0.84,1.4-1.25,4.4-4.16,5.28-6.33,5.24-7.41-0.12-1.67-2.06-3-5.78-4l-1-.23a13.94,13.94,0,0,1-1.83,5,15.21,15.21,0,0,1-1.77,2.4,14.28,14.28,0,0,1-3.94,2.91c-2.56,1.3-4.86,1.52-6.83.66a5.67,5.67,0,0,1-3.43-4.23,2.39,2.39,0,0,1-.12-0.73,9.8,9.8,0,0,1,.54-5.2l-0.65.18c-4.74,1.45-7.14,3.43-7.14,5.87A8.51,8.51,0,0,0,252.8,195.53Zm7.63-3.6a4.67,4.67,0,0,0,2.86,3.54c1.68,0.73,3.69.52,6-.64a13.28,13.28,0,0,0,3.66-2.7,14.26,14.26,0,0,0,1.64-2.22,12.86,12.86,0,0,0,1.71-4.69,34.18,34.18,0,0,0-15.14.67,8.74,8.74,0,0,0-.79,5.45,1.67,1.67,0,0,0,.08.51v0.07Z" transform="translate(-175.16 -68.52)"/><g id="Layer0_0_MEMBER_10_FILL" data-name="Layer0 0 MEMBER 10 FILL"><path class="cls-10" d="M281.58,168.17a27.15,27.15,0,0,0,1.3-9.05q-11.52-22.14-28.8,0a40.28,40.28,0,0,0,.15,7.25,26,26,0,0,0,.6,3.35,62.41,62.41,0,0,0,5.75,18.4q4.22,3.9,6.35,3.6t6-3.45Q278,181.81,281.58,168.17Z" transform="translate(-175.16 -68.52)"/></g><path d="M266.64,192.24c-1.57,0-3.67-1.23-6.4-3.75a0.5,0.5,0,0,1,.68-0.73c3.34,3.09,5.09,3.59,6,3.47,1.34-.18,3.25-1.31,5.67-3.34a0.5,0.5,0,1,1,.64.77c-2.61,2.18-4.63,3.35-6.18,3.56Z" transform="translate(-175.16 -68.52)"/><g id="Layer0_0_MEMBER_10_MEMBER_0_FILL" data-name="Layer0 0 MEMBER 10 MEMBER 0 FILL"><path d="M278,162.42a21.42,21.42,0,0,0-3.05-.6q-1.8-.25-5.4,6.05,4.85-3.3,5.1-3.35,1.1-.45,4.4.7,0.15-2.5-1-2.8m-4.6,4.9a3.29,3.29,0,0,1,3.75.6q-0.95-2.2-2.15-2a6.38,6.38,0,0,0-4.65,3.1,0.76,0.76,0,0,0-.15.4,10.66,10.66,0,0,1,3.2-2.1m-14.2-1.4q-1.2-.2-2.15,2a3.24,3.24,0,0,1,3.75-.6,11.36,11.36,0,0,1,3.2,2.1,0.76,0.76,0,0,0-.15-0.4,6.38,6.38,0,0,0-4.65-3.1m0.3-4.1a27.26,27.26,0,0,0-3,.6q-1.22.32-1.05,2.8,3.28-1.15,4.4-.7,0.24,0.05,5.1,3.35-3.61-6.31-5.45-6.05m9.7,21.15q-0.4,0-1.7.3a6.6,6.6,0,0,1-3.2-.5q2,2.65,4.9.2m0.8-1.3a5.7,5.7,0,0,0,1.95-.15,28,28,0,0,0-3.9-1,2,2,0,0,0-1.3.6,2.25,2.25,0,0,0-2.25-.65q-1.15.3-3,.85,3.75-.45,4.4.1a1,1,0,0,0,1.2.2,1.43,1.43,0,0,1,.9-0.3l0.7,0.15a7.32,7.32,0,0,0,1.25.2m-3.55-13q-1.05,5.35-2.5,7.55a1.15,1.15,0,0,0-.05.55l1.2,1.1q1.55,1.4,2.65.6a9.28,9.28,0,0,0,2-2.2q-2.4,1.35-3.05,1.1a3.88,3.88,0,0,1-1.4-1.15,24,24,0,0,0,1.15-7.55m0.75,20.35q-0.15-.95-0.6-2.7a8.56,8.56,0,0,0-1.2,2.5,7.6,7.6,0,0,1-1-2.15,6.49,6.49,0,0,0-.05,6.2l0.85-.65a4.37,4.37,0,0,0,.7,2.1,5.89,5.89,0,0,0,1.35-1.7l0.3-.55q0.1,0.4.25,1.05a9.6,9.6,0,0,0,1.55-6.5A6,6,0,0,0,267.23,189.07Z" transform="translate(-175.16 -68.52)"/><path class="cls-1" d="M274.18,169.57a5.86,5.86,0,0,0,3-1.65,3.29,3.29,0,0,0-3.75-.6,10.66,10.66,0,0,0-3.2,2.1,0.78,0.78,0,0,1-.15.2h0.1a0.86,0.86,0,0,1,.35.05,7.58,7.58,0,0,0,3.65-.1m-17.1-1.65a5.86,5.86,0,0,0,3,1.65,7.58,7.58,0,0,0,3.65.1,0.86,0.86,0,0,1,.35-0.05h0.1a0.78,0.78,0,0,1-.15-0.2,11.36,11.36,0,0,0-3.2-2.1A3.24,3.24,0,0,0,257.08,167.92Z" transform="translate(-175.16 -68.52)"/></g><g id="Layer0_0_MEMBER_10_MEMBER_0_MEMBER_0_FILL" data-name="Layer0 0 MEMBER 10 MEMBER 0 MEMBER 0 FILL"><path d="M261.71,167.43a1.32,1.32,0,1,0,.38.93A1.27,1.27,0,0,0,261.71,167.43Z" transform="translate(-175.16 -68.52)"/></g><g id="Layer0_0_MEMBER_10_MEMBER_0_MEMBER_1_FILL" data-name="Layer0 0 MEMBER 10 MEMBER 0 MEMBER 1 FILL"><path d="M274.6,168.36a1.31,1.31,0,1,0-.38.93A1.27,1.27,0,0,0,274.6,168.36Z" transform="translate(-175.16 -68.52)"/></g><g id="Layer0_0_MEMBER_10_MEMBER_1_FILL" data-name="Layer0 0 MEMBER 10 MEMBER 1 FILL"><path class="cls-5" d="M276.53,175.92q3-3.79,3-6.1l0.35-.3a3.46,3.46,0,0,1-.4.3q-0.63.45-1.3,0.9l-2,1.3-2.8,1.5-2.1,1q3.75,5.9,1.6,13.75a25.09,25.09,0,0,0,4.95-3.7,22.77,22.77,0,0,0-1.3-8.65m4.15-16.75a0.6,0.6,0,0,0,.15-0.15l0.5-.45a18.62,18.62,0,0,1,1.5-1.25l2.7-3a19.55,19.55,0,0,0-1.5-4.55,41.48,41.48,0,0,1-12.55,10.55l-3.75-5.8-4.35,5.65a40.77,40.77,0,0,1-9.85-8.45,31.64,31.64,0,0,0-1.25,3.4q-0.27,1-.45,2.05l2.25,1.85a57.45,57.45,0,0,0,13.2,7.8,38.2,38.2,0,0,0,13.4-7.65m-25.85,10.55a11.07,11.07,0,0,0,2.7,5.85,36.61,36.61,0,0,0-1.4,8.95,15.21,15.21,0,0,0,4.45,3.6q-1.55-8.2,1.6-13.7v-0.05l-1.3-.7A54.55,54.55,0,0,1,254.83,169.72Z" transform="translate(-175.16 -68.52)"/><path class="cls-3" d="M285.83,161.52a21,21,0,0,0-.3-7.2l-2.7,3a18.62,18.62,0,0,0-1.5,1.25l-0.5.45a0.6,0.6,0,0,1-.15.15,30.07,30.07,0,0,1-1.2,10.65,3.46,3.46,0,0,0,.4-0.3l-0.35.3q0,2.31-3,6.1a22.77,22.77,0,0,1,1.3,8.65,7.4,7.4,0,0,0,1.85-2.65,4,4,0,0,0,.15-0.5l1.2-3.2a114.91,114.91,0,0,0,4.2-13.6,18,18,0,0,0,.45-1.95q0.1-.57.15-1.15m-28.3,14a11.07,11.07,0,0,1-2.7-5.85,26,26,0,0,1-.6-3.35,40.76,40.76,0,0,1-.15-7.35l-2.25-1.85a27.38,27.38,0,0,0-.4,5.45,0.27,0.27,0,0,1,0,.15,137.17,137.17,0,0,0,3.8,20.45,12.56,12.56,0,0,0,.9,1.3,36.61,36.61,0,0,1,1.4-8.95m2.1-32.2a26.23,26.23,0,0,0-6.1,8.35,40.77,40.77,0,0,0,9.85,8.45l4.35-5.65,3.75,5.8A41.48,41.48,0,0,0,284,149.77a21.37,21.37,0,0,0-1.75-3.15q-5.27-6.91-12.05-7a17,17,0,0,0-9.35,2.75q-0.65.5-1.25,1m6.1,0.25a5.73,5.73,0,0,1,3.8-1.55,8.84,8.84,0,0,1,5.55,1.75,11.69,11.69,0,0,1,4,3.7,3.33,3.33,0,0,1,.4,3,2.55,2.55,0,0,1-2.35,1.45,3.24,3.24,0,0,1-2.85-1,9.1,9.1,0,0,0-2.6-1.8q-2.3-.45-3.55-0.8a4,4,0,0,1-2.95-2A2.45,2.45,0,0,1,265.73,143.62Z" transform="translate(-175.16 -68.52)"/><path class="cls-6" d="M269.53,142.07a5.73,5.73,0,0,0-3.8,1.55,2.45,2.45,0,0,0-.6,2.8,4,4,0,0,0,2.95,2q1.25,0.35,3.55.8a9.1,9.1,0,0,1,2.6,1.8,3.24,3.24,0,0,0,2.85,1,2.55,2.55,0,0,0,2.35-1.45,3.33,3.33,0,0,0-.4-3,11.69,11.69,0,0,0-4-3.7A8.84,8.84,0,0,0,269.53,142.07Z" transform="translate(-175.16 -68.52)"/></g><path d="M272.88,188.77a0.5,0.5,0,0,1-.48-0.63c1.39-5.07.87-9.56-1.54-13.35a0.5,0.5,0,0,1,.21-0.72l2.1-1,2.78-1.49,2-1.28,1.17-.79a29.63,29.63,0,0,0,1.15-9.27,39.61,39.61,0,0,1-12.79,7.05,0.5,0.5,0,0,1-.35,0A57.57,57.57,0,0,1,254.53,160a39.2,39.2,0,0,0,.2,6.32,25.72,25.72,0,0,0,.55,3.12,54.86,54.86,0,0,0,5.85,3.81l1.29,0.69a0.5,0.5,0,0,1,.26.44,0.71,0.71,0,0,1-.07.3c-2,3.54-2.55,8-1.54,13.36a0.5,0.5,0,0,1-.73.53,15.64,15.64,0,0,1-4.57-3.7,13,13,0,0,1-1-1.38,0.5,0.5,0,0,1-.06-0.14A135.58,135.58,0,0,1,251,162.83c0-.09,0-0.16,0-0.23a26.29,26.29,0,0,1,.38-5.49c0.12-.71.28-1.42,0.46-2.11a27.76,27.76,0,0,1,1.3-3.45h0A26.44,26.44,0,0,1,259.3,143c0.43-.36.85-0.69,1.29-1a17.5,17.5,0,0,1,9.63-2.87h0c4.67,0.06,8.86,2.48,12.47,7.2a25.58,25.58,0,0,1,1.81,3.24,21.89,21.89,0,0,1,1.54,4.66,22.46,22.46,0,0,1,.31,7.36c-0.05.4-.11,0.79-0.18,1.17s-0.23,1.21-.43,2a119.82,119.82,0,0,1-4.24,13.63q-0.6,1.59-1.17,3.21l-0.18.48a8.13,8.13,0,0,1-2,2.85,26.36,26.36,0,0,1-5,3.75A0.5,0.5,0,0,1,272.88,188.77Zm-0.88-14a16.73,16.73,0,0,1,1.66,12.47,22.88,22.88,0,0,0,3.82-3,7.16,7.16,0,0,0,1.73-2.49l0.18-.48q0.57-1.62,1.18-3.23a118.67,118.67,0,0,0,4.21-13.52c0.2-.77.34-1.42,0.42-1.93s0.12-.76.17-1.14a21.47,21.47,0,0,0-.29-7,20.89,20.89,0,0,0-1.47-4.45,24.66,24.66,0,0,0-1.71-3.08c-3.39-4.42-7.32-6.71-11.66-6.77h0a16.5,16.5,0,0,0-9.06,2.7c-0.4.29-.81,0.61-1.2,0.94A25.42,25.42,0,0,0,254,152h0a26.71,26.71,0,0,0-1.25,3.31c-0.17.65-.32,1.33-0.44,2a25.51,25.51,0,0,0-.37,5.32c0,0.08,0,.13,0,0.17A134.34,134.34,0,0,0,255.7,183a12,12,0,0,0,.85,1.21,13.91,13.91,0,0,0,3.36,2.9c-0.76-4.9-.21-9.12,1.62-12.56l-0.88-.47a55.26,55.26,0,0,1-6.12-4,0.5,0.5,0,0,1-.18-0.28,26.53,26.53,0,0,1-.61-3.41,41.4,41.4,0,0,1-.15-7.44,0.5,0.5,0,0,1,.81-0.36,57.35,57.35,0,0,0,12.91,7.66,38.07,38.07,0,0,0,13.08-7.49,0.51,0.51,0,0,1,.53-0.09,0.5,0.5,0,0,1,.3.44A31.49,31.49,0,0,1,280,170a0.5,0.5,0,0,1-.19.26l-1.33.9-2,1.3L273.62,174Zm-18.44-23h0Z" transform="translate(-175.16 -68.52)"/><g id="Layer0_0_MEMBER_11_FILL" data-name="Layer0 0 MEMBER 11 FILL"><path class="cls-2" d="M310.38,212.72a4,4,0,0,1,2.1.95,6.07,6.07,0,0,1,1.8,2.05,17.66,17.66,0,0,0-2.95-9.05h-18.5q4.1,16.7,7,25.35,0.4,1.2.85,2.4a66.28,66.28,0,0,0,3.45,7.9,50.4,50.4,0,0,0,2.65,4.6l1.55,0.4a0.31,0.31,0,0,0,.15,0,46.51,46.51,0,0,1-2.65-7.95,58.57,58.57,0,0,1-1.6-13.45,23.33,23.33,0,0,1,1.6-9Q307.63,212.72,310.38,212.72Z" transform="translate(-175.16 -68.52)"/><path class="cls-1" d="M313.68,221.22a18.43,18.43,0,0,0,.6-5.1,1.25,1.25,0,0,0,0-.4,6.07,6.07,0,0,0-1.8-2.05,4,4,0,0,0-2.1-.95q-2.75,0-4.5,4.2a23.33,23.33,0,0,0-1.6,9,58.57,58.57,0,0,0,1.6,13.45,46.51,46.51,0,0,0,2.65,7.95,6.18,6.18,0,0,0,.9.15q1.05,0.15,2,.2h0.05a13.52,13.52,0,0,0,2.1-.15,6.53,6.53,0,0,0,5.3-4.8q-0.2-2.2-.5-4.2-0.5-3.3-1.2-6.25a52.05,52.05,0,0,0-3.6-10.6Q313.63,221.42,313.68,221.22Z" transform="translate(-175.16 -68.52)"/></g><path d="M311.48,248.17c-0.72,0-1.41-.1-2.12-0.2a8.66,8.66,0,0,1-.9-0.13,0.6,0.6,0,0,1-.17,0l-1.58-.41a0.5,0.5,0,0,1-.3-0.21,50.82,50.82,0,0,1-2.68-4.65,67,67,0,0,1-3.47-8q-0.45-1.2-.85-2.41c-2-5.75-4.34-14.29-7.06-25.39a0.5,0.5,0,0,1,.49-0.62h18.5a0.5,0.5,0,0,1,.42.23,18.44,18.44,0,0,1,3.05,9.3,0.5,0.5,0,0,1,0,.22,0.51,0.51,0,0,1,0,.19,19.74,19.74,0,0,1-.64,5.23l-0.06.26a53,53,0,0,1,3.56,10.55c0.47,2,.87,4.09,1.21,6.29,0.2,1.33.37,2.76,0.5,4.23a0.5,0.5,0,0,1,0,.2,7,7,0,0,1-5.68,5.14A14.08,14.08,0,0,1,311.48,248.17Zm-4.34-1.69,1.37,0.35h0.09a8.85,8.85,0,0,0,.88.13c0.71,0.1,1.36.17,2,.2a13.25,13.25,0,0,0,2-.14,6,6,0,0,0,4.87-4.36c-0.13-1.42-.29-2.78-0.49-4.07-0.33-2.17-.73-4.26-1.19-6.21a51.85,51.85,0,0,0-3.57-10.5,0.5,0.5,0,0,1,0-.31c0-.18.07-0.33,0.11-0.47a18.75,18.75,0,0,0,.61-5,0.48,0.48,0,0,0,0-.39,17.38,17.38,0,0,0-2.75-8.57H293.47c2.65,10.77,5,19.07,6.89,24.69q0.4,1.2.85,2.39a66.08,66.08,0,0,0,3.43,7.84A50.31,50.31,0,0,0,307.15,246.48Z" transform="translate(-175.16 -68.52)"/><g id="Layer0_0_MEMBER_12_FILL" data-name="Layer0 0 MEMBER 12 FILL"><path class="cls-7" d="M298.93,222.12a11.08,11.08,0,0,1,2.55-.45q-0.7-.6-1.4-1.3a21.07,21.07,0,0,1-4.5-6.45q-2.1.8-4,1.75a81,81,0,0,0,5.35,8.95A3.7,3.7,0,0,1,298.93,222.12Z" transform="translate(-175.16 -68.52)"/><path class="cls-4" d="M316.88,217l-0.6-1.4q-2-4.4-3.45-5.7a65.82,65.82,0,0,0-17.25,4,21.07,21.07,0,0,0,4.5,6.45q0.7,0.7,1.4,1.3,1.35-.1,3.45-0.2A19.64,19.64,0,0,0,316.88,217Z" transform="translate(-175.16 -68.52)"/><path class="cls-5" d="M318.73,222.72a13.14,13.14,0,0,1-1.25,1.35,8.13,8.13,0,0,1-5.65,1.85,15.35,15.35,0,0,1-10.35-4.25,11.08,11.08,0,0,0-2.55.45,3.7,3.7,0,0,0-2,2.5,24.83,24.83,0,0,0,3.5,4q4.1,3.55,11.15,3.55a7.68,7.68,0,0,0,6-2.5q2-2.2,1.35-5.95Z" transform="translate(-175.16 -68.52)"/><path class="cls-3" d="M317.48,224.07a13.14,13.14,0,0,0,1.25-1.35,32.3,32.3,0,0,0-1.85-5.7,19.64,19.64,0,0,1-11.95,4.45q-2.1.1-3.45,0.2a15.35,15.35,0,0,0,10.35,4.25A8.13,8.13,0,0,0,317.48,224.07Z" transform="translate(-175.16 -68.52)"/></g><path d="M311.58,232.67c-4.8,0-8.66-1.24-11.48-3.67a25.37,25.37,0,0,1-3.58-4.08h0a81.83,81.83,0,0,1-5.38-9,0.5,0.5,0,0,1,.22-0.68c1.27-.64,2.63-1.23,4-1.77a66.64,66.64,0,0,1,17.38-4,0.51,0.51,0,0,1,.38.12c1.07,0.92,2.24,2.85,3.58,5.88l0.6,1.4h0a32.91,32.91,0,0,1,1.88,5.79h0l0.2,1c0.46,2.66,0,4.8-1.47,6.38A8.19,8.19,0,0,1,311.58,232.67Zm-14.24-8.34a24.44,24.44,0,0,0,3.42,3.92c2.62,2.27,6.27,3.43,10.82,3.43a7.14,7.14,0,0,0,5.63-2.33c1.24-1.36,1.64-3.17,1.23-5.53l-0.2-1a31.9,31.9,0,0,0-1.82-5.61l-0.6-1.4a18.6,18.6,0,0,0-3.16-5.38,65.46,65.46,0,0,0-16.9,3.94h0c-1.21.46-2.39,1-3.49,1.5A79,79,0,0,0,297.34,224.33Z" transform="translate(-175.16 -68.52)"/><g id="Layer0_0_MEMBER_13_FILL" data-name="Layer0 0 MEMBER 13 FILL"><path class="cls-3" d="M289.78,188.72a2,2,0,0,1,.25-0.3q3.45-3.75,7.3-3.75a6.92,6.92,0,0,1,1.75.25,2.52,2.52,0,0,1,1.85,1.25,2.84,2.84,0,0,1-.25,2.2,21.62,21.62,0,0,1-1.6,2.75,21.88,21.88,0,0,0-2.1,4.65,19.38,19.38,0,0,0-1.15,6.5q0,6,1.5,8.9,0.45,0.8.95,1.55a22.44,22.44,0,0,0,8.9-.75q14.1-3.5,8.2-9.35-3.8-19.25-14.45-20.6-7-.95-11.15,6.7m14.85,0.5q0.85-1.6,2.25-1t3.35,5.1A17.59,17.59,0,0,1,312,201q-0.2,3.2-3.95,3.2a3.42,3.42,0,0,1-3.55-2.15,12.2,12.2,0,0,1-.9-4.2q0-2.1,0-2.35v-0.8a13,13,0,0,1,0-1.45q0,0.1,0,2.15l0.15-1.55A9.53,9.53,0,0,1,304.63,189.22Z" transform="translate(-175.16 -68.52)"/><path class="cls-11" d="M303.58,195.37q0-2.05,0-2.15a13,13,0,0,0,0,1.45v0.7Z" transform="translate(-175.16 -68.52)"/><path class="cls-6" d="M306.88,188.22q-1.4-.6-2.25,1a9.53,9.53,0,0,0-.9,4.6l-0.15,1.55v0.1q0,0.25,0,2.35a12.2,12.2,0,0,0,.9,4.2,3.42,3.42,0,0,0,3.55,2.15q3.75,0,3.95-3.2a17.59,17.59,0,0,0-1.8-7.65Q308.23,188.82,306.88,188.22Z" transform="translate(-175.16 -68.52)"/><path class="cls-7" d="M287,196a28.62,28.62,0,0,0-.7,2.8q-4,18.2,11.45,19.25a32.68,32.68,0,0,0,7.5-.45,13.66,13.66,0,0,1-6.95-4.9q-5.25-.9-5.3-6.5Q286,208.72,287,196Z" transform="translate(-175.16 -68.52)"/><path class="cls-4" d="M289.78,188.72A32.75,32.75,0,0,0,287,196q-0.95,12.7,6,10.2,0.05,5.6,5.3,6.5-0.5-.75-0.95-1.55-1.5-2.9-1.5-8.9a19.38,19.38,0,0,1,1.15-6.5,21.88,21.88,0,0,1,2.1-4.65,21.62,21.62,0,0,0,1.6-2.75,2.84,2.84,0,0,0,.25-2.2,2.52,2.52,0,0,0-1.85-1.25,6.92,6.92,0,0,0-1.75-.25q-3.85,0-7.3,3.75A2,2,0,0,0,289.78,188.72Z" transform="translate(-175.16 -68.52)"/><path class="cls-5" d="M315.13,213.62q7.65-5,.25-11,5.9,5.85-8.2,9.35a22.44,22.44,0,0,1-8.9.75,13.66,13.66,0,0,0,6.95,4.9A26.73,26.73,0,0,0,315.13,213.62Z" transform="translate(-175.16 -68.52)"/></g><path d="M299.54,218.62q-0.91,0-1.83,0c-4.81-.33-8.31-1.9-10.39-4.69-2.49-3.32-3-8.43-1.52-15.17,0.2-1,.44-2,0.71-2.84a33.33,33.33,0,0,1,2.84-7.39c2.83-5.27,6.74-7.62,11.66-7,7.27,0.92,12.26,7.93,14.84,20.82,2.54,2.1,3.78,4.17,3.68,6.16s-1.48,3.81-4.11,5.53a27.35,27.35,0,0,1-10.08,4.07h0A32.65,32.65,0,0,1,299.54,218.62Zm-0.14-36.2c-3.81,0-6.82,2.15-9.17,6.54a32.43,32.43,0,0,0-2.76,7.19c-0.27.86-.5,1.79-0.69,2.77-1.42,6.46-1,11.29,1.34,14.37,1.9,2.54,5.15,4,9.65,4.29a32.18,32.18,0,0,0,7.38-.44,26.36,26.36,0,0,0,9.71-3.93c2.35-1.53,3.58-3.13,3.66-4.74s-1.07-3.52-3.45-5.45l-0.07-.07h0l0-.06h0l0-.07h0a0.5,0.5,0,0,1,0-.1c-2.48-12.54-7.19-19.33-14-20.2A11.08,11.08,0,0,0,299.4,182.41Z" transform="translate(-175.16 -68.52)"/><g id="Layer0_0_MEMBER_14_FILL" data-name="Layer0 0 MEMBER 14 FILL"><path class="cls-7" d="M226,251.77a4.21,4.21,0,0,1-3.8.9,13.91,13.91,0,0,1-5.65-2.75,15.84,15.84,0,0,0,3.1,3.2,9.86,9.86,0,0,0,6,1.8,6.37,6.37,0,0,0,3.7-1.1A16.74,16.74,0,0,1,226,251.77Z" transform="translate(-175.16 -68.52)"/><path class="cls-5" d="M228.28,242.67a24.05,24.05,0,0,1-1.35,7.7,4.22,4.22,0,0,1-.9,1.4,16.74,16.74,0,0,0,3.35,2.05,7.86,7.86,0,0,0,1.7-1.9,10.93,10.93,0,0,0,1.75-6.25,17,17,0,0,0-3.3-9.9,31.06,31.06,0,0,0-5.35-5.7q1,1.55,1.85,3.2A18.12,18.12,0,0,1,228.28,242.67Z" transform="translate(-175.16 -68.52)"/><path class="cls-4" d="M213.58,216.92a4.91,4.91,0,0,1,1.05-1.6l-0.7-1.2q-1.2-2.15-2-3.55l-9.9,4.1q3.55,9.75,4.4,12.95t2.25,8.7a26.61,26.61,0,0,0,4,9.15,24.81,24.81,0,0,0,3.8,4.45,13.91,13.91,0,0,0,5.65,2.75,4.21,4.21,0,0,0,3.8-.9q-4.65-3.55-8.2-10.85-5.25-10.75-5.25-19.5A10.33,10.33,0,0,1,213.58,216.92Z" transform="translate(-175.16 -68.52)"/><path class="cls-3" d="M214.63,215.32a4.91,4.91,0,0,0-1.05,1.6,10.33,10.33,0,0,0-1,4.5q0,8.75,5.25,19.5,3.55,7.3,8.2,10.85a4.22,4.22,0,0,0,.9-1.4,24.05,24.05,0,0,0,1.35-7.7,18.12,18.12,0,0,0-2.25-9.4q-0.9-1.65-1.85-3.2a65.47,65.47,0,0,0-3.85-5.85A89.52,89.52,0,0,1,214.63,215.32Z" transform="translate(-175.16 -68.52)"/></g><path d="M225.69,255.42a10.39,10.39,0,0,1-6.3-1.9,16.31,16.31,0,0,1-3.16-3.25,25.87,25.87,0,0,1-3.85-4.51,27.23,27.23,0,0,1-4.13-9.32c-0.93-3.68-1.68-6.6-2.25-8.69s-2-6.46-4.39-12.91a0.5,0.5,0,0,1,.28-0.63l9.9-4.1a0.5,0.5,0,0,1,.63.23q0.75,1.4,1.95,3.54l0.7,1.19a89.37,89.37,0,0,0,5.67,8.86,66.44,66.44,0,0,1,3.84,5.82,31.6,31.6,0,0,1,5.37,5.74,17.52,17.52,0,0,1,3.39,10.19,11.47,11.47,0,0,1-1.84,6.53,8.37,8.37,0,0,1-1.8,2h0l0,0A6.89,6.89,0,0,1,225.69,255.42Zm-6.32-3.2q0.31,0.27.62,0.5a9.41,9.41,0,0,0,5.7,1.7,5.91,5.91,0,0,0,3.4-1,7.4,7.4,0,0,0,1.58-1.77,10.49,10.49,0,0,0,1.67-6,16.54,16.54,0,0,0-3.21-9.61,26.57,26.57,0,0,0-2.83-3.35l0.18,0.33a18.7,18.7,0,0,1,2.31,9.66,24.63,24.63,0,0,1-1.38,7.86,4.75,4.75,0,0,1-1,1.57h0a4.69,4.69,0,0,1-4.23,1A10.77,10.77,0,0,1,219.37,252.22Zm-2.47-2.7a13.48,13.48,0,0,0,5.43,2.65,3.28,3.28,0,0,0,4.15-2,23.69,23.69,0,0,0,1.31-7.53,17.71,17.71,0,0,0-2.19-9.14c-0.59-1.08-1.2-2.14-1.83-3.16l0,0a65.46,65.46,0,0,0-3.81-5.79,90.4,90.4,0,0,1-5.73-9l-0.7-1.19q-1-1.87-1.74-3.17l-9,3.74c2.26,6.23,3.69,10.45,4.25,12.54s1.32,5,2.25,8.71a26.23,26.23,0,0,0,4,9,24.86,24.86,0,0,0,3.68,4.33h0Zm9.14,2.25h0Z" transform="translate(-175.16 -68.52)"/><g id="Layer0_0_MEMBER_15_FILL" data-name="Layer0 0 MEMBER 15 FILL"><path class="cls-3" d="M213.93,219.92a14.84,14.84,0,0,0,.7-3.75,40.19,40.19,0,0,0,0-5.55q-0.1-4-4.25-6.5a62.58,62.58,0,0,0-6.8-3.8,18.86,18.86,0,0,0-3.15,7.05,31.56,31.56,0,0,0-1,10.35,15.72,15.72,0,0,0,2.75,8.35,35.39,35.39,0,0,0,6.35-2.2Q213.23,221.92,213.93,219.92Z" transform="translate(-175.16 -68.52)"/><path class="cls-5" d="M203.63,200.32a13.63,13.63,0,0,0-1.4-.65q-3.95-2-6.25,4.85a34.46,34.46,0,0,0-1.55,13.2q0.6,6.2,2.85,7.45a7.42,7.42,0,0,0,4.4.95,2.54,2.54,0,0,0,.5-0.05,15.72,15.72,0,0,1-2.75-8.35,31.56,31.56,0,0,1,1-10.35A18.86,18.86,0,0,1,203.63,200.32Z" transform="translate(-175.16 -68.52)"/></g><path d="M200.92,226.66a8.25,8.25,0,0,1-3.87-1.05c-1.68-.93-2.69-3.49-3.11-7.84a35.12,35.12,0,0,1,1.57-13.4c1-3,2.24-4.75,3.77-5.38a3.73,3.73,0,0,1,3.18.23,13.63,13.63,0,0,1,1.41.65,63.36,63.36,0,0,1,6.84,3.82c2.9,1.75,4.41,4.07,4.48,6.91a40.22,40.22,0,0,1-.05,5.62,15.28,15.28,0,0,1-.72,3.84c-0.53,1.51-2.39,2.9-5.69,4.27a36,36,0,0,1-6.44,2.23h0a3,3,0,0,1-.6.06A6.44,6.44,0,0,1,200.92,226.66Zm-0.37-26.93a2.31,2.31,0,0,0-.89.18c-1.23.51-2.3,2.11-3.2,4.77a34.11,34.11,0,0,0-1.53,13c0.38,3.94,1.25,6.31,2.59,7.06a7,7,0,0,0,4.1.89,2.5,2.5,0,0,0,.46,0h0a35.1,35.1,0,0,0,6.25-2.17c3.72-1.54,4.84-2.84,5.13-3.66a14.37,14.37,0,0,0,.67-3.6,40.18,40.18,0,0,0,.05-5.51c-0.06-2.51-1.37-4.5-4-6.09a62.36,62.36,0,0,0-6.76-3.78h0a13.22,13.22,0,0,0-1.34-.62A3.4,3.4,0,0,0,200.55,199.73Z" transform="translate(-175.16 -68.52)"/><g id="Layer0_0_MEMBER_16_MEMBER_0_FILL" data-name="Layer0 0 MEMBER 16 MEMBER 0 FILL"><path class="cls-12" d="M216.88,140l5.35-21.15a14.88,14.88,0,0,1,5.9,3.7,227.81,227.81,0,0,0-7.35-54,225.45,225.45,0,0,0-18.1,51.4,14.45,14.45,0,0,1,6.25-2.4l1,21.9,7,0.55m10.35-19.55a21.85,21.85,0,0,0-5.75-3l-5.2,21.45-5.45-.5-0.95-22a13.24,13.24,0,0,0-5.8,1.7,236.08,236.08,0,0,1,16.45-46.65A281,281,0,0,1,227.23,120.42Z" transform="translate(-175.16 -68.52)"/><path class="cls-13" d="M221.48,117.42a21.85,21.85,0,0,1,5.75,3,281,281,0,0,0-6.7-49,236.08,236.08,0,0,0-16.45,46.65,13.24,13.24,0,0,1,5.8-1.7l0.95,22,5.45,0.5,5.2-21.45m4.8,1.25a19.18,19.18,0,0,0-5.5-2.4l-5.35,21.4-3.65-.35-1.15-22a16.32,16.32,0,0,0-5.35,1.25,246.28,246.28,0,0,1,14.9-42A363.65,363.65,0,0,1,226.28,118.67Z" transform="translate(-175.16 -68.52)"/><path class="cls-14" d="M220.78,116.27a19.18,19.18,0,0,1,5.5,2.4,363.65,363.65,0,0,0-6.1-44.15,246.28,246.28,0,0,0-14.9,42,16.32,16.32,0,0,1,5.35-1.25l1.15,22,3.65,0.35,5.35-21.4m4.35,0.65a21,21,0,0,0-5-2l-5.35,21.65-2-.15-1.15-22.25a12.24,12.24,0,0,0-4.9,1,221.79,221.79,0,0,1,13-36.9q3.8,20.4,5.4,38.7m-7.65-5.55a11.78,11.78,0,0,1,4,.8q-0.9-10-3-23.2a133.67,133.67,0,0,0-7.9,22.2,17,17,0,0,1,4.15,0l0.55,10.2Z" transform="translate(-175.16 -68.52)"/><path class="cls-15" d="M220.13,114.92a21,21,0,0,1,5,2q-1.6-18.3-5.4-38.7a221.79,221.79,0,0,0-13,36.9,12.24,12.24,0,0,1,4.9-1l1.15,22.25,2,0.15,5.35-21.65m3.8,0.4a23.38,23.38,0,0,0-4.7-1.6l-5.3,21.8h0l-1.3-22.4a29,29,0,0,0-4.6.55,190,190,0,0,1,11.35-31.8q3.2,17.9,4.6,33.45m-5.55-2.8a12.61,12.61,0,0,1,4.35,1.35q-1.05-12.95-3.8-28.55a165,165,0,0,0-9.8,27.2,16,16,0,0,1,4.6-.35l0.75,17,3.9-16.7m3.1-.35a11.78,11.78,0,0,0-4-.8l-2.2,10-0.55-10.2a17,17,0,0,0-4.15,0,133.67,133.67,0,0,1,7.9-22.2Q220.58,102.12,221.48,112.17Z" transform="translate(-175.16 -68.52)"/><path class="cls-16" d="M219.23,113.72a23.38,23.38,0,0,1,4.7,1.6q-1.4-15.55-4.6-33.45A190,190,0,0,0,208,113.67a29,29,0,0,1,4.6-.55l1.3,22.4h0l5.3-21.8m3.5,0.15a12.61,12.61,0,0,0-4.35-1.35l-3.9,16.7-0.75-17a16,16,0,0,0-4.6.35,165,165,0,0,1,9.8-27.2Q221.68,100.92,222.73,113.87Z" transform="translate(-175.16 -68.52)"/></g><g id="Layer0_0_MEMBER_16_MEMBER_1_FILL" data-name="Layer0 0 MEMBER 16 MEMBER 1 FILL"><path class="cls-17" d="M208.08,145.12L207.83,147a10,10,0,0,1,4.45-.65h0.2a1.56,1.56,0,0,0,.3.05,10,10,0,0,1,4.6,1.8l0.2-1.85a6,6,0,0,0-4.35-2.45,6.88,6.88,0,0,0-5.15,1.25m6.75,10,0.25-2.1a4,4,0,0,0-2.9-1.65,4.7,4.7,0,0,0-3.45.85l-0.25,2.1a14.84,14.84,0,0,1,3.45,0A12.64,12.64,0,0,1,214.83,155.12Z" transform="translate(-175.16 -68.52)"/><path class="cls-5" d="M206.58,147.67a3.49,3.49,0,0,0-1.3,2.3,3.61,3.61,0,0,0,1.6,3.35,8,8,0,0,0,1.6,1l0.25-2.1a4.7,4.7,0,0,1,3.45-.85,4,4,0,0,1,2.9,1.65l-0.25,2.1a12.18,12.18,0,0,0,1.85-.65,3.82,3.82,0,0,0,2.45-2.9,3.1,3.1,0,0,0-.7-2.45,4.51,4.51,0,0,0-.9-0.85l-0.15-.1a10,10,0,0,0-4.6-1.8,1.56,1.56,0,0,1-.3-0.05h-0.2a10,10,0,0,0-4.45.65l-0.8.4-0.45.3m-3.7-5.9q-0.35,2.75,2.4,5a13,13,0,0,0,1.3.9l0.45-.3,0.8-.4,0.25-1.85a6.88,6.88,0,0,1,5.15-1.25,6,6,0,0,1,4.35,2.45l-0.2,1.85,0.15,0.1a4.51,4.51,0,0,1,.9.85q0.79-.26,1.55-0.6,3.3-1.6,3.7-4.35a5.12,5.12,0,0,0-2.4-5,14.82,14.82,0,0,0-7.15-2.85h-0.45a0.54,0.54,0,0,0-.3-0.1,14.08,14.08,0,0,0-7.85,1.6,5.25,5.25,0,0,0-2.65,3.9M216.53,156a9.43,9.43,0,0,0-1.7-.9,12.64,12.64,0,0,0-2.9-.8,14.84,14.84,0,0,0-3.45,0,6.67,6.67,0,0,0-1.75.55,4.09,4.09,0,0,0-2.3,2.65l-0.1.3a3.73,3.73,0,0,0,1.65,3.35,8,8,0,0,0,1.6,1h0.05a4.54,4.54,0,0,1,3.4-.85,4,4,0,0,1,2.9,1.65,12.18,12.18,0,0,0,1.85-.65,3.69,3.69,0,0,0,2.4-2.9,3.75,3.75,0,0,0-1.65-3.4M186,410.22a3.37,3.37,0,0,0,1.9-2.55,3.76,3.76,0,0,0-1.5-3.3,10.59,10.59,0,0,0-.9-0.7,9.93,9.93,0,0,0-6.35-.9,8.12,8.12,0,0,0-1.4.55,3.8,3.8,0,0,0-2.1,2.9,3.64,3.64,0,0,0,1.35,3.15v0a8.22,8.22,0,0,1,9,.8m0,0a8.22,8.22,0,0,0-9-.8q0,4,3.85,7.5Q184.53,415.62,186,410.22Z" transform="translate(-175.16 -68.52)"/><path class="cls-7" d="M211,161.32a4.54,4.54,0,0,0-3.4.85l-0.15,1-28.3,239.6a9.93,9.93,0,0,1,6.35.9L213.93,163a4,4,0,0,0-2.9-1.65m-3.4.85h-0.05l-0.1,1Z" transform="translate(-175.16 -68.52)"/></g><path d="M180.88,417.42a0.5,0.5,0,0,1-.34-0.13c-2.64-2.41-4-5-4-7.71a4.05,4.05,0,0,1-1.35-3.42,4.28,4.28,0,0,1,2.35-3.27,8.83,8.83,0,0,1,1.19-.5L207,163.11h0l0.06-.65a8.54,8.54,0,0,1-1.38-.9,4.21,4.21,0,0,1-1.83-3.79,0.5,0.5,0,0,1,0-.1l0.1-.3a4.55,4.55,0,0,1,2.54-2.93q0.34-.16.67-0.28-0.31-.21-0.6-0.44a4.09,4.09,0,0,1-1.78-3.81,3.69,3.69,0,0,1,1-2.14c-0.28-.19-0.56-0.39-0.83-0.6-2-1.62-2.84-3.45-2.59-5.46a5.75,5.75,0,0,1,2.87-4.26,14.67,14.67,0,0,1,8.16-1.68,0.66,0.66,0,0,1,.4.1h0.32a15.4,15.4,0,0,1,7.45,2.95,5.6,5.6,0,0,1,2.6,5.41c-0.29,2-1.63,3.6-4,4.74q-0.5.22-1,.41a3.59,3.59,0,0,1,.42,2.26,4.31,4.31,0,0,1-2.73,3.29l-0.72.29a6,6,0,0,1,.65.4,4.25,4.25,0,0,1,1.85,3.87,4.16,4.16,0,0,1-2.68,3.28,12.81,12.81,0,0,1-1.61.59L186.07,403.43q0.38,0.28.7,0.56a4.25,4.25,0,0,1,1.67,3.73,3.79,3.79,0,0,1-2,2.83c-1.05,3.64-2.87,5.94-5.41,6.84Zm-3.35-7.69c0.08,2.32,1.25,4.52,3.46,6.61,2-.85,3.54-2.83,4.46-5.92A7.6,7.6,0,0,0,177.54,409.73Zm3.43-1.79a9,9,0,0,1,5.09,1.68,2.75,2.75,0,0,0,1.38-2,3.26,3.26,0,0,0-1.33-2.86,10.25,10.25,0,0,0-.83-0.64,9.48,9.48,0,0,0-6-.84,7.67,7.67,0,0,0-1.29.51,3.28,3.28,0,0,0-1.83,2.51,3,3,0,0,0,1,2.53A9.22,9.22,0,0,1,181,407.94Zm0.1-5.84a10.32,10.32,0,0,1,4.06.83l28.3-239.82a3.55,3.55,0,0,0-2.45-1.29,4,4,0,0,0-2.87.64l-0.12.78L179.76,402.18A10.93,10.93,0,0,1,181.06,402.1Zm29.28-241.33a5.78,5.78,0,0,1,.75.05,4.57,4.57,0,0,1,3,1.57,11.68,11.68,0,0,0,1.46-.54,3.19,3.19,0,0,0,2.11-2.5,3.27,3.27,0,0,0-1.48-3,9.21,9.21,0,0,0-1.57-.82,12.16,12.16,0,0,0-2.78-.77,14.32,14.32,0,0,0-3.31,0,6.18,6.18,0,0,0-1.6.51,3.57,3.57,0,0,0-2,2.3l-0.1.3a3.26,3.26,0,0,0,1.47,2.86,7.57,7.57,0,0,0,1.27.82A5,5,0,0,1,210.35,160.77Zm0-7.05a12.12,12.12,0,0,1,1.66.1,12.73,12.73,0,0,1,2.41.6l0.15-1.27a3.55,3.55,0,0,0-2.44-1.29,4.18,4.18,0,0,0-2.92.64l-0.15,1.26C209.51,153.74,209.94,153.72,210.35,153.72Zm1.15-2.9a5.76,5.76,0,0,1,.75.05,4.53,4.53,0,0,1,3.24,1.85,0.5,0.5,0,0,1,.09.35l-0.16,1.35c0.36-.12.71-0.26,1.06-0.41a3.32,3.32,0,0,0,2.16-2.51,2.6,2.6,0,0,0-.59-2.06h0a4,4,0,0,0-.8-0.75l-0.11-.07,0,0h0a9.53,9.53,0,0,0-4.37-1.71l-0.28,0-0.19,0a9.18,9.18,0,0,0-4.19.64h0a6.73,6.73,0,0,0-.77.35l-0.33.26h0a2.87,2.87,0,0,0-1.14,1.94,3.12,3.12,0,0,0,1.42,2.91,7.62,7.62,0,0,0,.88.6l0.16-1.38a0.5,0.5,0,0,1,.21-0.35A5.17,5.17,0,0,1,211.5,150.82Zm6.42-2.9a5.27,5.27,0,0,1,.68.61c0.4-.14.8-0.3,1.19-0.47,2-1,3.16-2.29,3.41-4a4.61,4.61,0,0,0-2.2-4.47,14.4,14.4,0,0,0-6.92-2.76h-0.39a0.5,0.5,0,0,1-.28-0.08,13.62,13.62,0,0,0-7.63,1.52,4.72,4.72,0,0,0-2.39,3.51c-0.21,1.68.51,3.16,2.22,4.56,0.31,0.25.64,0.48,1,.7l0.18-.13c0.23-.12.44-0.22,0.64-0.31l0.19-1.58a0.5,0.5,0,0,1,.21-0.35,7.38,7.38,0,0,1,5.51-1.34A6.46,6.46,0,0,1,218,146a0.5,0.5,0,0,1,.09.34Zm-6.41-2.14,0.81,0,0.25,0,0.25,0A10.59,10.59,0,0,1,217,147.3l0.09-.84a5.46,5.46,0,0,0-3.89-2.09,6.33,6.33,0,0,0-4.62,1l-0.1.84A10.15,10.15,0,0,1,211.51,145.79Z" transform="translate(-175.16 -68.52)"/><g id="Layer0_0_MEMBER_17_FILL" data-name="Layer0 0 MEMBER 17 FILL"><path class="cls-5" d="M311.78,276.87a3.89,3.89,0,0,1-1.15.95q0.1,0.3.2,0.65,2.2,7.5,7.4,8.75a5.58,5.58,0,0,0,.75-0.4q0.35-2.85.65-5.1,0.2-1.75.45-3.15a2.45,2.45,0,0,1-1.5.3,1.78,1.78,0,0,1-1.3-1.2,11.57,11.57,0,0,1-.7-3.7q-0.2-2.7-.1-9.45t-0.3-13.45q-0.7,3.05-1.8,13.55t-2.6,12.25m6.85-33.05a12.84,12.84,0,0,1,3.7,5,24.14,24.14,0,0,1,1.35,5.7l0.1,0.8a14.07,14.07,0,0,0-2.45-12.55q-4.25-6.05-7-4.8a15.73,15.73,0,0,0-5,4.3,36.48,36.48,0,0,0-.4,4.3q-0.05.95-.1,2.9a22.62,22.62,0,0,1,4.55-5.8Q315.83,241.67,318.63,243.82Z" transform="translate(-175.16 -68.52)"/><path class="cls-7" d="M310.63,277.82a3.31,3.31,0,0,1-2.6.05q0,1.8.1,3.7v0.25q0.1,2.45.15,4.05,5.45,3.4,9.95,1.35-5.2-1.25-7.4-8.75-0.1-.35-0.2-0.65m-1.75-28.35q0.05-2,.1-2.9a36.48,36.48,0,0,1,.4-4.3q-0.85,1-1.75,2.2a14.42,14.42,0,0,0-3.25,10.9,30.48,30.48,0,0,0,2.1,7.55q-0.15-1.8-.15-3.65a17.56,17.56,0,0,1,2.35-9.45A3.27,3.27,0,0,1,308.88,249.47Z" transform="translate(-175.16 -68.52)"/><path class="cls-4" d="M308.88,249.47a3.27,3.27,0,0,0-.2.35,17.56,17.56,0,0,0-2.35,9.45q0,1.85.15,3.65a60.58,60.58,0,0,0,.7,6.95q0.55,3.75.85,8a3.31,3.31,0,0,0,2.6-.05q-1.8-6.85-1.8-20.4Q308.83,252.37,308.88,249.47Z" transform="translate(-175.16 -68.52)"/><path class="cls-3" d="M322.33,248.82a12.84,12.84,0,0,0-3.7-5q-2.8-2.15-5.2-.15a22.62,22.62,0,0,0-4.55,5.8q0,2.9,0,7.95,0,13.55,1.8,20.4a3.89,3.89,0,0,0,1.15-.95q1.5-1.8,2.6-12.25t1.8-13.55q0.4,6.65.3,13.45t0.1,9.45a11.57,11.57,0,0,0,.7,3.7,1.78,1.78,0,0,0,1.3,1.2,2.45,2.45,0,0,0,1.5-.3q0.5-3.6.85-5.3,0.8-3.15,2.05-8.7a28.94,28.94,0,0,0,.8-9v-0.25l-0.1-.8a24.14,24.14,0,0,0-1.35-5.7m-3.3,1.05q0.65-2.15,1.65.05a18.19,18.19,0,0,1,1,6.3,49.87,49.87,0,0,1-.95,9.55q-1,5.4-1.65,8.15Q318.38,252,319,249.87Z" transform="translate(-175.16 -68.52)"/><path class="cls-6" d="M320.68,249.92q-1-2.2-1.65-.05t0.05,24.05q0.6-2.75,1.65-8.15a49.87,49.87,0,0,0,.95-9.55A18.19,18.19,0,0,0,320.68,249.92Z" transform="translate(-175.16 -68.52)"/></g><path d="M314.72,288.49a12.75,12.75,0,0,1-6.7-2.19,0.5,0.5,0,0,1-.24-0.41q0-1.6-.15-4v-0.27l-0.1-3.68c-0.2-2.8-.48-5.48-0.84-8A61.29,61.29,0,0,1,306,263a31.05,31.05,0,0,1-2.1-7.59,15,15,0,0,1,3.35-11.27c0.6-.8,1.19-1.55,1.77-2.22h0a16,16,0,0,1,5.18-4.43c2.06-1,4.54.67,7.56,5a14.61,14.61,0,0,1,2.54,12.91v0.18a29.48,29.48,0,0,1-.81,9.11c-0.83,3.68-1.52,6.62-2.05,8.71-0.23,1.1-.51,2.87-0.84,5.24h0c-0.16.92-.31,2-0.45,3.12-0.2,1.51-.42,3.21-0.65,5.1a0.5,0.5,0,0,1-.23.36,6.19,6.19,0,0,1-.81.43A8.87,8.87,0,0,1,314.72,288.49Zm-5.95-2.9c3.38,2,6.49,2.44,9.25,1.18h0a4.81,4.81,0,0,0,.48-0.24q0.33-2.71.62-4.86c0.13-1.16.29-2.23,0.45-3.16,0.33-2.39.62-4.18,0.85-5.32,0.53-2.11,1.22-5,2.05-8.71a28.59,28.59,0,0,0,.79-8.85v-0.26l-0.1-.77a24,24,0,0,0-1.3-5.54,12.45,12.45,0,0,0-3.55-4.82c-1.68-1.29-3.18-1.34-4.58-.17a22.23,22.23,0,0,0-4.44,5.67h0v0a2.68,2.68,0,0,0-.17.29,17.18,17.18,0,0,0-2.3,9.22c0,1.22,0,2.43.15,3.61a0.49,0.49,0,0,1,0,.05,60.51,60.51,0,0,0,.69,6.87c0.37,2.51.65,5.21,0.85,8h0v0l0.1,4C308.7,283.3,308.74,284.56,308.78,285.58Zm1-43c-0.56.66-1.14,1.39-1.73,2.18a14,14,0,0,0-3.15,10.53,26.4,26.4,0,0,0,1,4.32q0-.18,0-0.35a18.12,18.12,0,0,1,2.42-9.7,3.37,3.37,0,0,1,.21-0.36,23.19,23.19,0,0,1,4.65-5.92c1.77-1.48,3.79-1.43,5.83.14a13.38,13.38,0,0,1,3.85,5.18,16.1,16.1,0,0,1,1,3.69,14,14,0,0,0-2.88-9.24c-1.83-2.61-4.41-5.52-6.33-4.64a15.34,15.34,0,0,0-4.83,4.17h0Z" transform="translate(-175.16 -68.52)"/><g id="Layer0_0_MEMBER_18_FILL" data-name="Layer0 0 MEMBER 18 FILL"><path class="cls-18" d="M206.43,212.82a19.26,19.26,0,0,0-3-.15,31.51,31.51,0,0,1-1.15,5.5,24.08,24.08,0,0,1,5.15.6,0.44,0.44,0,0,0,.2.05h0.05a1.79,1.79,0,0,0,.45.15,1.79,1.79,0,0,1-.45-0.15h-0.05a0.44,0.44,0,0,1-.2-0.05L207,221.82q4.65-1.65,4-5.95a10,10,0,0,0-.15-1.05,7.5,7.5,0,0,0-2.55-1.55,6.54,6.54,0,0,0-1.85-.45m0.2-4.85a13,13,0,0,0-3-.1,37.87,37.87,0,0,1-.3,4.8,19.26,19.26,0,0,1,3,.15,6.54,6.54,0,0,1,1.85.45,7.5,7.5,0,0,1,2.55,1.55q0.15-.75.3-0.65a5.84,5.84,0,0,0-.05-4.45,6.58,6.58,0,0,0-2.2-1.2,17,17,0,0,0-2.25-.55m5.15-1.25a3.57,3.57,0,0,0-.4-1.65q-2.2-2.15-7.85-1.95,0.15,2.05.15,4.5v0.25a13,13,0,0,1,3,.1,17,17,0,0,1,2.25.55,6.58,6.58,0,0,1,2.2,1.2,4.82,4.82,0,0,0,.7-3m3.9,7.9a1.81,1.81,0,0,1-1.15.75,3.46,3.46,0,0,1-3.4-1.2q-0.15-.1-0.3.65a10,10,0,0,1,.15,1.05q0.7,4.3-4,5.95l-0.75,6.35,0.2,0.1q3.85,1.4,6.25-2.95a11.21,11.21,0,0,0,.9-2.5,4,4,0,0,0,2.85-4.2,15.46,15.46,0,0,0-.7-3.8,0.2,0.2,0,0,0-.1-0.2m0.2-8.15q0.35-3.85-3.55-4.75a5.74,5.74,0,0,1,0,.7,7.52,7.52,0,0,1-.9,2.65,3.57,3.57,0,0,1,.4,1.65,4.82,4.82,0,0,1-.7,3,5.84,5.84,0,0,1,.05,4.45,3.46,3.46,0,0,0,3.4,1.2,1.81,1.81,0,0,0,1.15-.75,2.6,2.6,0,0,0,.45-2.75,13.5,13.5,0,0,1-.25-5.4m-12.75-7.75a1.37,1.37,0,0,0-.3,0,34,34,0,0,1,.7,4.35q5.65-.2,7.85,1.95a7.52,7.52,0,0,0,.9-2.65,5.74,5.74,0,0,0,0-.7,3.79,3.79,0,0,0-1.95-2.2,7.59,7.59,0,0,0-3.3-.9A15.93,15.93,0,0,0,203.13,198.72Z" transform="translate(-175.16 -68.52)"/><path class="cls-10" d="M202.83,198.77a4.13,4.13,0,0,0-2.75,1.2,2.05,2.05,0,0,0-.6,2.15,3.2,3.2,0,0,1-.55,2.65,3.15,3.15,0,0,0-.55,2.75,3,3,0,0,1-.3,2.4,2.11,2.11,0,0,0-.25,2.2,2.08,2.08,0,0,1,.15,1.8,8.29,8.29,0,0,0-.75,1.7,8.59,8.59,0,0,0-.4,2.95,6.54,6.54,0,0,0,1.75,4.1,9.55,9.55,0,0,0,1.65,1.65l0.7-5.95a2.47,2.47,0,0,0-1.15.55,1.74,1.74,0,0,0-.35.35,1.74,1.74,0,0,1,.35-0.35,2.47,2.47,0,0,1,1.15-.55,3.81,3.81,0,0,1,1.3-.2,31.51,31.51,0,0,0,1.15-5.5,14.76,14.76,0,0,0-1.7.2h-0.1a7,7,0,0,0-1.5.35,7,7,0,0,1,1.5-.35h0.1a14.76,14.76,0,0,1,1.7-.2,37.87,37.87,0,0,0,.3-4.8h-0.5a7.79,7.79,0,0,0-2.5.45,7.79,7.79,0,0,1,2.5-.45h0.5v-0.25q0-2.45-.15-4.5h-0.7a7.53,7.53,0,0,0-1.25.2,7.53,7.53,0,0,1,1.25-.2h0.7A34,34,0,0,0,202.83,198.77Z" transform="translate(-175.16 -68.52)"/></g><path d="M208.29,229.12a5.79,5.79,0,0,1-2-.38l-0.25-.12a0.5,0.5,0,0,1-.27-0.51l0.75-6.34v0l0.3-2.58a22,22,0,0,0-4.59-.5,3.84,3.84,0,0,0-.85.09l-0.66,5.62a0.5,0.5,0,0,1-.81.33,10.07,10.07,0,0,1-1.74-1.74,7,7,0,0,1-1.85-4.41,9,9,0,0,1,.43-3.11,8.73,8.73,0,0,1,.79-1.78,1.67,1.67,0,0,0-.18-1.33,2.63,2.63,0,0,1,.3-2.7,2.49,2.49,0,0,0,.22-2,3.63,3.63,0,0,1,.62-3.16,2.7,2.7,0,0,0,.48-2.23,2.56,2.56,0,0,1,.73-2.64,4.61,4.61,0,0,1,3-1.34,1.68,1.68,0,0,1,.38-0.06,16,16,0,0,1,4-.1,8.08,8.08,0,0,1,3.49,1,4.35,4.35,0,0,1,2.09,2.22,4.51,4.51,0,0,1,3.67,5.22,13.16,13.16,0,0,0,.22,5.18,3.13,3.13,0,0,1-.33,3v0.05a15.58,15.58,0,0,1,.7,3.88,4.49,4.49,0,0,1-2.93,4.58,11.76,11.76,0,0,1-.88,2.35C211.87,227.92,210.23,229.12,208.29,229.12Zm-1.47-1.25c2.21,0.75,4-.16,5.47-2.78a10.71,10.71,0,0,0,.85-2.37,0.5,0.5,0,0,1,.32-0.36,3.55,3.55,0,0,0,2.52-3.73,13.34,13.34,0,0,0-.53-3.09,2.77,2.77,0,0,1-.8.33,4,4,0,0,1-3.26-.75q0.05,0.35.09,0.72c0.49,3-.85,5.15-4,6.36Zm-4-28.59a3.61,3.61,0,0,0-2.42,1A1.56,1.56,0,0,0,200,202a3.69,3.69,0,0,1-.61,3.06,2.66,2.66,0,0,0-.49,2.34,3.51,3.51,0,0,1-.35,2.8,1.64,1.64,0,0,0-.22,1.75,2.54,2.54,0,0,1,.14,2.22,8,8,0,0,0-.72,1.63,8.18,8.18,0,0,0-.37,2.79,6.1,6.1,0,0,0,1.64,3.79,7.24,7.24,0,0,0,.87,1l0.49-4.19a1.6,1.6,0,0,0-.23.17,1.39,1.39,0,0,0-.28.28,0.5,0.5,0,0,1-.8-0.6,2.25,2.25,0,0,1,.45-0.45,2.92,2.92,0,0,1,1.31-.63,4.35,4.35,0,0,1,1.44-.22,24.8,24.8,0,0,1,5.24.61l0.08,0,0.06,0h0a0.61,0.61,0,0,1,.25,0,1.3,1.3,0,0,0,.32.11,0.5,0.5,0,1,1-.2,1l-0.17,0L207.63,221c2.31-1,3.25-2.72,2.86-5.09,0-.32-0.07-0.6-0.12-0.87a7,7,0,0,0-2.26-1.34,6.11,6.11,0,0,0-1.73-.42,19,19,0,0,0-3-.15,14.44,14.44,0,0,0-1.63.19h-0.19a6.7,6.7,0,0,0-1.33.32,0.5,0.5,0,1,1-.34-0.94,7.57,7.57,0,0,1,1.61-.38h0.16a13.33,13.33,0,0,1,1.67-.2,20,20,0,0,1,3.14.15,7,7,0,0,1,2,.48,7.83,7.83,0,0,1,2.11,1.16,0.68,0.68,0,0,1,.14-0.17,5.33,5.33,0,0,0-.05-3.76,6,6,0,0,0-1.93-1,16.68,16.68,0,0,0-2.2-.54,12.61,12.61,0,0,0-2.83-.09h-0.53a7.28,7.28,0,0,0-2.32.42,0.5,0.5,0,0,1-.36-0.93,8.3,8.3,0,0,1,2.66-.48h0.5a13.32,13.32,0,0,1,3.06.11A17.58,17.58,0,0,1,209,208a6.51,6.51,0,0,1,1.87.92,4,4,0,0,0,.39-2.17,4.25,4.25,0,0,0-.27-1.38c-1.36-1.32-3.87-1.92-7.47-1.79h-0.72a7.1,7.1,0,0,0-1.13.19,0.5,0.5,0,1,1-.24-1,8,8,0,0,1,1.33-.21h0.73c3.54-.13,6.07.42,7.69,1.65a6.1,6.1,0,0,0,.57-1.89c0-.22,0-0.41,0-0.58a3.3,3.3,0,0,0-1.68-1.84,7.13,7.13,0,0,0-3.09-.84,15.61,15.61,0,0,0-3.85.1,1.15,1.15,0,0,0-.24,0h-0.1ZM211.7,214a3,3,0,0,0,2.75.83,1.3,1.3,0,0,0,.81-0.52v0h0l0-.06a2.12,2.12,0,0,0,.34-2.25,13.79,13.79,0,0,1-.27-5.6,3.44,3.44,0,0,0-2.59-4.06v0.12A7.51,7.51,0,0,1,212,205a5.9,5.9,0,0,1,.33,1.62,5.15,5.15,0,0,1-.64,3.07A6.3,6.3,0,0,1,211.7,214Z" transform="translate(-175.16 -68.52)"/><g id="Layer0_0_MEMBER_19_FILL" data-name="Layer0 0 MEMBER 19 FILL"><path class="cls-5" d="M288.78,292.67q0.35,1.1.7,2.25,7.7,10.75,11.55,10.75,1.8,0,2.4-4.85,0.3-4.85.3-4.95v-2.2q-0.6.75-1.35,4.85t-2.65,2.65q-2-1.5-8.4-10.9-2.5-3.6-4.35-6.65A46.59,46.59,0,0,0,288.78,292.67Z" transform="translate(-175.16 -68.52)"/><path class="cls-7" d="M282.58,274.92a26.55,26.55,0,0,1-1.9-10.7q0.3-4.75,1.1-6.25-3.9,4.15-4.1,8.45-0.55,10.15,9.4,25,1.25,1.85,2.4,3.5-0.35-1.15-.7-2.25a46.59,46.59,0,0,1-1.8-9.05A53.23,53.23,0,0,1,282.58,274.92Z" transform="translate(-175.16 -68.52)"/><path class="cls-4" d="M280.68,264.22a26.55,26.55,0,0,0,1.9,10.7,53.23,53.23,0,0,0,4.4,8.7q-0.15-1.5-.15-2.9,0-8.85,2.75-14.3,2.35-4.6,5.95-5.35-3.7-5.65-8.55-5.65a7,7,0,0,0-3.9,1.4,6,6,0,0,0-1.3,1.15Q281,259.47,280.68,264.22Z" transform="translate(-175.16 -68.52)"/><path class="cls-3" d="M300,271.27a39.93,39.93,0,0,0-4.45-10.2q-3.6.75-5.95,5.35-2.75,5.45-2.75,14.3,0,1.4.15,2.9,1.85,3,4.35,6.65,6.45,9.4,8.4,10.9t2.65-2.65q0.75-4.1,1.35-4.85a85.64,85.64,0,0,0-3.75-22.4m-5.8,1a7.18,7.18,0,0,1,1.8-1.55q2.1,0,3.1,4.75a36.87,36.87,0,0,1,.75,7.8q0,7.25-1.85,7.25-1.5,0-3.1-5.1a34.9,34.9,0,0,1-1.7-7,17,17,0,0,1,.2-3.7A5.9,5.9,0,0,1,294.18,272.22Z" transform="translate(-175.16 -68.52)"/><path class="cls-6" d="M296,270.67a7.18,7.18,0,0,0-1.8,1.55,5.9,5.9,0,0,0-.8,2.45,17,17,0,0,0-.2,3.7,34.9,34.9,0,0,0,1.7,7q1.6,5.1,3.1,5.1,1.85,0,1.85-7.25a36.87,36.87,0,0,0-.75-7.8Q298.08,270.67,296,270.67Z" transform="translate(-175.16 -68.52)"/></g><path d="M301,306.17c-2.76,0-6.67-3.58-12-11q-1.16-1.66-2.41-3.51c-6.67-9.95-9.86-18.46-9.48-25.31,0.14-3,1.56-5.92,4.23-8.77a6.47,6.47,0,0,1,1.39-1.23,7.47,7.47,0,0,1,4.17-1.48c3.4,0,6.42,2,9,5.88h0a40.57,40.57,0,0,1,4.51,10.33,86.52,86.52,0,0,1,3.77,22.53h0v2.2s0,0.11-.3,5C303.49,304.44,302.54,306.17,301,306.17Zm-14-50.25a6.53,6.53,0,0,0-3.62,1.31,5.52,5.52,0,0,0-1.2,1.06c-2.52,2.68-3.85,5.42-4,8.15-0.36,6.63,2.77,14.94,9.32,24.7q1.25,1.84,2.39,3.49c6.24,8.71,9.5,10.54,11.14,10.54,0.88,0,1.55-1.57,1.9-4.41,0.19-3.12.29-4.78,0.3-4.9v-2.18a85.55,85.55,0,0,0-3.73-22.26,39.65,39.65,0,0,0-4.39-10.07h0C292.76,257.74,290,255.92,287,255.92Z" transform="translate(-175.16 -68.52)"/><g id="Layer0_0_MEMBER_20_FILL" data-name="Layer0 0 MEMBER 20 FILL"><path class="cls-5" d="M269,272.47l15.65-21.75q-15,7.8-15.65,21.75m-16.4-19.2-0.3-.15,10.35,19.35Q264.78,260.17,252.63,253.27Z" transform="translate(-175.16 -68.52)"/><path class="cls-4" d="M288.08,259.62a4,4,0,0,0-1-3.4q-1.2-1.15-3.1.2t-7.65,12.2q-5.75,10.85-10.25,10.2t-8.9-10.45q-1.9-4.35-2.8-5.95-1.45-2.7-2.7-2.7a2,2,0,0,0-1.8,1.5,6.71,6.71,0,0,0-.4,2.4,9,9,0,0,0,.45,2.95,12.64,12.64,0,0,0,3.3,2.25,12.12,12.12,0,0,1,6.5,8.4,29.59,29.59,0,0,0,2.75,8.1q1.4,2.4,5.85,2.15t5.7-6.1a26.15,26.15,0,0,1,3.35-8.75,14.6,14.6,0,0,1,5.55-4.4,2.63,2.63,0,0,0,.25-0.4q1.6-1.95,2.65-3.35A10.67,10.67,0,0,0,288.08,259.62Z" transform="translate(-175.16 -68.52)"/><path class="cls-3" d="M290,261.87a11.92,11.92,0,0,0-.55-6.1,11.26,11.26,0,0,0-4.75-5L269,272.47a5.33,5.33,0,0,1-6.35,0l-10.35-19.35a15.85,15.85,0,0,0-4.2,8.05l-0.2,1.4a5.54,5.54,0,0,0,2,4,9,9,0,0,1-.45-2.95,6.71,6.71,0,0,1,.4-2.4,2,2,0,0,1,1.8-1.5q1.25,0,2.7,2.7,0.9,1.6,2.8,5.95,4.45,9.8,8.9,10.45t10.25-10.2q5.8-10.9,7.65-12.2t3.1-.2a4,4,0,0,1,1,3.4,10.67,10.67,0,0,1-2.25,4.85q-1,1.4-2.65,3.35a2.63,2.63,0,0,1-.25.4q0.75-.4,1.5-0.75Q289.43,265.17,290,261.87Z" transform="translate(-175.16 -68.52)"/></g><path d="M267.53,288c-2.7,0-4.54-.81-5.48-2.42a29.73,29.73,0,0,1-2.81-8.24,11.69,11.69,0,0,0-6.24-8.07,13.16,13.16,0,0,1-3.42-2.33,6,6,0,0,1-2.15-4.35l0.2-1.48a16.43,16.43,0,0,1,4.33-8.32,0.5,0.5,0,0,1,.43-0.15l0.12,0h0l0.3,0.15c8.18,4.64,11.66,11.17,10.37,19.4a4.74,4.74,0,0,0,5.32,0c0.49-9.32,5.84-16.69,15.9-21.91l0.05,0a0.57,0.57,0,0,1,.22,0,0.51,0.51,0,0,1,.19.05l0.05,0a11.78,11.78,0,0,1,4.94,5.28,12.48,12.48,0,0,1,.58,6.36c-0.4,2.37-2.36,4.38-5.84,6q-0.73.34-1.47,0.74h0a14.2,14.2,0,0,0-5.37,4.24,25.83,25.83,0,0,0-3.27,8.58c-0.92,4.12-3,6.31-6.16,6.49Zm-17.24-21.77a12.24,12.24,0,0,0,3.17,2.15,12.65,12.65,0,0,1,6.76,8.73,29.29,29.29,0,0,0,2.69,8c0.83,1.42,2.64,2.06,5.39,1.91s4.42-2,5.24-5.71a26.77,26.77,0,0,1,3.43-8.93,15.15,15.15,0,0,1,5.73-4.56q0.76-.41,1.52-0.76c3.16-1.45,4.93-3.21,5.27-5.23a11.47,11.47,0,0,0-.52-5.84,10.44,10.44,0,0,0-4.15-4.55l-15.37,21.36,0,0.05-0.06.06,0,0a5.81,5.81,0,0,1-6.89,0,0.52,0.52,0,0,1-.13-0.12h0v0h0l0,0-10-18.72a15.28,15.28,0,0,0-3.6,7.28l-0.2,1.38a5,5,0,0,0,1.84,3.56h0Zm3.31-11.79,8.8,16.44C263.1,264,260.21,258.58,253.6,254.43ZM283,252.22c-8,4.65-12.43,10.86-13.31,18.5Z" transform="translate(-175.16 -68.52)"/><g id="Layer0_0_MEMBER_21_FILL" data-name="Layer0 0 MEMBER 21 FILL"><path class="cls-3" d="M292.83,408.17a6.9,6.9,0,0,0-5.65-3,7.8,7.8,0,0,0-5.35,2.3l-0.55.55q-0.2.25-.4,0.55a3.54,3.54,0,0,1-.5.5,18.64,18.64,0,0,1-4.25,8.5,16,16,0,0,0-3.1,4.75,31,31,0,0,0,4.15.95,48,48,0,0,0,8,.65q5,0,7.4-2t2.5-6.5a11.6,11.6,0,0,0-2.25-7.25m-12.3,13.1q-2.45,0-2.45-1.6,0-1.45,2.5-3a9.5,9.5,0,0,1,5.1-1.65,8.34,8.34,0,0,1,4.5,1,2.36,2.36,0,0,1,1.25,1.9,2,2,0,0,1-1.5,1.85,6.24,6.24,0,0,1-2.6.5,15.72,15.72,0,0,0-3.85.55,15.85,15.85,0,0,1-2.95.5m4.85-58.1q-1-8-3.8-9.65a16.59,16.59,0,0,0-7.75-1.95,30.9,30.9,0,0,0-.25,6.4q0.3,5.3,4,17.75t3.55,17.15a25.08,25.08,0,0,1-1,6.55,11.2,11.2,0,0,0,4.15-6.35,71.24,71.24,0,0,0,1.6-13,93.8,93.8,0,0,0-.5-16.9m12.4,0.75a70.23,70.23,0,0,0-.85-11.65,6.83,6.83,0,0,0-4.35,4.85q-1.25,5.75-1.25,17.6t1.15,16.8a20.82,20.82,0,0,0,1.95,5.5q0.65-1,.45-7.7a48.89,48.89,0,0,1,1.35-13.1A55.48,55.48,0,0,0,297.78,363.92Z" transform="translate(-175.16 -68.52)"/><path class="cls-6" d="M278.08,419.67q0,1.6,2.45,1.6a15.85,15.85,0,0,0,2.95-.5,15.72,15.72,0,0,1,3.85-.55,6.24,6.24,0,0,0,2.6-.5,2,2,0,0,0,1.5-1.85,2.36,2.36,0,0,0-1.25-1.9,8.34,8.34,0,0,0-4.5-1,9.5,9.5,0,0,0-5.1,1.65Q278.08,418.22,278.08,419.67Z" transform="translate(-175.16 -68.52)"/><path class="cls-4" d="M298.08,409.77a11,11,0,0,1-3.5-2.7q-3-3.15-5.5-3.15-4.75,0-6.85,2.75-0.4.55-.95,1.35l0.55-.55a7.8,7.8,0,0,1,5.35-2.3,6.9,6.9,0,0,1,5.65,3,11.6,11.6,0,0,1,2.25,7.25q0,4.4-2.5,6.5t-7.4,2a48,48,0,0,1-8-.65,31,31,0,0,1-4.15-.95,3,3,0,0,0-.25,1.35,13.12,13.12,0,0,0,1.15,4.45q1.05,2.4,10.8,2.8t12.55-1.8a6.78,6.78,0,0,0,2.9-5.2,19.57,19.57,0,0,0-1-6.5,23.47,23.47,0,0,1-1.1-7.65m-1.15-57.5a70.23,70.23,0,0,1,.85,11.65,55.48,55.48,0,0,1-1.55,12.3,48.89,48.89,0,0,0-1.35,13.1q0.2,6.7-.45,7.7a9.47,9.47,0,0,0,6.35,5.15q-0.55-1.6-1.3-4.1a27.72,27.72,0,0,1-1.1-11.2,118.83,118.83,0,0,1,3-15.65,46.51,46.51,0,0,0,1.35-9.35A43.35,43.35,0,0,0,301.48,351,17.61,17.61,0,0,0,296.93,352.27Z" transform="translate(-175.16 -68.52)"/><path class="cls-7" d="M289.88,399.07a9.74,9.74,0,0,0-5.95-.05,15.51,15.51,0,0,0-5.15,4,13.38,13.38,0,0,0-1.2,3.85,4.87,4.87,0,0,0,.25,1.85,1.34,1.34,0,0,0,1.35.75,2,2,0,0,0,1.15-.35h0a3.54,3.54,0,0,0,.5-0.5q0.2-.3.4-0.55,0.55-.8.95-1.35,2.1-2.75,6.85-2.75,2.55,0,5.5,3.15a11,11,0,0,0,3.5,2.7,4.75,4.75,0,0,0,1.85.4,2.12,2.12,0,0,0,2.2-2,5.27,5.27,0,0,0-.3-3.3,16.76,16.76,0,0,1-1.05-2.7,9.47,9.47,0,0,1-6.35-5.15q-0.95,3-4.55,2.05m-13.1-56.85a24.3,24.3,0,0,0-2.1,5.7,21.91,21.91,0,0,0,5.2,2.75,21.18,21.18,0,0,0,8.65,1.35,29.81,29.81,0,0,0,6.35-.6,16.28,16.28,0,0,0,1.8-.65q0.15,0.7.25,1.5a17.61,17.61,0,0,1,4.55-1.25q-0.4-1.6-.85-3.15l-0.9-2.4q-0.75-1.9-1.6-3.65a0.14,0.14,0,0,0,0-.1,15.73,15.73,0,0,0-6.2-3.75q-6.4-1.95-13.75,3A8,8,0,0,0,276.78,342.22Z" transform="translate(-175.16 -68.52)"/><path class="cls-5" d="M274.68,347.92a1.94,1.94,0,0,0-.1.25,22.85,22.85,0,0,0-.75,3.4,16.59,16.59,0,0,1,7.75,1.95q2.75,1.65,3.8,9.65a93.8,93.8,0,0,1,.5,16.9,71.24,71.24,0,0,1-1.6,13,11.2,11.2,0,0,1-4.15,6.35q-0.35,1.1-.8,2.2a8.85,8.85,0,0,0-.55,1.35,15.51,15.51,0,0,1,5.15-4,9.74,9.74,0,0,1,5.95.05q3.6,0.95,4.55-2.05a20.82,20.82,0,0,1-1.95-5.5q-1.15-5-1.15-16.8t1.25-17.6a6.83,6.83,0,0,1,4.35-4.85q-0.1-.8-0.25-1.5a16.28,16.28,0,0,1-1.8.65,29.81,29.81,0,0,1-6.35.6,21.18,21.18,0,0,1-8.65-1.35A21.91,21.91,0,0,1,274.68,347.92Z" transform="translate(-175.16 -68.52)"/></g><path d="M287.6,431.48q-1.36,0-2.88-.06c-6.86-.28-10.44-1.27-11.24-3.1a13.69,13.69,0,0,1-1.19-4.62,3.5,3.5,0,0,1,.29-1.56,16.3,16.3,0,0,1,3.19-4.89,18.67,18.67,0,0,0,3.94-7.37,2.63,2.63,0,0,1-.51,0,1.82,1.82,0,0,1-1.8-1,5.24,5.24,0,0,1-.3-2.06,13.2,13.2,0,0,1,1.23-4,9.43,9.43,0,0,1,.57-1.4c0.28-.68.54-1.41,0.77-2.12a24.66,24.66,0,0,0,.93-6.41c0-3.07-1.16-8.79-3.53-17s-3.77-14.31-4-17.86a31.51,31.51,0,0,1,.25-6.5,23.37,23.37,0,0,1,.77-3.47,2.67,2.67,0,0,1,.11-0.28,24.29,24.29,0,0,1,2.15-5.79,8.56,8.56,0,0,1,1.48-1.38c5-3.38,9.79-4.42,14.19-3.08a16.3,16.3,0,0,1,6.4,3.86,0.72,0.72,0,0,1,.19.3c0.56,1.15,1.09,2.37,1.59,3.63l0.9,2.41c0.31,1.08.6,2.13,0.87,3.21a44.06,44.06,0,0,1,1.27,11,47.23,47.23,0,0,1-1.36,9.46,119,119,0,0,0-3,15.58,27.36,27.36,0,0,0,1.08,11c0.5,1.66.93,3,1.29,4.08a16.66,16.66,0,0,0,1,2.61,5.78,5.78,0,0,1,.36,3.63,2.6,2.6,0,0,1-2.69,2.41,5,5,0,0,1-1.35-.19,22.68,22.68,0,0,0,1.07,6.79,20.17,20.17,0,0,1,1,6.67,7.29,7.29,0,0,1-3.09,5.58C295.91,430.83,292.63,431.48,287.6,431.48Zm-6.75-22.14a19.3,19.3,0,0,1-4.32,8.55,15.64,15.64,0,0,0-3,4.59,2.58,2.58,0,0,0-.23,1.15,12.71,12.71,0,0,0,1.11,4.29c0.34,0.79,2.15,2.16,10.36,2.5,6.35,0.26,10.46-.31,12.22-1.69a6.25,6.25,0,0,0,2.71-4.82,19.19,19.19,0,0,0-1-6.33,23.88,23.88,0,0,1-1.12-7.48,12,12,0,0,1-3.37-2.68c-1.86-2-3.58-3-5.13-3-3,0-5.16.86-6.45,2.55-0.26.35-.57,0.8-0.93,1.33h0l0,0q-0.19.23-.37,0.51A4.51,4.51,0,0,1,280.84,409.34Zm17.44,0a4.28,4.28,0,0,0,1.65.36,1.63,1.63,0,0,0,1.71-1.6,4.81,4.81,0,0,0-.26-3,17,17,0,0,1-1.08-2.77c-0.36-1.06-.8-2.44-1.3-4.11a28.34,28.34,0,0,1-1.12-11.4,119.87,119.87,0,0,1,3-15.72,46.2,46.2,0,0,0,1.34-9.25A43,43,0,0,0,301,351.14q-0.4-1.59-.84-3.13l-0.89-2.36c-0.49-1.24-1-2.46-1.58-3.61v0a15.26,15.26,0,0,0-5.94-3.57c-4.1-1.25-8.58-.26-13.33,2.94a7.59,7.59,0,0,0-1.25,1.16,24.8,24.8,0,0,0-2,5.5l0,0.05,0,0.05a1.43,1.43,0,0,0-.07.17,22.41,22.41,0,0,0-.73,3.31h0a30.52,30.52,0,0,0-.25,6.29c0.2,3.48,1.52,9.41,3.93,17.64s3.6,14.13,3.57,17.3a25.7,25.7,0,0,1-1,6.68h0v0c-0.24.74-.51,1.49-0.81,2.24a8.73,8.73,0,0,0-.53,1.3v0.06a12.36,12.36,0,0,0-1.16,3.65,4.29,4.29,0,0,0,.21,1.64,0.84,0.84,0,0,0,.9.46,1.46,1.46,0,0,0,.86-0.26l0.12-.06a3.27,3.27,0,0,0,.33-0.35c0.11-.17.24-0.36,0.38-0.53,0.37-.53.68-1,0.95-1.35,1.5-2,3.94-3,7.25-3,1.84,0,3.81,1.11,5.86,3.31A10.61,10.61,0,0,0,298.28,409.31Zm-0.65-67.49h0Z" transform="translate(-175.16 -68.52)"/><g id="Layer0_0_MEMBER_21_MEMBER_0_FILL" data-name="Layer0 0 MEMBER 21 MEMBER 0 FILL"><path class="cls-7" d="M291.18,348.92a0.14,0.14,0,0,0-.05.1q0.9-.1,1.85-0.25a11.28,11.28,0,0,0,6.55-3.45,9.57,9.57,0,0,0,2.35-6.75,12.94,12.94,0,0,0-1.85-7.1,13.11,13.11,0,0,1,.3,2.85q0,5.4-3.3,8a12.33,12.33,0,0,1-3.55,1.85A20.43,20.43,0,0,1,291.18,348.92Z" transform="translate(-175.16 -68.52)"/><path class="cls-5" d="M278.13,343.27q-3.45-2.4-4-3.5,0,0.25,0,.55,0,8.1,9.8,8.95a41.6,41.6,0,0,0,7.15-.25,0.14,0.14,0,0,1,.05-0.1,20.43,20.43,0,0,0,2.3-4.7,21,21,0,0,1-5.85,1.1Q281.53,345.62,278.13,343.27Z" transform="translate(-175.16 -68.52)"/><path class="cls-3" d="M292.13,328.32a19.54,19.54,0,0,0-1.5-2.9,14,14,0,0,0-2.35-.1,24,24,0,0,0-6.85,1.65,10,10,0,0,0-5.65,5,18.22,18.22,0,0,0-1.6,7.75q0.5,1.1,4,3.5t9.5,2.05a21,21,0,0,0,5.85-1.1,16.19,16.19,0,0,0,.85-5.15,26.85,26.85,0,0,0-2.2-10.75m-8.6.7a1.94,1.94,0,0,0,.55-0.15,7.77,7.77,0,0,1,2.3-.25,3.61,3.61,0,0,1,3.15,2q1.3,1.95-1.3,3.3a7,7,0,0,0-3.45,3.15,6.39,6.39,0,0,1-2.3,2.8,3.23,3.23,0,0,1-3.2.2q-1.7-.75-1.7-3.25a6.67,6.67,0,0,1,.9-3.8,8.3,8.3,0,0,1,1.75-2,13,13,0,0,1,2-1.3A3.92,3.92,0,0,1,283.53,329Z" transform="translate(-175.16 -68.52)"/><path class="cls-6" d="M284.08,328.87a1.94,1.94,0,0,1-.55.15,3.92,3.92,0,0,0-1.3.65,13,13,0,0,0-2,1.3,8.3,8.3,0,0,0-1.75,2,6.67,6.67,0,0,0-.9,3.8q0,2.5,1.7,3.25a3.23,3.23,0,0,0,3.2-.2,6.39,6.39,0,0,0,2.3-2.8,7,7,0,0,1,3.45-3.15q2.6-1.35,1.3-3.3a3.61,3.61,0,0,0-3.15-2A7.77,7.77,0,0,0,284.08,328.87Z" transform="translate(-175.16 -68.52)"/><path class="cls-4" d="M290.63,325.42a19.54,19.54,0,0,1,1.5,2.9,26.85,26.85,0,0,1,2.2,10.75,16.19,16.19,0,0,1-.85,5.15,12.33,12.33,0,0,0,3.55-1.85q3.3-2.65,3.3-8a13.11,13.11,0,0,0-.3-2.85,0.14,0.14,0,0,1-.05-0.1A14.17,14.17,0,0,0,290.63,325.42Z" transform="translate(-175.16 -68.52)"/></g><path d="M285.95,349.83q-1.05,0-2-.06c-6.82-.59-10.27-3.77-10.27-9.45v-0.55h0a18.79,18.79,0,0,1,1.65-8,10.5,10.5,0,0,1,5.93-5.3,24.62,24.62,0,0,1,7-1.68,14.48,14.48,0,0,1,2.45.1,14.67,14.67,0,0,1,9.7,6.17l0.05,0.1h0a13.49,13.49,0,0,1,1.92,7.36,10.09,10.09,0,0,1-2.48,7.09,11.82,11.82,0,0,1-6.83,3.6c-0.65.1-1.28,0.19-1.88,0.25h0A48.41,48.41,0,0,1,285.95,349.83Zm-11.26-10.06v0.54c0,5.14,3.06,7.91,9.34,8.45a41.34,41.34,0,0,0,7.05-.25q0.89-.1,1.83-0.25a10.83,10.83,0,0,0,6.26-3.29,9.13,9.13,0,0,0,2.22-6.41,12.53,12.53,0,0,0-1.75-6.8,0.66,0.66,0,0,1-.11-0.2,13.23,13.23,0,0,0-4.92-4.31,11.68,11.68,0,0,0-6.3-1.44,23.66,23.66,0,0,0-6.69,1.62,9.54,9.54,0,0,0-5.39,4.82A17.82,17.82,0,0,0,274.69,339.77Z" transform="translate(-175.16 -68.52)"/><g id="Layer0_0_MEMBER_22_FILL" data-name="Layer0 0 MEMBER 22 FILL"><path class="cls-4" d="M220.43,392.72q-0.2.3-.4,0.65,3.7-2,9.75,1.9t6.6,7.35q0.55,3.5-5.15,5t-11.05,2.15a16.22,16.22,0,0,1-10.9-2.55,13.23,13.23,0,0,0-7.8-.35q-0.3,0-1.75.2a6.15,6.15,0,0,0-1.15,3.5q-0.3,4.35,9.75,5.1a50.78,50.78,0,0,0,17.6-1.4,42.66,42.66,0,0,1,12.35-2q4.7,0.15,6.45-1.35t1.4-5.8a31,31,0,0,0-2.65-9.85,5.45,5.45,0,0,0-.45.4,7.83,7.83,0,0,1-1.65,1.15,4.79,4.79,0,0,1-2.15.55q-3.2,0-7.9-3.65t-7.4-3.4a4.37,4.37,0,0,0-3.5,2.45m14.6-49.8a13.28,13.28,0,0,1,2.4,6.25,35,35,0,0,1,.6,8.2,45.09,45.09,0,0,1-1.2,7.8,31.06,31.06,0,0,0-.95,7.45,43.35,43.35,0,0,0,1,8.5q0.95,4.9,1.15,7a10.44,10.44,0,0,0,3.4.5,8.76,8.76,0,0,0,2.75-.5q-0.25-1.35-.7-3.25a47.27,47.27,0,0,1-1.4-8.85,80.88,80.88,0,0,1,1.3-11.45,92.85,92.85,0,0,0,1.3-14.7,50.33,50.33,0,0,0-.65-8.45q-0.65-.3-6,0.45A6.58,6.58,0,0,0,235,342.92Z" transform="translate(-175.16 -68.52)"/><path class="cls-3" d="M220,393.37q-0.5.8-.8,1.25a29.66,29.66,0,0,1-8,8q-1.65.75-3.65,1.45a35.66,35.66,0,0,1-5.3,1.45,3.89,3.89,0,0,0-2.5,1.5q1.45-.2,1.75-0.2a13.23,13.23,0,0,1,7.8.35,16.22,16.22,0,0,0,10.9,2.55q5.3-.75,11.05-2.15t5.15-5q-0.65-3.55-6.6-7.35t-9.75-1.9m5.5,3a3.47,3.47,0,0,1,2.3.75,12.82,12.82,0,0,1,2.2,2.45q1.15,1.6-1.15,4.3t-8.6,3.5q-6.2.8-6.35-.4t3.8-3.15q3.9-2,4.8-4,1.55-3.45,3-3.45M221,343.12a4,4,0,0,1-2.25-2.6,37.8,37.8,0,0,0-.65,7.2q0,4.55,3,14.6t3,12.2q0,3.3-3.2,9.25-1,1.9-1.7,3.3a0.2,0.2,0,0,1,.15-0.05,18.55,18.55,0,0,0,2.15-1.1,9.84,9.84,0,0,0,3.65-4.65,21.91,21.91,0,0,0,1.15-10.2q-0.55-6-1.05-13.8a56.51,56.51,0,0,0-1.45-10.55,5.74,5.74,0,0,0-2.75-3.6m16.45,6a13.28,13.28,0,0,0-2.4-6.25q-2.6,1.85-3.25,6.45a107.79,107.79,0,0,0-.6,18.45q0.4,11.65,2.45,16.2a7.05,7.05,0,0,0,4.4,4.05q-0.2-2.05-1.15-7a43.35,43.35,0,0,1-1-8.5,31.06,31.06,0,0,1,.95-7.45,45.09,45.09,0,0,0,1.2-7.8A35,35,0,0,0,237.43,349.17Z" transform="translate(-175.16 -68.52)"/><path class="cls-6" d="M227.83,397.17a3.47,3.47,0,0,0-2.3-.75q-1.45,0-3,3.45-0.9,2.05-4.8,4t-3.8,3.15q0.15,1.2,6.35.4t8.6-3.5q2.3-2.7,1.15-4.3A12.82,12.82,0,0,0,227.83,397.17Z" transform="translate(-175.16 -68.52)"/><path class="cls-7" d="M231.78,386.27a8.45,8.45,0,0,0-6.3-1.4,16.77,16.77,0,0,0-4.05,1,18.55,18.55,0,0,1-2.15,1.1,0.2,0.2,0,0,0-.15.05q-1.7,3-1.75,3.2a3.91,3.91,0,0,0-.25,1.7,2.58,2.58,0,0,0,.85,1.7q0.5,0.4,1.25,1,0.3-.45.8-1.25,0.2-.35.4-0.65a4.37,4.37,0,0,1,3.5-2.45q2.65-.3,7.4,3.4t7.9,3.65a4.79,4.79,0,0,0,2.15-.55,7.83,7.83,0,0,0,1.65-1.15,5.45,5.45,0,0,1,.45-0.4,5.09,5.09,0,0,0,1.4-3.4,34.22,34.22,0,0,0-.7-3.75,8.76,8.76,0,0,1-2.75.5,10.44,10.44,0,0,1-3.4-.5,1.09,1.09,0,0,1,.15,1q-0.25.85-2-.1a34.86,34.86,0,0,1-4.4-2.75m1.25-44.5a2.46,2.46,0,0,1,2,1.15,6.58,6.58,0,0,1,3-1.1q5.3-.75,6-0.45a27.08,27.08,0,0,0-3.5-9.9q-3.7-5.8-9.15-5.65-5.3.15-9.1,5.8a23.13,23.13,0,0,0-3.5,8.55,7.48,7.48,0,0,0,2.35,1.45,14.76,14.76,0,0,0,6.2,1.1,13.66,13.66,0,0,0,2.85-.45A12.4,12.4,0,0,1,233,341.77Z" transform="translate(-175.16 -68.52)"/><path class="cls-5" d="M235,342.92a2.46,2.46,0,0,0-2-1.15,12.4,12.4,0,0,0-2.85.5,13.66,13.66,0,0,1-2.85.45,14.76,14.76,0,0,1-6.2-1.1,7.48,7.48,0,0,1-2.35-1.45,1.47,1.47,0,0,0-.05.35,4,4,0,0,0,2.25,2.6,5.74,5.74,0,0,1,2.75,3.6,56.51,56.51,0,0,1,1.45,10.55q0.5,7.8,1.05,13.8a21.91,21.91,0,0,1-1.15,10.2,9.84,9.84,0,0,1-3.65,4.65,16.77,16.77,0,0,1,4.05-1,8.45,8.45,0,0,1,6.3,1.4,34.86,34.86,0,0,0,4.4,2.75q1.75,0.95,2,.1a1.09,1.09,0,0,0-.15-1,7.05,7.05,0,0,1-4.4-4.05q-2.05-4.55-2.45-16.2a107.79,107.79,0,0,1,.6-18.45Q232.43,344.77,235,342.92Z" transform="translate(-175.16 -68.52)"/></g><path d="M213.31,416.31q-2.43,0-5-.19c-7-.52-10.43-2.42-10.21-5.63a6.66,6.66,0,0,1,1.25-3.77,4.39,4.39,0,0,1,2.8-1.69,35.27,35.27,0,0,0,5.21-1.43c1.33-.46,2.54-0.95,3.62-1.44a21.69,21.69,0,0,0,4.31-3.55,25.88,25.88,0,0,0,3.3-3.86l-0.91-.7a3.1,3.1,0,0,1-1-2.09,4.21,4.21,0,0,1,.31-1.94s0-.11,1.75-3.19q0.7-1.4,1.7-3.3c2.09-3.88,3.14-6.91,3.14-9,0-1.35-1-5.4-2.93-12.06s-3-11.67-3-14.74a38.55,38.55,0,0,1,.65-7.25,2,2,0,0,1,.06-0.42,23.71,23.71,0,0,1,3.57-8.71c2.62-3.89,5.81-5.91,9.5-6s7,1.87,9.59,5.88a27.68,27.68,0,0,1,3.57,10.08h0a51,51,0,0,1,.66,8.53,93.79,93.79,0,0,1-1.31,14.78A80.85,80.85,0,0,0,242.58,376a47.15,47.15,0,0,0,1.39,8.74c0.3,1.26.54,2.36,0.7,3.26a27.37,27.37,0,0,1,.71,3.85,5.49,5.49,0,0,1-1.32,3.49,31.22,31.22,0,0,1,2.57,9.73c0.21,3.1-.3,5.13-1.57,6.21s-3.5,1.56-6.79,1.47a42,42,0,0,0-12.2,2A47,47,0,0,1,213.31,416.31Zm-13.19-9a5.7,5.7,0,0,0-1,3.22c-0.18,2.56,2.95,4.09,9.29,4.57a50.42,50.42,0,0,0,17.43-1.38,43.91,43.91,0,0,1,12.5-2c3,0.1,5-.32,6.11-1.23s1.41-2.67,1.23-5.39a29.75,29.75,0,0,0-2.34-9,8.27,8.27,0,0,1-1.69,1.16,5.32,5.32,0,0,1-2.37.6c-2.27,0-5-1.23-8.21-3.76-3-2.37-5.41-3.49-7-3.3a3.87,3.87,0,0,0-3.12,2.19c-0.15.23-.28,0.43-0.4,0.66v0q-0.5.81-.81,1.26h0a30.1,30.1,0,0,1-8.24,8.17c-1.13.51-2.37,1-3.71,1.48a36.23,36.23,0,0,1-5.36,1.47,3.38,3.38,0,0,0-2.2,1.31h0Zm24.23-17.59c1.86,0,4.25,1.16,7.29,3.53s5.58,3.54,7.59,3.54a4.32,4.32,0,0,0,1.93-.5,7.37,7.37,0,0,0,1.54-1.08,5.63,5.63,0,0,1,.46-0.41h0a4.54,4.54,0,0,0,1.21-3,31.39,31.39,0,0,0-.69-3.64v0c-0.16-.89-0.4-2-0.69-3.23a47.22,47.22,0,0,1-1.41-9,81.7,81.7,0,0,1,1.31-11.53,92.78,92.78,0,0,0,1.29-14.62,50,50,0,0,0-.64-8.37h0a26.72,26.72,0,0,0-3.43-9.72c-2.39-3.74-5.23-5.53-8.71-5.41s-6.27,2-8.7,5.58a22.75,22.75,0,0,0-3.43,8.37,1.12,1.12,0,0,0,0,.24,0.42,0.42,0,0,1,0,.06v0.06a37.52,37.52,0,0,0-.64,7.09c0,3,1,7.83,3,14.46,2,6.84,3,10.88,3,12.34,0,2.31-1.07,5.41-3.26,9.49q-1,1.89-1.69,3.28h0v0c-1.41,2.52-1.68,3-1.72,3.14a3.27,3.27,0,0,0-.22,1.52,2.13,2.13,0,0,0,.71,1.36l0.76,0.58,0.5-.79q0.21-.36.41-0.67a4.83,4.83,0,0,1,3.86-2.67Z" transform="translate(-175.16 -68.52)"/><g id="Layer0_0_MEMBER_22_MEMBER_0_FILL" data-name="Layer0 0 MEMBER 22 MEMBER 0 FILL"><path class="cls-4" d="M240,329.32a12.38,12.38,0,0,1-2.45,6.95,10.25,10.25,0,0,1-1.7,1.7,8.46,8.46,0,0,1,1-.3h1.5a17.16,17.16,0,0,1,5.75.8,13.86,13.86,0,0,0-4-11.8,17.78,17.78,0,0,1-.1,2.65m-3.1-10.6a11.42,11.42,0,0,0-1.65-1.45,8.8,8.8,0,0,0-3.3-1.4,23.4,23.4,0,0,1,1,3,33.64,33.64,0,0,1,.9,11,18.82,18.82,0,0,1-.8,4.3,7.27,7.27,0,0,0,2.15-2q2.15-2.9,2.15-9.9a10.67,10.67,0,0,0-.4-3.4A0.38,0.38,0,0,1,236.88,318.72Z" transform="translate(-175.16 -68.52)"/><path class="cls-5" d="M232.68,335.12a8,8,0,0,0,.35-1,13.38,13.38,0,0,1-6.65,1.45q-2.4,0-4-.1-0.9-.1-1.55-0.2a15.78,15.78,0,0,1-3.4-.9q1,5.2,7.15,5.9a33.08,33.08,0,0,0,5.8-.25,0.2,0.2,0,0,1,0-.15A24.18,24.18,0,0,0,232.68,335.12Z" transform="translate(-175.16 -68.52)"/><path class="cls-3" d="M233,334.17a18.82,18.82,0,0,0,.8-4.3,33.64,33.64,0,0,0-.9-11,23.4,23.4,0,0,0-1-3,9.09,9.09,0,0,0-1.9-.1,18.29,18.29,0,0,0-5.75,1.65,10.09,10.09,0,0,0-5,5.2,23.61,23.61,0,0,0-2,8,4.34,4.34,0,0,1,0,.6,14.48,14.48,0,0,0,.15,3.25,15.78,15.78,0,0,0,3.4.9q0.65,0.1,1.55.2,1.6,0.1,4,.1a13.38,13.38,0,0,0,6.65-1.45M221.63,323a6.77,6.77,0,0,1,3.9-3.4q2.25-.7,2.3,0t-1.45,3.15a11.47,11.47,0,0,0-1.75,4.55,14.89,14.89,0,0,1-1,3.6,1.71,1.71,0,0,1-2.3,1q-1.65-.55-1.5-3.35A12,12,0,0,1,221.63,323Z" transform="translate(-175.16 -68.52)"/><path class="cls-6" d="M225.53,319.57a6.77,6.77,0,0,0-3.9,3.4,12,12,0,0,0-1.75,5.55q-0.15,2.8,1.5,3.35a1.71,1.71,0,0,0,2.3-1,14.89,14.89,0,0,0,1-3.6,11.47,11.47,0,0,1,1.75-4.55q1.5-2.45,1.45-3.15T225.53,319.57Z" transform="translate(-175.16 -68.52)"/><path class="cls-7" d="M239.08,322a0.14,0.14,0,0,1,0-.1,10.2,10.2,0,0,0-2.15-3.2,0.38,0.38,0,0,0,0,.15,10.67,10.67,0,0,1,.4,3.4q0,7-2.15,9.9a7.27,7.27,0,0,1-2.15,2,8,8,0,0,1-.35,1,24.18,24.18,0,0,1-2.25,4.8,0.2,0.2,0,0,0,0,.15l1.5-.3a8.53,8.53,0,0,0,3.3-1.35l0.65-.45a10.25,10.25,0,0,0,1.7-1.7,12.38,12.38,0,0,0,2.45-6.95,17.78,17.78,0,0,0,.1-2.65A14.22,14.22,0,0,0,239.08,322Z" transform="translate(-175.16 -68.52)"/></g><path d="M226,340.86q-0.74,0-1.4,0c-4.38-.49-6.94-2.62-7.61-6.31h0a15,15,0,0,1-.16-3.36,4.38,4.38,0,0,0,0-.57,24.25,24.25,0,0,1,2.05-8.17,10.62,10.62,0,0,1,5.2-5.44,18.85,18.85,0,0,1,5.9-1.69,9.48,9.48,0,0,1,2,.1h0a9.34,9.34,0,0,1,3.48,1.48,11.92,11.92,0,0,1,1.73,1.52,10.74,10.74,0,0,1,2.25,3.35v0l0,0.08a14.65,14.65,0,0,1,1,4.62,14.4,14.4,0,0,1,4,12.07,0.5,0.5,0,0,1-.67.42,16.76,16.76,0,0,0-5.58-.77h-1.5l-0.72.25-0.61.42a9,9,0,0,1-3.48,1.43l-1.49.3h-0.05A38.79,38.79,0,0,1,226,340.86Zm-8-6.53c0.6,3.25,2.79,5,6.71,5.49a32.92,32.92,0,0,0,5.67-.25l1.48-.3A8.09,8.09,0,0,0,234.9,338l0.63-.44h0a9.79,9.79,0,0,0,1.6-1.6,12,12,0,0,0,2.34-6.68,17.47,17.47,0,0,0,.1-2.59,13.85,13.85,0,0,0-.94-4.42,0.63,0.63,0,0,1-.1-0.21,9.74,9.74,0,0,0-2-3h0a11,11,0,0,0-1.58-1.38,8.33,8.33,0,0,0-3.09-1.31,8.7,8.7,0,0,0-1.79-.09,17.85,17.85,0,0,0-5.57,1.61,9.66,9.66,0,0,0-4.71,5,23.23,23.23,0,0,0-2,7.78,4.26,4.26,0,0,1-.05.62A14,14,0,0,0,217.93,334.33Zm20.36,2.84a19.19,19.19,0,0,1,5.31.63,13.35,13.35,0,0,0-3-9.84c0,0.47-.05.94-0.1,1.41a12.91,12.91,0,0,1-2.56,7.21c-0.16.21-.33,0.4-0.5,0.59h0.87Z" transform="translate(-175.16 -68.52)"/><g id="Layer0_0_MEMBER_23_FILL" data-name="Layer0 0 MEMBER 23 FILL"><path class="cls-10" d="M307.38,285.67a10.09,10.09,0,0,0-1.9,2.4q-0.75,1.35-1.05,1.95a9.22,9.22,0,0,0-.75,1.75,4.48,4.48,0,0,1-.4,1q-0.25.6-.45,1.2a27,27,0,0,1-2.75,4.4,1.71,1.71,0,0,0-.05,1.45,1.15,1.15,0,0,0,.95.8,2.42,2.42,0,0,0,1.9-.2,4.23,4.23,0,0,0,1.65-1.5,11.55,11.55,0,0,0,.8-1.9,5.2,5.2,0,0,1,.45-1.15q-0.15,1.25-.2,1.9a11.54,11.54,0,0,1-.15,1.65q-0.15,1-.2,2.25a8.67,8.67,0,0,0,.3,2.6q0.2,0.75.45,1.45l3.3,0.35a5,5,0,0,1-.25-2.2q0-1.65,0-4.85,0,3.2,0,4.85a5,5,0,0,0,.25,2.2,26.8,26.8,0,0,0,4.2.15h0.05a0.2,0.2,0,0,1-.05-0.15,4.94,4.94,0,0,1-.2-2.3,34.93,34.93,0,0,0-.05-4.1,34.93,34.93,0,0,1,.05,4.1,4.94,4.94,0,0,0,.2,2.3,0.2,0.2,0,0,0,.05.15,20.75,20.75,0,0,0,3.7-.45l0.45-5-0.45,5q1.55-.3,3.15-0.75v-0.2a17.12,17.12,0,0,1,.8-5.4,13.65,13.65,0,0,0,.5-5.65,20.27,20.27,0,0,0-1.55-5.7,8.53,8.53,0,0,0-3.25-4.25q-2-1.25-6.45-.65a20.06,20.06,0,0,0-1.7,1.35Z" transform="translate(-175.16 -68.52)"/><path class="cls-18" d="M317.23,305.77v0.05q0.25,2,.3,2.7v0.55a3.06,3.06,0,0,0,.4.25,1.65,1.65,0,0,0,1.05-.05,2,2,0,0,0,1-1.1,7.9,7.9,0,0,0,.4-3.15q-1.6.45-3.15,0.75m0,0.05v-0.05a20.75,20.75,0,0,1-3.7.45,14.24,14.24,0,0,1,.8,2.4,7.37,7.37,0,0,1,.4,2,1.44,1.44,0,0,0,1.1.2,1.85,1.85,0,0,0,1.15-.6,1.92,1.92,0,0,0,.55-1.1v-0.55q-0.05-.7-0.3-2.7m-7.95.25a1.79,1.79,0,0,0,.15.45q0.6,1,1.25,2.15a17.34,17.34,0,0,0,.9,1.7q0.3,0.5.65,1a1.42,1.42,0,0,0,1.35.3,1.11,1.11,0,0,0,1-.8l0.1-.3a7.37,7.37,0,0,0-.4-2,14.24,14.24,0,0,0-.8-2.4h-0.05a26.8,26.8,0,0,1-4.2-.15m0.15,0.45a1.79,1.79,0,0,1-.15-0.45l-3.3-.35,0.35,0.8a10.84,10.84,0,0,0,1.15,1.8q0.6,0.95,1.45,2.05a1.52,1.52,0,0,0,1.85.7q1-.35.8-0.7a17.34,17.34,0,0,1-.9-1.7Q310,307.57,309.43,306.52Z" transform="translate(-175.16 -68.52)"/></g><path d="M313.14,312.21a1.63,1.63,0,0,1-1.28-.51l-0.3-.43a3.67,3.67,0,0,1-.62.27,2,2,0,0,1-2.41-.87c-0.57-.74-1.07-1.44-1.48-2.09a11.13,11.13,0,0,1-1.17-1.84l-0.36-.82v0q-0.26-.71-0.46-1.48a9.21,9.21,0,0,1-.32-2.75c0-.81.1-1.59,0.2-2.3l0-.18a4.75,4.75,0,0,1-1.85,1.69,2.92,2.92,0,0,1-2.29.23,1.61,1.61,0,0,1-1.27-1.1,2.23,2.23,0,0,1,.06-1.8,0.5,0.5,0,0,1,.07-0.12,26.62,26.62,0,0,0,2.7-4.32c0.11-.35.27-0.76,0.44-1.17a4.27,4.27,0,0,0,.38-0.94,9.7,9.7,0,0,1,.8-1.86c0.19-.38.54-1,1-1.95a10.46,10.46,0,0,1,2-2.51l1.38-1.17a20.55,20.55,0,0,1,1.74-1.38,0.5,0.5,0,0,1,.22-0.09c3.15-.42,5.37-0.18,6.79.73a9,9,0,0,1,3.44,4.48,20.85,20.85,0,0,1,1.59,5.84,14.2,14.2,0,0,1-.52,5.85,16.71,16.71,0,0,0-.78,5.25V305a8,8,0,0,1-.46,3.38,2.5,2.5,0,0,1-1.23,1.32,2.27,2.27,0,0,1-1.36.09,3,3,0,0,1-.48.69,2.36,2.36,0,0,1-1.48.76,2.29,2.29,0,0,1-.85,0,1.63,1.63,0,0,1-1.39.92A3.3,3.3,0,0,1,313.14,312.21ZM312,310.1h0q0.29,0.48.63,1a1.13,1.13,0,0,0,.86.09,0.62,0.62,0,0,0,.65-0.44l0.08-.24a7.38,7.38,0,0,0-.38-1.73,14.35,14.35,0,0,0-.75-2.29,0.69,0.69,0,0,1-.11-0.3,5.56,5.56,0,0,1-.2-2.46,34.76,34.76,0,0,0-.05-4,0.5,0.5,0,0,1,.47-0.53,0.49,0.49,0,0,1,.53.47,35.47,35.47,0,0,1,0,4.16,4.54,4.54,0,0,0,.17,2.09,0.45,0.45,0,0,1,0,.1v0a14.63,14.63,0,0,1,.83,2.48,9.27,9.27,0,0,1,.4,1.76,1.35,1.35,0,0,0,.55,0,1.38,1.38,0,0,0,.87-0.46A1.44,1.44,0,0,0,317,309v-0.52c0-.42-0.13-1.32-0.3-2.64,0,0,0-.07,0-0.1v-0.06l0.45-5a0.51,0.51,0,0,1,.54-0.45,0.5,0.5,0,0,1,.45.54l-0.45,5c0.17,1.34.26,2.23,0.3,2.71v0.32l0.15,0.09a1.6,1.6,0,0,0,.65-0.09,1.58,1.58,0,0,0,.69-0.82,7,7,0,0,0,.36-2.95v-0.2a17.67,17.67,0,0,1,.82-5.55,13.23,13.23,0,0,0,.48-5.44,19.87,19.87,0,0,0-1.51-5.57,8.1,8.1,0,0,0-3-4c-1.19-.76-3.2-1-6-0.6-0.52.37-1,.79-1.56,1.25l-1.36,1.16a9.63,9.63,0,0,0-1.77,2.24c-0.51.91-.85,1.55-1,2a8.76,8.76,0,0,0-.72,1.68,5,5,0,0,1-.44,1.09c-0.14.34-.28,0.73-0.41,1.11a27.38,27.38,0,0,1-2.78,4.49,1.21,1.21,0,0,0-.05,1,0.51,0.51,0,0,1,.05.15,0.8,0.8,0,0,0,.6.41,1.93,1.93,0,0,0,1.53-.17,3.73,3.73,0,0,0,1.45-1.32,11.17,11.17,0,0,0,.75-1.78,4.61,4.61,0,0,1,.53-1.3,0.5,0.5,0,0,1,.9.36q-0.15,1.23-.2,1.88a11.88,11.88,0,0,1-.15,1.69c-0.1.68-.16,1.42-0.2,2.2a8.24,8.24,0,0,0,.28,2.45q0.19,0.72.43,1.39l0.34,0.79a10.41,10.41,0,0,0,1.09,1.69c0.42,0.66.9,1.33,1.45,2.05a1,1,0,0,0,1.27.54,3.12,3.12,0,0,0,.43-0.18c-0.22-.37-0.48-0.88-0.8-1.54s-0.83-1.42-1.23-2.12a2.3,2.3,0,0,1-.2-0.56,5.58,5.58,0,0,1-.27-2.38c0-1.06,0-2.69,0-4.8a0.5,0.5,0,0,1,.49-0.51,0.52,0.52,0,0,1,.51.49c0,2.13,0,3.77,0,4.87a4.61,4.61,0,0,0,.21,2l0,0V306a1.3,1.3,0,0,0,.11.32c0.39,0.67.8,1.39,1.23,2.12A17.73,17.73,0,0,0,312,310.1Z" transform="translate(-175.16 -68.52)"/><g id="Layer0_0_MEMBER_24_FILL" data-name="Layer0 0 MEMBER 24 FILL"><path class="cls-7" d="M317.38,292.17a11.48,11.48,0,0,1-2,3.55q0.9,0,1.8-.05,4.6-.3,5.45-1.85a4.35,4.35,0,0,0,.55-3.05,1.47,1.47,0,0,0,0-.35A11.2,11.2,0,0,1,317.38,292.17Z" transform="translate(-175.16 -68.52)"/><path class="cls-4" d="M316.88,281.77a15.19,15.19,0,0,1,1.2,6.05,13.08,13.08,0,0,1-.7,4.35,11.2,11.2,0,0,0,5.7-1.75,22.77,22.77,0,0,0-1.8-4.5q-1.6-3.35-3.05-3.8Q317.53,281.92,316.88,281.77Z" transform="translate(-175.16 -68.52)"/><path class="cls-5" d="M309.28,291.32a16.3,16.3,0,0,1-5.3-2.4,3.54,3.54,0,0,0-.45.95q-1.35,2.8,3.8,4.45a26.61,26.61,0,0,0,8,1.4,11.48,11.48,0,0,0,2-3.55H317A27.11,27.11,0,0,1,309.28,291.32Z" transform="translate(-175.16 -68.52)"/><path class="cls-3" d="M304,288.92a16.3,16.3,0,0,0,5.3,2.4,27.11,27.11,0,0,0,7.75.85h0.35a13.08,13.08,0,0,0,.7-4.35,15.19,15.19,0,0,0-1.2-6.05,8.83,8.83,0,0,0-1.45-.25,34.57,34.57,0,0,0-4.15-.1,5.19,5.19,0,0,0-4.7,2.85A38,38,0,0,0,304,288.92Z" transform="translate(-175.16 -68.52)"/></g><path d="M315.33,296.22h0a27.25,27.25,0,0,1-8.15-1.42c-2.34-.75-3.73-1.68-4.22-2.84a2.69,2.69,0,0,1,.13-2.3,3.7,3.7,0,0,1,.48-1,37.69,37.69,0,0,1,2.6-4.65,5.59,5.59,0,0,1,5.13-3.08,34.18,34.18,0,0,1,4.2.1,9.23,9.23,0,0,1,1.51.26q0.66,0.15,1.37.36c1.13,0.35,2.22,1.68,3.36,4.06a23,23,0,0,1,1.84,4.6,1.93,1.93,0,0,1,.06.47,4.74,4.74,0,0,1-.61,3.3c-0.66,1.2-2.57,1.89-5.85,2.1C316.55,296.2,315.94,296.22,315.33,296.22Zm-4.13-14.3a4.7,4.7,0,0,0-4.19,2.61,37.82,37.82,0,0,0-2.58,4.6,3.38,3.38,0,0,0-.42.88,1.8,1.8,0,0,0-.14,1.55c0.37,0.86,1.59,1.63,3.61,2.28a26.25,26.25,0,0,0,7.85,1.38q0.88,0,1.77,0c3.57-.23,4.71-1,5-1.59a3.84,3.84,0,0,0,.5-2.71,1.62,1.62,0,0,0,0-.33h0a22.47,22.47,0,0,0-1.76-4.39c-1.25-2.61-2.18-3.37-2.75-3.54s-0.89-.24-1.31-0.34h0a8.41,8.41,0,0,0-1.36-.24,34.72,34.72,0,0,0-4.1-.1H311.2Z" transform="translate(-175.16 -68.52)"/></svg>