<svg id="_x33_0" enable-background="new 0 0 64 64" height="512" viewBox="0 0 64 64" width="512" xmlns="http://www.w3.org/2000/svg"><g><path d="m5 6.816v26.184h2v-26.184c1.161-.414 2-1.514 2-2.816 0-1.654-1.346-3-3-3s-3 1.346-3 3c0 1.302.839 2.402 2 2.816z"/><path d="m11 12.816v9.349c.589-.47 1.266-.818 2-1.003v-8.346c1.161-.414 2-1.514 2-2.816 0-1.654-1.346-3-3-3s-3 1.346-3 3c0 1.302.839 2.402 2 2.816z"/><circle cx="8" cy="54" r="2"/><circle cx="30" cy="56" r="1"/><path d="m13.111 51h-2.493c.541.472.947 1.083 1.172 1.782.345-.663.791-1.264 1.321-1.782z"/><path d="m18 51c-2.757 0-5 2.243-5 5s2.243 5 5 5 5-2.243 5-5-2.243-5-5-5zm0 8c-1.654 0-3-1.346-3-3s1.346-3 3-3 3 1.346 3 3-1.346 3-3 3z"/><path d="m22.889 61h2.221c-.429-.42-.8-.896-1.111-1.413-.31.517-.681.993-1.11 1.413z"/><path d="m25.111 51h-2.221c.429.42.8.896 1.111 1.413.31-.517.681-.993 1.11-1.413z"/><path d="m11.555 24.471c-.364.544-.555 1.177-.555 1.832 0 1.662.313 3.287.931 4.83l.746 1.867h4.919c1.834 0 3.541.821 4.686 2.253l2.999 3.747h19.603l-4.727-8h-15.157v-6h11.611l-.601-1.018c-.358-.605-1.018-.982-1.722-.982h-19.985c-1.108 0-2.135.55-2.748 1.471z"/><path d="m47.247 43-1.182-2h-19.184l1.6 2z"/><path d="m8 58c-.92 0-1.758-.325-2.434-.848l.641.641c1.858 1.858 4.266 2.957 6.856 3.164-1.144-1.14-1.893-2.672-2.034-4.375-.734.86-1.812 1.418-3.029 1.418z"/><path d="m17 19h12v2h-12z"/><path d="m27 29h11.975l-1.182-2h-10.793z"/><path d="m20.72 36.502c-.763-.955-1.901-1.502-3.123-1.502h-12.597c-1.103 0-2 .897-2 2v6h22.919zm-11.72 2.498h-2v-2h2zm4 0h-2v-2h2zm4 0h-2v-2h2z"/><path d="m3 51c0 1.722.501 3.366 1.431 4.769-.267-.536-.431-1.131-.431-1.769 0-1.201.542-2.266 1.382-3z"/><circle cx="18" cy="56" r="1"/><path d="m42 51c-2.757 0-5 2.243-5 5s2.243 5 5 5 5-2.243 5-5-2.243-5-5-5zm0 8c-1.654 0-3-1.346-3-3s1.346-3 3-3 3 1.346 3 3-1.346 3-3 3z"/><circle cx="51" cy="53" r="2"/><path d="m48.978 56.432c-.101 1.634-.762 3.116-1.797 4.258 2.07-.588 3.802-1.986 4.824-3.833-.323.084-.656.143-1.005.143-.741 0-1.426-.216-2.022-.568z"/><path d="m38.009 23.434 2.073 3.509 15.36-4.191-1.142-4.277z"/><path d="m52.459 45h-49.459v2c0 1.103.897 2 2 2h46 3.819l-.388-2.329c-.16-.968-.991-1.671-1.972-1.671z"/><path d="m60.957 19.973-.559-2.063c-.148-.663-.822-1.04-1.405-.862l-2.779.846 1.157 4.333 2.722-.743c.534-.146.907-.634.907-1.187 0-.109-.015-.218-.043-.324z"/><path d="m30 51c-2.757 0-5 2.243-5 5s2.243 5 5 5 5-2.243 5-5-2.243-5-5-5zm0 8c-1.654 0-3-1.346-3-3s1.346-3 3-3 3 1.346 3 3-1.346 3-3 3z"/><path d="m37.111 51h-2.221c.429.42.8.896 1.111 1.413.31-.517.681-.993 1.11-1.413z"/><circle cx="42" cy="56" r="1"/><path d="m34.889 61h2.221c-.429-.42-.8-.896-1.111-1.413-.31.517-.681.993-1.11 1.413z"/></g></svg>