<?xml version="1.0" encoding="iso-8859-1"?>
<!-- Generator: Adobe Illustrator 19.0.0, SVG Export Plug-In . SVG Version: 6.00 Build 0)  -->
<svg version="1.1" id="Layer_1" xmlns="http://www.w3.org/2000/svg" xmlns:xlink="http://www.w3.org/1999/xlink" x="0px" y="0px"
	 viewBox="0 0 512 512" style="enable-background:new 0 0 512 512;" xml:space="preserve">
<g>
	<g>
		<rect x="339.478" y="244.87" width="172.522" height="100.174"/>
	</g>
</g>
<g>
	<g>
		<rect y="244.87" width="306.087" height="100.174"/>
	</g>
</g>
<g>
	<g>
		<path d="M0,378.435v116.87C0,504.521,7.479,512,16.696,512h478.609c9.217,0,16.696-7.479,16.696-16.696v-116.87H0z"/>
	</g>
</g>
<g>
	<g>
		<path d="M289.391,0h-66.783c-9.217,0-16.696,7.473-16.696,16.696v27.826h100.174V16.696C306.087,7.473,298.608,0,289.391,0z"/>
	</g>
</g>
<g>
	<g>
		<path d="M456.348,0h-66.783c-9.217,0-16.696,7.473-16.696,16.696v27.826h100.174V16.696C473.043,7.473,465.565,0,456.348,0z"/>
	</g>
</g>
<g>
	<g>
		<path d="M122.435,0H55.652c-9.217,0-16.696,7.473-16.696,16.696v27.826H139.13V16.696C139.13,7.473,131.652,0,122.435,0z"/>
	</g>
</g>
<g>
	<g>
		<path d="M495.304,77.913c-159.41,0-318.739,0-478.609,0C7.479,77.913,0,85.386,0,94.609v116.87h512V94.609
			C512,85.386,504.521,77.913,495.304,77.913z"/>
	</g>
</g>
<g>
</g>
<g>
</g>
<g>
</g>
<g>
</g>
<g>
</g>
<g>
</g>
<g>
</g>
<g>
</g>
<g>
</g>
<g>
</g>
<g>
</g>
<g>
</g>
<g>
</g>
<g>
</g>
<g>
</g>
</svg>
