<?xml version="1.0" encoding="iso-8859-1"?>
<!-- Generator: Adobe Illustrator 19.0.0, SVG Export Plug-In . SVG Version: 6.00 Build 0)  -->
<svg version="1.1" id="Capa_1" xmlns="http://www.w3.org/2000/svg" xmlns:xlink="http://www.w3.org/1999/xlink" x="0px" y="0px"
	 viewBox="0 0 453.36 453.36" style="enable-background:new 0 0 453.36 453.36;" xml:space="preserve">
<g>
	<g>
		<path d="M396.52,0h-65.48c-4.418,0-8,3.582-8,8v40h-53.4V8c0-4.418-3.582-8-8-8h-69.96c-4.418,0-8,3.582-8,8v40h-53.36V8
			c0-4.418-3.582-8-8-8H56.84c-4.418,0-8,3.582-8,8v85.88c0.044,21.653,17.587,39.196,39.24,39.24h0.16h277.04
			c21.653-0.044,39.196-17.587,39.24-39.24V8C404.52,3.582,400.938,0,396.52,0z"/>
	</g>
</g>
<g>
	<g>
		<path d="M358.76,145.08h-264L83.44,401.92v2.48c-0.077,12.208,4.047,24.072,11.68,33.6c7.007,9.012,17.53,14.601,28.92,15.36
			h205.48c11.39-0.759,21.913-6.348,28.92-15.36c7.633-9.528,11.757-21.392,11.68-33.6c0-0.48,0-1.32,0-2.48L358.76,145.08z
			 M287.44,437.76H166V325.12c0-33.568,27.212-60.78,60.78-60.78s60.78,27.212,60.78,60.78L287.44,437.76z"/>
	</g>
</g>
<g>
</g>
<g>
</g>
<g>
</g>
<g>
</g>
<g>
</g>
<g>
</g>
<g>
</g>
<g>
</g>
<g>
</g>
<g>
</g>
<g>
</g>
<g>
</g>
<g>
</g>
<g>
</g>
<g>
</g>
</svg>
