<?xml version="1.0" encoding="iso-8859-1"?>
<!-- Generator: Adobe Illustrator 18.0.0, SVG Export Plug-In . SVG Version: 6.00 Build 0)  -->
<!DOCTYPE svg PUBLIC "-//W3C//DTD SVG 1.1//EN" "http://www.w3.org/Graphics/SVG/1.1/DTD/svg11.dtd">
<svg version="1.1" id="Capa_1" xmlns="http://www.w3.org/2000/svg" xmlns:xlink="http://www.w3.org/1999/xlink" x="0px" y="0px"
	 viewBox="0 0 493.783 493.783" style="enable-background:new 0 0 493.783 493.783;" xml:space="preserve">
<path d="M491.136,344.747l-16.473-3.469l-41.525-167.221c-0.11-0.438-0.275-0.925-0.47-1.362c-1.827-4.078-6.625-5.916-10.713-4.078
	l-0.796,0.348l-29.111,13.04l-11.717-47.161c-0.112-0.441-0.277-0.924-0.47-1.362c-1.828-4.081-6.625-5.919-10.714-4.081
	l-0.795,0.351l-121.254,54.296c-7.708-2.341-15.591-4.447-23.797-6.013c-40.306-7.683-77.985-9.979-107.519-6.819
	c-15.313,1.638-41.938,7.204-54.609,11.046c7.34-41.637,36.127-66.581,58.441-80.018c1.037-0.625,1.42-1.942,0.878-3.025
	s-1.824-1.566-2.946-1.113c-49.293,19.9-65.175,56.125-70.29,77.886c0.004-33.119,15.574-59.638,29.556-76.776
	c0.765-0.938,0.681-2.307-0.195-3.144c-0.875-0.837-2.246-0.858-3.149-0.053c-50.718,45.226-41.034,97.123-37.201,111.113
	c-2.077,3.076-5.589,10.118-5.691,16.616h-0.129v36.142c0,5.625,4.068,10.296,9.427,11.224c1.072,0.186,2.125-0.398,2.539-1.404
	c2.19-5.321,6.29-9.649,11.533-12.11c5.741-2.706,12.345-2.91,18.254-0.588l26.757,10.539l-5.83,12.435l-49.833,7.174l-0.477,0.072
	c-2.387,0.365-4.533,1.892-5.59,4.246L0.263,373.962c-0.62,1.394-0.119,3.064,1.226,3.859c1.447,0.849,3.31,0.373,4.167-1.075
	l43.807-74.021l50.342-7.246c2.599-0.397,5.01-2.053,6.21-4.615l8.123-17.332l19.989,7.869c7.643,3.013,15.494,5.354,23.424,7.389
	l34.425,45.648l4.87,61.114c0.111,1.462,1.279,2.67,2.792,2.792c1.669,0.132,3.142-1.115,3.268-2.792l5.113-64.16
	c0.122-1.526-0.293-3.117-1.293-4.447l-0.352-0.462l-21.715-28.792c4.755,2.519,9.618,5.002,14.573,7.428
	c80.217,39.216,168.787,22.916,168.787,22.916s-12.606-24.141-37.195-52.378c25.335-7.081,41.276-14.724,41.276-14.724
	s-8.008-8.615-22.201-20.354l33.822-24.492l23.515,94.672l0.365,1.462c0.828,3.326,4.15,5.433,7.539,4.719l23.195-4.884
	c1.248-0.265,2.29-1.243,2.577-2.576c0.373-1.799-0.777-3.565-2.577-3.945l-16.472-3.469l-23.913-96.288l22.271-16.122
	l39.811,160.316l0.369,1.466c0.824,3.325,4.15,5.432,7.54,4.715l23.194-4.884c1.247-0.262,2.29-1.24,2.577-2.576
	C494.086,346.894,492.932,345.13,491.136,344.747z M316.014,216.055c-6.768-4.293-14.015-8.543-21.793-12.621l73.193-52.994
	l9.521,38.334L316.014,216.055z"/>
<g>
</g>
<g>
</g>
<g>
</g>
<g>
</g>
<g>
</g>
<g>
</g>
<g>
</g>
<g>
</g>
<g>
</g>
<g>
</g>
<g>
</g>
<g>
</g>
<g>
</g>
<g>
</g>
<g>
</g>
</svg>
