<svg id="_x33_0" enable-background="new 0 0 64 64" height="512" viewBox="0 0 64 64" width="512" xmlns="http://www.w3.org/2000/svg"><g><path d="m5.316 17.814c-1.429-.906-2.316-2.5-2.316-4.196 0-.25.059-.5.171-.724.275-.551.83-.894 1.447-.894h.382v-2h-.382c-1.379 0-2.619.767-3.236 2-.25.5-.382 1.06-.382 1.618 0 2.291 1.159 4.445 3.036 5.736.352-.573.783-1.091 1.28-1.54z"/><path d="m8.218 16.239c.57-.151 1.165-.239 1.782-.239h.278l-.575-1.435c-.467-1.166-.703-2.394-.703-3.651 0-1.055.309-2.075.894-2.951.723-1.085 2.404-1.25 3.325-.33l.074.074 1.414-1.414-.074-.074c-.786-.786-1.83-1.219-2.942-1.219-1.394 0-2.688.692-3.462 1.853-.804 1.206-1.229 2.61-1.229 4.061 0 1.513.284 2.99.846 4.395z"/><path d="m15 45c1.105 0 2-.895 2-2v-1.462c-.464.29-1.007.462-1.591.462h-.563c-.506 0-.975-.144-1.388-.377l-.371 1.112c-.057.176-.087.359-.087.544 0 .951.77 1.721 1.721 1.721z"/><path d="m17.664 49.574-1.219-.813c-.279-.185-.445-.496-.445-.831v-1.072c-.322.084-.653.142-1 .142h-.279c-.247 0-.487-.027-.721-.073v1.003c0 1.005.499 1.938 1.336 2.496l1.219.813c.279.185.445.496.445.831v1.93h2v-1.93c0-1.005-.499-1.938-1.336-2.496z"/><path d="m24 47c1.105 0 2-.895 2-2v-1.572c-.495.355-1.092.572-1.734.572h-.34c-.523 0-1.019-.147-1.458-.404l-.38 1.139c-.058.176-.088.359-.088.544 0 .951.77 1.721 1.721 1.721z"/><path d="m26.664 51.574-1.219-.813c-.279-.185-.445-.496-.445-.831v-1.072c-.322.084-.653.142-1 .142h-.279c-.247 0-.487-.027-.721-.073v1.003c0 1.005.499 1.938 1.336 2.496l1.219.813c.279.185.445.496.445.831v1.93h2v-1.93c0-1.005-.499-1.938-1.336-2.496z"/><path d="m35.279 49c.951 0 1.721-.77 1.721-1.721 0-.185-.03-.369-.088-.544l-.381-1.143c-.434.253-.931.408-1.469.408h-.402c-.611 0-1.18-.193-1.66-.514v1.514c0 1.105.895 2 2 2z"/><path d="m8.664 46.574-1.219-.813c-.279-.185-.445-.496-.445-.831v-1c-.226.043-.458.07-.697.07-.457 0-.889-.091-1.303-.224v1.153c0 1.005.499 1.938 1.336 2.496l1.219.813c.279.186.445.497.445.832v1.93h2v-1.93c0-1.005-.499-1.938-1.336-2.496z"/><path d="m37.664 53.574-1.219-.813c-.279-.185-.445-.496-.445-.831v-1.003c-.233.046-.474.073-.721.073h-.279c-.347 0-.678-.058-1-.142v1.072c0 1.005.499 1.938 1.336 2.496l1.219.813c.279.185.445.496.445.831v1.93h2v-1.93c0-1.005-.499-1.938-1.336-2.496z"/><path d="m8 40.303v-1.314c-.029 0-.056.006-.085.006-.763 0-1.518-.177-2.185-.511l-.179-.09c-.294-.147-.54-.353-.76-.582l-.404.608c-.252.378-.387.823-.387 1.277 0 1.272 1.031 2.303 2.303 2.303.937 0 1.697-.76 1.697-1.697z"/><path d="m5 24c0 1.103.897 2 2 2h3c1.654 0 3-1.346 3-3v-3c0-1.103-.897-2-2-2h-1c-2.757 0-5 2.243-5 5zm5-4c.552 0 1 .448 1 1s-.448 1-1 1-1-.448-1-1 .448-1 1-1z"/><path d="m30.773 22.626c.797.243 1.62.374 2.463.374h2.146c.25 0 .5-.059.724-.171.551-.275.894-.83.894-1.447v-9.711c0-.921-.75-1.671-1.671-1.671-.138 0-.273.017-.402.05l-.939.234c-1.136.284-2.209.797-3.158 1.482.104.286.17.59.17.911v8.705c0 .434-.084.852-.227 1.244zm2.227-3.626h2v2h-2z"/><path d="m6.309 35.234c-.197.157-.309.39-.309.641 0 .313.174.594.454.733l.172.087c.864.433 1.95.394 2.785-.108l3.308-1.984.865-5.188z"/><path d="m39 21.382c0 .435-.084.852-.227 1.244.797.243 1.62.374 2.463.374h1.35c.645 0 1.251-.251 1.707-.707s.707-1.063.707-1.707v-8.172c0-.645-.251-1.251-.707-1.707s-1.063-.707-1.707-.707h-1.35c-.838 0-1.678.136-2.482.382.152.402.246.834.246 1.289zm2-2.382h2v2h-2z"/><path d="m22.773 22.626c.797.243 1.62.374 2.463.374h2.146c.25 0 .5-.059.724-.171.551-.275.894-.83.894-1.447v-8.705c0-.459-.491-.799-.93-.628l-2.073.829c-1.151.461-2.216 1.09-3.184 1.858.116.302.187.627.187.969v5.677c0 .434-.084.852-.227 1.244zm2.227-3.626h2v2h-2z"/><path d="m15 20v3h4.231c.469 0 .705-.086.874-.171.552-.275.895-.83.895-1.447v-5.677c0-.47-.505-.821-.941-.664l-3.052 1.086c-1.016.362-1.906.971-2.624 1.76.385.615.617 1.335.617 2.113zm2-1h2v2h-2z"/><path d="m46.523 22.544c.873.295 1.793.456 2.713.456h1.764c1.103 0 2-.897 2-2v-4.879c0-1.085-.44-2.146-1.207-2.914-.768-.767-1.829-1.207-2.914-1.207h-1.919c.013.138.04.273.04.414v8.172c0 .693-.176 1.354-.477 1.958zm2.477-3.544h2v2h-2z"/><path d="m54.666 22.59c.831.264 1.701.41 2.57.41h2.764c.552 0 1-.448 1-1 0-1.667-.649-3.235-1.828-4.414-1.252-1.252-2.734-2.24-4.354-2.925.116.473.182.961.182 1.46v4.879c0 .566-.121 1.102-.334 1.59zm2.334-3.59h2v2h-2z"/><path d="m60 25h-2.764c-1.33 0-2.66-.275-3.897-.77-.659.479-1.463.77-2.339.77h-1.764c-1.396 0-2.787-.301-4.075-.845-.747.542-1.635.845-2.575.845h-1.35c-1.285 0-2.532-.244-3.723-.7-.161.117-.33.226-.513.318-.5.25-1.06.382-1.618.382h-2.146c-1.285 0-2.532-.244-3.723-.7-.161.117-.33.226-.513.318-.5.25-1.06.382-1.618.382h-2.146c-1.285 0-2.532-.244-3.723-.7-.161.117-.33.226-.513.318-.521.261-1.083.382-1.769.382h-4.655c-.13.297-.288.578-.471.842 2.067.854 4.229 1.442 6.456 1.721l5.702.713c2.372.297 4.665.882 6.863 1.733l-1.055-2.638 1.857-.742 1.821 4.551c.618.313 1.23.641 1.83 1.001 2.625 1.576 5.575 2.51 8.614 2.751l-2.05-3.417 1.715-1.029 2.681 4.468c4.559-.235 8.856-2.479 11.608-6.148.549-.735.853-1.645.853-2.562 0-.461-.081-.92-.227-1.358-.248.067-.504.114-.773.114zm-19.4 5.8-1.2-1.6 4-3 1.199 1.6zm13.4.2h-4v-2h4z"/><path d="m24.266 42c.494 0 .92-.369.989-.858l1.538-10.764c-.259-.04-.516-.085-.777-.118l-2.165-.271-.847 11.014c-.004.582.411.997.922.997z"/><path d="m14.847 40h.563c.469 0 .869-.318.974-.774l2.297-9.95c-.989-.185-1.966-.42-2.926-.713l-1.742 10.451c-.009.046-.013.092-.013.139 0 .467.38.847.847.847z"/><path d="m34.66 44h.402c.517 0 .938-.421.938-.937l-.005-.094-.821-9.841c-1.192-.625-2.421-1.159-3.683-1.596l2.185 11.652c.09.473.503.816.984.816z"/></g></svg>