<?xml version="1.0"?>
<svg xmlns="http://www.w3.org/2000/svg" id="Layer_3_copy_2" data-name="Layer 3 copy 2" viewBox="0 0 64 64" width="512" height="512"><path d="M27.393,19.892a.986.986,0,0,0,.118.136A5.97,5.97,0,0,0,26,24v.069A8.009,8.009,0,0,1,27,24H37a8.009,8.009,0,0,1,1,.069V24a5.97,5.97,0,0,0-1.511-3.971.987.987,0,0,0,.118-.136l2.225-3.338a1,1,0,0,0-1.664-1.109l-2.221,3.332a5.977,5.977,0,0,0-5.893,0l-2.221-3.331a1,1,0,1,0-1.664,1.109Z"/><path d="M62,24a17.384,17.384,0,0,0-.16-2.4c-.93-6.88-5.82-12.85-12.88-16.57A22.056,22.056,0,0,1,52,16.25c0,6.864-2.726,11.426-7.19,14.033A7.941,7.941,0,0,1,42.269,38,7.924,7.924,0,0,1,45,44v1.881l2,1.6V63a1,1,0,0,0,2,0V46.52l-2.827-2.262C55.591,40.381,62,32.768,62,24Zm-6-8h2a1,1,0,0,1,0,2H56a1,1,0,0,1,0-2ZM49,36H47a1,1,0,0,1,0-2h2a1,1,0,0,1,0,2Zm3-12a1,1,0,0,1,1-1h2a1,1,0,0,1,0,2H53A1,1,0,0,1,52,24Zm3,7a1,1,0,0,1,1-1h2a1,1,0,0,1,0,2H56A1,1,0,0,1,55,31Z"/><path d="M19,32a7.97,7.97,0,0,1,.35-2.336A14.84,14.84,0,0,1,12,16.25,22.056,22.056,0,0,1,15.04,5.03C7.98,8.75,3.09,14.72,2.16,21.6A17.384,17.384,0,0,0,2,24c0,8.768,6.409,16.381,15.827,20.258L15,46.52V63a1,1,0,0,0,2,0V47.48l2-1.6V44a7.926,7.926,0,0,1,2.731-6A7.976,7.976,0,0,1,19,32ZM6,16H8a1,1,0,0,1,0,2H6a1,1,0,0,1,0-2ZM8,32H6a1,1,0,0,1,0-2H8a1,1,0,0,1,0,2Zm3-7H9a1,1,0,0,1,0-2h2a1,1,0,0,1,0,2Zm6,11H15a1,1,0,0,1,0-2h2a1,1,0,0,1,0,2Z"/><path d="M42.22,41.05a6.029,6.029,0,0,0-1.686-1.884A7.937,7.937,0,0,1,37,40H28a1,1,0,0,1,1,1v3a1,1,0,0,1-2,0V41a1,1,0,0,1,1-1H27a7.937,7.937,0,0,1-3.534-.834A6.029,6.029,0,0,0,21.78,41.05,5.905,5.905,0,0,0,21,44v9a6,6,0,0,0,6,6V48a1,1,0,0,1,2,0V59h6V44a1,1,0,0,1,2,0V59a6,6,0,0,0,6-6V44A5.905,5.905,0,0,0,42.22,41.05Z"/><path d="M42.25,28.637A12.84,12.84,0,0,0,45,20.5a13.13,13.13,0,0,0-1.956-7.032,1,1,0,0,0-1.691,1.068A11.13,11.13,0,0,1,43,20.5a10.856,10.856,0,0,1-2.257,6.815A5.971,5.971,0,0,0,37,26H27a5.97,5.97,0,0,0-3.743,1.315A10.859,10.859,0,0,1,21,20.5a11.137,11.137,0,0,1,1.648-5.967,1,1,0,0,0-1.691-1.068A13.137,13.137,0,0,0,19,20.5a12.844,12.844,0,0,0,2.752,8.14.948.948,0,0,0,.188.146A5.993,5.993,0,0,0,27,38H37a5.993,5.993,0,0,0,5.06-9.215A.948.948,0,0,0,42.25,28.637ZM33,32a1,1,0,0,1-2,0V29a1,1,0,0,1,2,0Z"/><circle cx="32" cy="7" r="6"/></svg>
